<?xml version="1.0" encoding="UTF-8"?>
<svg width="192px" height="192px" viewBox="0 0 192 192" version="1.1" xmlns="http://www.w3.org/2000/svg" xmlns:xlink="http://www.w3.org/1999/xlink">
    <title>Artboard Copy 73</title>
    <g id="Artboard-Copy-73" stroke="none" stroke-width="1" fill="none" fill-rule="evenodd" stroke-linecap="round" stroke-linejoin="round">
        <path d="M55.5548376,70.310537 C55.5548376,77.4753184 53.5411965,94.6829694 40.3174056,98.6733439 C27.0936147,102.663718 23.0371654,106.017989 13.1168616,113.369181 C3.19655792,120.720373 5.38566216,147.599642 20.9834469,147.599642 C37.4793385,147.599642 49.8001971,141.453333 57.9460227,129.160714 C57.9460227,129.542633 57.9460227,131.903017 57.9460227,136.241867 C57.9460227,140.580717 54.9476861,143.471652 48.951013,144.914674 L48.951013,147.599642 L128.323224,147.599642 C128.323224,141.320934 128.323224,138.18158 128.323224,138.18158 C130.078362,141.04489 139.614872,149.703477 151.975709,149.703477 C164.336546,149.703477 184.131255,136.241867 184.131255,110.652638 C184.131255,85.0634096 166.574059,70.310537 151.975709,70.310537 C142.243476,70.310537 134.359314,74.3041538 128.323224,82.2913874 C128.323224,67.0414942 128.323224,59.4165476 128.323224,59.4165476 C128.323224,48.729372 123.346506,42.8250152 113.393069,41.7034772 L92.9913353,41.7034772 C92.9913353,43.6141142 92.9913353,44.5694328 92.9913353,44.5694328 C97.7395798,44.5694328 100.709705,47.7309673 101.901712,54.0540363 C101.901712,108.845923 101.901712,136.241867 101.901712,136.241867 C101.901712,146.427153 84.5033626,146.427153 84.5033626,136.241867 C84.5033626,136.241867 84.5033626,106.755754 84.5033626,89.895364 C84.5033626,78.6551038 79.2569782,72.1268281 68.7642093,70.310537 C62.8574854,70.310537 58.4543615,70.310537 55.5548376,70.310537 C49.8597823,70.310537 44.2570372,70.310537 38.7466022,70.310537 C29.5534115,70.310537 25.0009683,74.3041538 25.0892725,82.2913874" id="Path-32" stroke="#000000" stroke-width="12"></path>
    </g>
</svg>