<?xml version="1.0" encoding="UTF-8"?>
<svg width="192px" height="192px" viewBox="0 0 192 192" version="1.1" xmlns="http://www.w3.org/2000/svg" xmlns:xlink="http://www.w3.org/1999/xlink">
    <title>Artboard Copy 47</title>
    <g id="Artboard-Copy-47" stroke="none" stroke-width="1" fill="none" fill-rule="evenodd">
        <g id="Blur" transform="translate(0.000000, 56.000000)" fill="#000000" fill-rule="nonzero">
            <path d="M0,80 L0,3 L28.9820359,3 C36.9594145,3 42.9973387,4.87 47.0958084,8.61 C51.1942781,12.35 53.243513,17.0433333 53.243513,22.69 C53.243513,27.6033333 51.9261477,31.5083333 49.2914172,34.405 C46.6566866,37.3016667 43.4730539,39.2633333 39.740519,40.29 C42.6679973,40.8766667 45.2844311,42.05 47.5898204,43.81 C49.8952096,45.57 51.7065868,47.77 53.0239521,50.41 C54.3413174,53.05 55,55.91 55,58.99 C55,62.95 54.0302728,66.525 52.0908184,69.715 C50.1513639,72.905 47.3153693,75.4166667 43.5828343,77.25 C39.8502994,79.0833333 35.2761144,80 29.8602794,80 L0,80 Z M11.6367265,36 L27.5548902,36 C32.0192947,36 35.4224884,34.955 37.7644711,32.865 C40.1064538,30.775 41.2774451,27.8966667 41.2774451,24.23 C41.2774451,20.6366667 40.1247505,17.7766667 37.8193613,15.65 C35.5139721,13.5233333 32.0192947,12.46 27.3353293,12.46 L11.6367265,12.46 L11.6367265,36 Z M11.6367265,70.43 L28.3233533,70.43 C33.0073187,70.43 36.6483699,69.33 39.246507,67.13 C41.844644,64.93 43.1437126,61.85 43.1437126,57.89 C43.1437126,53.93 41.7897538,50.795 39.0818363,48.485 C36.3739188,46.175 32.7145709,45.02 28.1037924,45.02 L11.6367265,45.02 L11.6367265,70.43 Z" id="Shape"></path>
            <polygon id="Path" points="68 80 68 0 80 0 80 80"></polygon>
            <path d="M115.167742,81 C108.587097,81 103.413978,78.9422572 99.6483871,74.8267717 C95.8827957,70.7112861 94,64.5748031 94,56.4173228 L94,25 L105.625806,25 L105.625806,55.2047244 C105.625806,65.7874016 109.939785,71.0787402 118.567742,71.0787402 C122.88172,71.0787402 126.427957,69.5354331 129.206452,66.4488189 C131.984946,63.3622047 133.374194,58.9527559 133.374194,53.2204724 L133.374194,25 L145,25 L145,79.6771654 L134.690323,79.6771654 L133.812903,70.0866142 C132.131183,73.4671916 129.663441,76.1312336 126.409677,78.0787402 C123.155914,80.0262467 119.408602,81 115.167742,81 Z" id="Path"></path>
            <path d="M160,80 L160,25.3228346 L170.519031,25.3228346 L171.515571,35.6850394 C173.434833,32.0839895 176.110727,29.2362205 179.543253,27.1417323 C182.975779,25.0472441 187.128028,24 192,24 L192,36.2362205 L188.788927,36.2362205 C185.540946,36.2362205 182.643599,36.7690289 180.096886,37.8346457 C177.550173,38.9002625 175.520185,40.7007874 174.00692,43.2362205 C172.493656,45.7716535 171.737024,49.2808399 171.737024,53.7637795 L171.737024,80 L160,80 Z" id="Path"></path>
        </g>
    </g>
</svg>