<?xml version="1.0" encoding="UTF-8"?>
<svg width="192px" height="192px" viewBox="0 0 192 192" version="1.1" xmlns="http://www.w3.org/2000/svg" xmlns:xlink="http://www.w3.org/1999/xlink">
    <title>Artboard Copy 2</title>
    <g id="Artboard-Copy-2" stroke="none" stroke-width="1" fill="none" fill-rule="evenodd">
        <g id="5fc24a65f7e1555200865e1b_bring-logo" transform="translate(54.000000, 18.500000)">
            <path d="M52,22 C52,9.8497355 42.1502645,0 30,0 C17.8497355,0 8,9.8497355 8,22" id="Oval" stroke="#000000" stroke-width="12" stroke-linecap="round" stroke-linejoin="round"></path>
            <path d="M71,22 C71,9.8497355 61.1502645,0 49,0 C36.8497355,0 27,9.8497355 27,22" id="Oval-Copy" stroke="#000000" stroke-width="12" stroke-linecap="round" stroke-linejoin="round"></path>
            <path d="M26.3276966,113.17685 L53.4961638,77.2687242 C55.7110205,74.3413838 55.2839593,70.199483 52.5183886,67.7856622 C49.9896087,65.5785149 46.1503812,65.8392497 43.9432339,68.3680297 C43.8502072,68.4746125 43.7609304,68.5844111 43.6755665,68.6972246 L23.1842412,95.7777711 C22.522407,96.6524257 21.2796053,96.8308503 20.3984324,96.1777198 L13.2406292,90.8723136 C10.3673415,88.7426157 6.32908052,89.2384037 4.05629744,91.9998983 C1.79037627,94.7530556 2.10225951,98.8040804 4.76290377,101.177948 L19.0116382,113.890885 C21.0721452,115.729301 24.2328465,115.54926 26.0712621,113.488753 C26.1609052,113.388281 26.2464531,113.284228 26.3276966,113.17685 Z" id="Path" fill="#000000" fill-rule="nonzero"></path>
        </g>
        <polygon id="Rectangle" stroke="#000000" stroke-width="12" stroke-linejoin="round" points="45.4652778 46.6666667 127.048611 43 127.048611 175 40.8819444 162.673631"></polygon>
        <polygon id="Rectangle-Copy" stroke="#000000" stroke-width="12" stroke-linejoin="round" points="127.048611 43 147.095932 46.2083333 151.798611 155.220484 127.048611 175"></polygon>
    </g>
</svg>