<?xml version="1.0" encoding="UTF-8"?>
<svg width="192px" height="192px" viewBox="0 0 192 192" version="1.1" xmlns="http://www.w3.org/2000/svg" xmlns:xlink="http://www.w3.org/1999/xlink">
    <title>Artboard Copy 90</title>
    <g id="Artboard-Copy-90" stroke="none" stroke-width="1" fill="none" fill-rule="evenodd">
        <g id="Group-2" transform="translate(46.000000, 16.000000)" fill="#000000">
            <g id="icon-park-solid:airpods" transform="translate(10.044197, 80.379767)">
                <path d="M45.7816335,17.9145534 L45.7816335,73.6487152 C45.7816335,76.9466932 48.4551729,79.6202327 51.7531509,79.6202327 C55.0511289,79.6202327 57.7246684,76.9466932 57.7246684,73.6487152 L57.7246684,34.8099665 L57.7246684,34.8099665 C59.6427603,35.4866946 61.6622161,35.8313484 63.6961858,35.8291054 C70.4011316,35.8306015 76.5456421,32.0878266 79.6202322,26.1293708 L79.6202322,9.69973602 C76.5456421,3.74128016 70.4011316,-0.00149475191 63.6961858,4.47820867e-07 C53.8022518,4.47820867e-07 45.7816335,8.0206195 45.7816335,17.9145534 Z M33.8385987,17.9145534 L33.8385987,73.6487152 C33.8385987,76.9466932 31.1650593,79.6202327 27.8670813,79.6202327 C24.5691033,79.6202327 21.8955639,76.9466932 21.8955639,73.6487152 L21.8955639,34.8099665 L21.8955639,34.8099665 C19.9774719,35.4866946 17.9580161,35.8313484 15.9240464,35.8291054 C9.21910058,35.8306015 3.07459008,32.0878266 0,26.1293708 L0,9.69973602 C3.07459008,3.74128016 9.21910058,-0.00149475191 15.9240464,4.47820867e-07 C25.8179804,4.47820867e-07 33.8385987,8.0206195 33.8385987,17.9145534 Z" id="Shape"></path>
            </g>
            <g id="Group">
                <circle id="Oval" cx="32.0445244" cy="21.5681781" r="5.23817317"></circle>
                <circle id="Oval-Copy" cx="67.664102" cy="21.5681781" r="5.23817317"></circle>
                <path d="M49.8543132,0 C22.4439574,0 0,20.3064376 0,45.6637746 C0,48.896661 2.6207722,51.5174332 5.85365854,51.5174332 L93.8549678,51.5174332 C97.0878542,51.5174332 99.7086264,48.896661 99.7086264,45.6637746 C99.7086264,20.3064376 77.264669,0 49.8543132,0 Z M49.8543132,11.7073171 L50.4887725,11.7119072 C69.0615563,11.9808427 84.255593,24.0362209 87.402752,39.6555329 L87.4312195,39.8097561 L12.2760976,39.8097561 L12.3058744,39.6555329 C15.4887965,23.8587288 30.9939447,11.7073171 49.8543132,11.7073171 Z" id="Oval" fill-rule="nonzero" transform="translate(49.854313, 25.758717) scale(1, -1) translate(-49.854313, -25.758717) "></path>
                <path d="M23.9163035,39.4529834 C25.6106509,36.6996688 29.2161933,35.8412064 31.9695079,37.5355538 C34.7228224,39.2299012 35.5812849,42.8354436 33.8869375,45.5887581 L25.5058604,59.2080084 C23.811513,61.9613229 20.2059706,62.8197854 17.452656,61.125438 C14.6993415,59.4310906 13.840879,55.8255482 15.5352264,53.0722336 L23.9163035,39.4529834 Z" id="Path-47" fill-rule="nonzero"></path>
                <path d="M74.202766,39.4529834 C75.8971134,36.6996688 79.5026558,35.8412064 82.2559703,37.5355538 C85.0092849,39.2299012 85.8677473,42.8354436 84.1733999,45.5887581 L75.7923228,59.2080084 C74.0979754,61.9613229 70.492433,62.8197854 67.7391185,61.125438 C64.985804,59.4310906 64.1273415,55.8255482 65.8216889,53.0722336 L74.202766,39.4529834 Z" id="Path-47-Copy" fill-rule="nonzero" transform="translate(74.997544, 49.330496) scale(-1, 1) translate(-74.997544, -49.330496) "></path>
            </g>
        </g>
    </g>
</svg>