<?xml version="1.0" encoding="UTF-8"?>
<svg width="192px" height="192px" viewBox="0 0 192 192" version="1.1" xmlns="http://www.w3.org/2000/svg" xmlns:xlink="http://www.w3.org/1999/xlink">
    <title>Artboard Copy 10</title>
    <g id="Artboard-Copy-10" stroke="none" stroke-width="1" fill="none" fill-rule="evenodd" stroke-linejoin="round">
        <g id="CNN" transform="translate(19.000000, 64.000000)" fill-rule="nonzero" stroke="#000000" stroke-width="12">
            <path d="M30.348729,63.4143098 L55.5975672,63.4143098 C58.8640871,63.4143098 61.7303687,60.5484256 61.7303687,57.2809141 L61.7303687,7.66439855 C61.7303687,6.3620448 62.7872467,5.30270967 64.0874551,5.30270967 C64.9082669,5.30270967 65.6992802,5.74871378 66.103879,6.439891 C66.2295472,6.65744202 74.2262147,20.4681369 81.9592271,33.8233944 C90.0517803,47.8007039 97.6954292,61.001687 97.8218286,61.2185097 C98.824954,62.9348496 100.693917,64 102.700894,64 C105.830863,64 108.376796,61.4498684 108.376796,58.3147856 L108.376796,7.66439855 C108.376796,6.3620448 109.433679,5.30270967 110.733904,5.30270967 C111.554694,5.30270967 112.34646,5.74871378 112.750317,6.439891 C112.880335,6.66252619 120.868297,20.4703342 128.594761,33.822662 C136.680781,47.7999714 144.319349,61.001687 144.445748,61.2185097 C145.448158,62.9348496 147.317826,64 149.324803,64 C152.454782,64 155,61.4498684 155,58.3147856 L155,1.65903937 C155,0.742777228 154.257223,-1.68314626e-16 153.340961,0 C152.424698,1.68314626e-16 151.681921,0.742777228 151.681921,1.65903937 L151.681921,58.3147848 L151.681921,58.3147848 C151.681921,59.6178696 150.625027,60.6772034 149.324803,60.6772034 C148.504023,60.6772034 147.712983,60.231198 147.30839,59.5400034 C147.179108,59.3173642 139.19042,45.5103127 131.465408,32.1572564 C123.377936,18.1792119 115.740084,4.97822605 115.612969,4.76211983 C114.610559,3.04506885 112.74088,1.97918404 110.733904,1.97918404 C107.603935,1.97918404 105.058717,4.53002469 105.058717,7.66439907 L105.058717,58.3147861 C105.058717,59.617871 104.001108,60.6772048 102.700894,60.6772048 C101.880093,60.6772048 101.089074,60.2311993 100.684481,59.5400047 C100.558807,59.3232089 92.5621451,45.5124899 84.8291274,32.1565227 C76.7365795,18.1792133 69.09292,4.97823008 68.9665259,4.76212116 C67.9641316,3.04507018 66.0944372,1.97918537 64.0874551,1.97918537 C60.9582283,1.97918537 58.4130051,4.53002602 58.4130051,7.6644004 L58.4130051,57.2809173 C58.4130051,58.5810724 57.1832445,60.0907848 55.5975672,60.0907848 L30.348729,60.0907848 C15.443485,60.0907848 3.31735818,47.9447623 3.31735818,33.0150495 C3.31735818,18.0853581 15.443485,5.93933559 30.348729,5.93933559 L41.6491492,5.93933559 C42.5669164,5.93933559 43.3109138,5.19533821 43.3109138,4.27757092 C43.3109138,3.35980363 42.5669164,2.61580625 41.6491492,2.61580625 L30.348729,2.61580625 L30.348729,2.61580625 C13.6144727,2.61580625 0,16.2526246 0,33.0150463 C0,49.7774894 13.614472,63.4143098 30.348729,63.4143098 Z" id="Path"></path>
        </g>
    </g>
</svg>