<?xml version="1.0" encoding="UTF-8"?>
<svg width="192px" height="192px" viewBox="0 0 192 192" version="1.1" xmlns="http://www.w3.org/2000/svg" xmlns:xlink="http://www.w3.org/1999/xlink">
    <title>Artboard Copy 8</title>
    <g id="Artboard-Copy-8" stroke="none" stroke-width="1" fill="none" fill-rule="evenodd">
        <path d="M152.946726,111.267442 C150.219304,112.930233 147.037311,113.232558 144.612936,111.872093 C141.582467,110.05814 139.764186,105.976744 139.764186,100.383721 L139.764186,83.3023256 C139.764186,75.1395349 136.582194,69.244186 131.12735,67.7325581 C121.88442,65.0116279 114.914341,76.3488372 112.338442,80.5813953 L95.9739103,106.732558 L95.9739103,74.5348837 C95.8223869,67.127907 93.3980118,62.744186 88.8523084,61.3837209 C85.8218395,60.4767442 81.2761361,60.9302326 76.8819562,67.5813953 L40.3648058,125.930233 C35.5160556,116.709302 32.940157,106.430233 32.940157,96 C32.940157,60.7790698 61.2750413,32.2093023 95.9739103,32.2093023 C130.672779,32.2093023 159.007664,60.7790698 159.007664,96 C159.007664,96 159.007664,96.1511628 159.007664,96.1511628 C159.007664,96.1511628 159.007664,96.3023256 159.007664,96.3023256 C159.310711,103.104651 157.189382,108.546512 152.946726,111.267442 L152.946726,111.267442 Z M172.947821,96 L172.947821,96 L172.947821,95.8488372 L172.947821,95.6976744 C172.796297,52.9186047 138.248952,18 95.9739103,18 C53.5473456,18 19,52.9186047 19,96 C19,138.930233 53.5473456,174 95.9739103,174 C115.520435,174 134.006295,166.593023 148.249499,153.139535 C151.128445,150.418605 151.279968,146.034884 148.552546,143.162791 C145.976647,140.290698 141.582467,140.139535 138.703522,142.709302 C138.703522,142.709302 138.703522,142.709302 138.551999,142.860465 C127.036217,153.744186 111.580825,159.94186 95.6708634,159.94186 C77.0334796,159.94186 60.3659006,151.77907 48.8501188,138.77907 L81.7307065,86.1744186 L81.7307065,110.511628 C81.7307065,122.151163 86.2764098,125.930233 90.064496,126.988372 C93.8525821,128.046512 99.610473,127.290698 105.822934,117.465116 L123.854224,88.2906977 C124.460318,87.3837209 124.914888,86.4767442 125.520982,85.872093 L125.520982,100.686047 C125.520982,111.569767 129.915162,120.337209 137.491334,124.569767 C144.309889,128.5 152.946726,128.046512 160.068328,123.662791 C168.856688,117.918605 173.553914,107.94186 172.947821,96 Z" id="Shape" fill="#000000" fill-rule="nonzero"></path>
    </g>
</svg>