<?xml version="1.0" encoding="UTF-8"?>
<svg width="192px" height="192px" viewBox="0 0 192 192" version="1.1" xmlns="http://www.w3.org/2000/svg" xmlns:xlink="http://www.w3.org/1999/xlink">
    <title>Artboard Copy 18</title>
    <g id="Artboard-Copy-18" stroke="none" stroke-width="1" fill="none" fill-rule="evenodd">
        <g id="Crowdsource_logo" transform="translate(5.000000, 18.000000)">
            <g id="Group" transform="translate(74.693880, 0.000000)"></g>
            <path d="M140,43 C140,51.4771429 133.142857,58.3571429 124.693877,58.3571429 C116.244897,58.3571429 109.387754,51.4771429 109.387754,43 C109.387754,34.5228571 116.244897,27.6428571 124.693877,27.6428571 C133.142857,27.6428571 140,34.5228571 140,43 M40,43 C40,51.4771429 46.857143,58.3571429 55.3061228,58.3571429 C63.7551025,58.3571429 70.6122455,51.4771429 70.6122455,43 C70.6122455,34.5228571 63.7551025,27.6428571 55.3061228,27.6428571 C46.857143,27.6428571 40,34.5228571 40,43 M105.306126,70.6428571 C105.306126,79.12 98.4489828,86 90.0000031,86 C81.5510233,86 74.6938803,79.12 74.6938803,70.6428571 C74.6938803,62.1657143 81.5510233,55.2857143 90.0000031,55.2857143 C98.4489828,55.2857143 105.306126,62.1657143 105.306126,70.6428571 M105.306126,15.3571429 C105.306126,23.8342857 98.4489828,30.7142857 90.0000031,30.7142857 C81.5510233,30.7142857 74.6938803,23.8342857 74.6938803,15.3571429 C74.6938803,6.88 81.5510233,0 90.0000031,0 C98.4489828,0 105.306126,6.88 105.306126,15.3571429" id="Combined-Shape" fill="#000000" fill-rule="nonzero"></path>
            <path d="M16.8747509,47.7372237 L17.0895195,47.9465931 L17.6871331,48.5433596 L58.7266884,89.8025468 C64.5429094,95.6609378 67.8654257,103.535187 67.9959999,111.779005 L68,112.284176 L68,120.742639 C68,108.735974 78.0840893,99 90.5204556,99 C102.599579,99 112.433385,108.196715 112.986099,119.728889 L113,120.079057 L113,151.847989 C105.861365,153.890572 98.3238671,155 90.5,155 C83.0021333,155 75.7672572,153.971579 68.8943986,152.097249 L68,151.847989 L68,152 C59.7570566,149.561489 52.0808151,145.805979 45.2185646,140.959825 C35.9923116,134.452831 30.6454389,123.76244 30.4878861,112.488352 L30.4843031,111.975504 C30.4843031,103.218607 27.6641819,94.6980281 22.4387264,87.6756268 L22.0868038,87.2097001 L12.3807377,74.5438477 L2.05645101,61.0651626 C-1.05526018,57.0009786 -0.591594604,51.228808 3.14864106,47.7202333 C7.01175785,44.0746623 13.0386542,44.1062666 16.8747509,47.7372237 Z M177.860807,47.7202333 C181.517552,51.1600124 182.034908,56.7754892 179.121597,60.8241529 L178.942679,61.0651626 L166.259015,77.5997028 L158.902285,87.1994089 C153.580281,94.1546014 150.634643,102.636013 150.509087,111.391418 L150.504899,111.975504 C150.504899,123.437528 145.136755,134.35424 135.781134,140.959825 C129.173989,145.632902 121.809965,149.291848 113.910788,151.733702 L113.030911,152 L113.030911,120.319939 L113.019396,119.985561 L113,119.651151 L113,112.294461 C113,104.036244 116.196258,96.1140047 121.919627,90.1740197 L122.273189,89.8128379 L129.588709,82.4561478 L163.920113,47.9465931 C167.732426,44.1087682 173.914552,44.0058779 177.860807,47.7202333 Z M90.5204556,111 C84.7173957,111 80.1543242,115.312118 80.0038338,120.479187 L80,120.742639 L80,142.204 L80.3277807,142.254306 C83.377754,142.704016 86.4606163,142.952348 89.567292,142.993782 L90.5,143 C93.9359736,143 97.3361575,142.749739 100.687828,142.256015 L101,142.208 L101,120.345 L100.99362,120.190011 C100.691067,115.228427 96.342821,111.145537 90.8175613,111.003805 L90.5204556,111 Z M30.439,78.38 L31.6101859,79.9086594 C38.5338801,88.9398357 42.3417202,99.9634361 42.4803769,111.331662 L42.4843031,111.975504 C42.4843031,119.71807 46.1019185,126.898608 52.140872,131.1577 C53.2666382,131.952722 54.4162216,132.711592 55.5879811,133.433355 L56,133.683 L56,112.284176 C56,107.183321 54.0370347,102.281255 50.5320472,98.5878771 L50.2187926,98.2651532 L30.439,78.38 Z M150.449,78.501 L130.781788,98.2747376 C127.181531,101.894863 125.119939,106.748293 125.005073,111.844216 L125,112.294461 L125,119.311 L125.012711,119.545953 C125.020503,119.712843 125.025995,119.877125 125.02879,120.050824 L125.030911,120.319939 L125.03,133.668 L125.274859,133.52089 C126.250241,132.922519 127.210486,132.298331 128.154681,131.648852 L128.859805,131.15701 C134.775953,126.979882 138.370098,119.982399 138.501186,112.405016 L138.504899,111.975504 C138.504899,100.598172 142.186215,89.5325025 148.989148,80.4141743 L149.37755,79.9001333 L150.449,78.501 Z" id="Shape" fill="#000000" fill-rule="nonzero"></path>
        </g>
    </g>
</svg>