<?xml version="1.0" encoding="UTF-8"?>
<svg width="192px" height="192px" viewBox="0 0 192 192" version="1.1" xmlns="http://www.w3.org/2000/svg" xmlns:xlink="http://www.w3.org/1999/xlink">
    <title>Artboard Copy 86</title>
    <g id="Artboard-Copy-86" stroke="none" stroke-width="1" fill="none" fill-rule="evenodd">
        <g id="no-bg" transform="translate(16.000000, 48.000000)" fill="#000000" fill-rule="nonzero">
            <path d="M6.57290044,0 L18.3730682,0 C21.0988379,0 23.5140769,0.414040973 25.6187852,1.24212292 C27.7234935,2.03570145 29.4831676,3.15706242 30.8978076,4.60620582 C32.3124476,6.02084581 33.3820534,7.72876483 34.1066251,9.72996286 C34.8311968,11.6966575 35.1934827,13.8703726 35.1934827,16.2511082 C35.1934827,19.0113813 34.6759315,21.6508925 33.640829,24.1696418 C32.64023,26.6538876 31.1738349,28.8621061 29.2416437,30.7942974 C27.3439559,32.6919851 25.0322271,34.2101354 22.3064574,35.3487481 C19.5806877,36.4873607 16.4926321,37.0566671 13.0422906,37.0566671 L0,37.0566671 L6.57290044,0 Z M13.4045765,30.4320115 C15.612795,30.4320115 17.6312448,30.0869774 19.4599257,29.3969091 C21.2886067,28.7068408 22.8412603,27.7579969 24.1178867,26.5503774 C25.4290164,25.3427579 26.4296154,23.9281179 27.1196837,22.3064574 C27.8442554,20.6847969 28.2065413,18.9251228 28.2065413,17.027435 C28.2065413,13.6806038 27.3267042,11.1100994 25.5670301,9.31592189 C23.8418594,7.52174434 21.2023481,6.62465556 17.6484965,6.62465556 L12.3694741,6.62465556 L8.12555409,30.4320115 L13.4045765,30.4320115 Z M51.7939379,10.8685755 C55.2787828,10.8685755 57.9355457,11.6966575 59.7642267,13.3528214 C61.5929076,15.0089853 62.5072481,17.1827004 62.5072481,19.8739667 C62.5072481,20.2880077 62.4727447,20.7193003 62.4037379,21.1678447 C62.3692345,21.5818857 62.3174793,22.0304301 62.2484725,22.5134779 L59.6607164,37.0566671 L52.9843057,37.0566671 L53.4501018,34.3654007 L53.0360609,34.3654007 C52.2424823,35.3659998 51.2418833,36.2113334 50.0342638,36.9014017 C48.8611477,37.5569666 47.429256,37.884749 45.7385887,37.884749 C44.4619624,37.884749 43.2888463,37.6777285 42.2192404,37.2636876 C41.184138,36.88415 40.2870492,36.3493471 39.5279741,35.6592788 C38.8034024,34.9347071 38.2340961,34.0893734 37.8200551,33.1232778 C37.4060141,32.1226788 37.1989937,31.053073 37.1989937,29.9144603 C37.1989937,28.4653169 37.475021,27.1714388 38.0270756,26.0328262 C38.6136336,24.8942135 39.4244639,23.9281179 40.4595663,23.1345394 C41.5291722,22.3064574 42.7885468,21.685396 44.2376902,21.271355 C45.721337,20.8228106 47.3429975,20.5985384 49.1026716,20.5985384 C50.379298,20.5985384 51.5351623,20.7193003 52.5702648,20.9608242 C53.6398706,21.1678447 54.6577213,21.443872 55.6238169,21.7889062 L55.8308374,21.0125794 C55.8998443,20.6675452 55.9343477,20.3915179 55.9343477,20.1844974 C55.9343477,19.0803882 55.4685516,18.1660477 54.5369594,17.441476 C53.6398706,16.7169043 52.4495028,16.3546184 50.965856,16.3546184 C49.6547262,16.3546184 48.4988619,16.613394 47.4982628,17.1309452 C46.4976638,17.6139931 45.6005751,18.321313 44.8069965,19.2529052 L40.2525458,15.9405775 C41.6326824,14.1809033 43.3233497,12.904277 45.3245477,12.1106985 C47.3257458,11.2826165 49.4822092,10.8685755 51.7939379,10.8685755 Z M47.9640589,32.6057266 C48.8266443,32.6057266 49.6374745,32.4504612 50.3965497,32.1399305 C51.1901282,31.7948964 51.8801965,31.3636037 52.4667545,30.8460525 C53.087816,30.2939978 53.5881155,29.6729364 53.967653,28.9828681 C54.381694,28.2582964 54.6577213,27.516473 54.795735,26.7573979 C54.2781838,26.515874 53.5363604,26.2570984 52.5702648,25.981071 C51.6386726,25.6705403 50.551815,25.5152749 49.3096921,25.5152749 C47.8605487,25.5152749 46.6184258,25.8430574 45.5833233,26.4986223 C44.5482209,27.1196837 44.0306697,28.0857793 44.0306697,29.3969091 C44.0306697,30.4665149 44.4102073,31.2773452 45.1692824,31.8293998 C45.9628609,32.346951 46.8944531,32.6057266 47.9640589,32.6057266 Z M64.1198035,37.0566671 L68.570744,11.6966575 L74.9366239,11.6966575 L74.3155625,15.2160058 L74.7296035,15.2160058 C75.5576854,14.0083862 76.6272912,13.0077872 77.938421,12.2142087 C79.2495507,11.3861268 80.7849527,10.9720858 82.5446268,10.9720858 C83.4417156,10.9720858 84.1662873,11.0583443 84.7183419,11.2308614 C85.3049,11.4033785 85.8051995,11.6276507 86.2192404,11.903678 L83.6832395,18.0625374 C83.3037019,17.8900204 82.8551575,17.734755 82.3376063,17.5967413 C81.8545585,17.4587277 81.2507488,17.3897209 80.5261771,17.3897209 C78.5594824,17.3897209 76.9033186,18.0797891 75.5576854,19.4599257 C74.2465556,20.8055589 73.401222,22.5824847 73.0216844,24.7907032 L70.8997245,37.0566671 L64.1198035,37.0566671 Z M95.2821373,19.8222116 L95.6961783,19.8222116 L105.11561,11.6966575 L113.862226,11.6966575 L113.758716,12.1106985 L102.579609,21.4266203 L110.239367,36.6426261 L110.135857,37.0566671 L102.476099,37.0566671 L97.1970768,25.8775608 L93.6777285,28.8276027 L92.2285851,37.0566671 L85.4486642,37.0566671 L91.9698095,0 L98.7497304,0 L95.2821373,19.8222116 Z M0,84.978076 L6.57290044,47.9214089 L18.9941296,47.9214089 C20.6502935,47.9214089 22.1684438,48.1801845 23.5485803,48.6977357 C24.9287169,49.2152869 26.1190847,49.9398586 27.1196837,50.8714508 C28.1547862,51.803043 28.9483647,52.924404 29.5004193,54.2355337 C30.0869774,55.5466635 30.3802564,56.9958069 30.3802564,58.5829639 C30.3802564,60.6186654 30.0179705,62.4300946 29.2933988,64.0172517 C28.6033305,65.6044088 27.6199832,66.9500419 26.3433569,68.0541512 C25.0667306,69.123757 23.5313286,69.951839 21.7371511,70.538397 C19.9774769,71.0904517 18.0452857,71.366479 15.9405775,71.366479 L9.36767701,71.366479 L6.98694142,84.978076 L0,84.978076 Z M16.8721696,64.7418234 C18.735354,64.7418234 20.2880077,64.293279 21.5301306,63.3961902 C22.7722535,62.4645981 23.393315,61.0327064 23.393315,59.1005152 C23.393315,57.754882 22.979274,56.6680244 22.151192,55.8399425 C21.3576135,54.9773571 20.1844974,54.5460645 18.6318438,54.5460645 L12.3694741,54.5460645 L10.5580448,64.7418234 L16.8721696,64.7418234 Z M44.2127711,58.7899844 C47.6976159,58.7899844 50.3543788,59.6180664 52.1830598,61.2742303 C54.0117407,62.9303942 54.9260812,65.1041093 54.9260812,67.7953756 C54.9260812,68.2094166 54.8915778,68.6407092 54.822571,69.0892536 C54.7880676,69.5032946 54.7363124,69.951839 54.6673056,70.4348868 L52.0795495,84.978076 L45.4031389,84.978076 L45.8689349,82.2868096 L45.454894,82.2868096 C44.6613154,83.2874086 43.6607164,84.1327423 42.4530969,84.8228106 C41.2799808,85.4783755 39.8480891,85.8061579 38.1574218,85.8061579 C36.8807955,85.8061579 35.7076794,85.5991374 34.6380736,85.1850964 C33.6029711,84.8055589 32.7058824,84.270756 31.9468072,83.5806877 C31.2222355,82.856116 30.6529292,82.0107823 30.2388882,81.0446867 C29.8248473,80.0440877 29.6178268,78.9744818 29.6178268,77.8358692 C29.6178268,76.3867258 29.8938541,75.0928477 30.4459087,73.9542351 C31.0324668,72.8156224 31.843297,71.8495268 32.8783994,71.0559482 C33.9480053,70.2278663 35.2073799,69.6068048 36.6565233,69.1927639 C38.1401701,68.7442195 39.7618306,68.5199473 41.5215047,68.5199473 C42.7981311,68.5199473 43.9539954,68.6407092 44.9890979,68.8822331 C46.0587037,69.0892536 47.0765545,69.3652809 48.0426501,69.7103151 L48.2496705,68.9339883 C48.3186774,68.5889541 48.3531808,68.3129268 48.3531808,68.1059063 C48.3531808,67.0017971 47.8873847,66.0874566 46.9557925,65.3628849 C46.0587037,64.6383132 44.8683359,64.2760273 43.3846891,64.2760273 C42.0735594,64.2760273 40.917695,64.5348029 39.917096,65.0523541 C38.9164969,65.5354019 38.0194082,66.2427219 37.2258296,67.1743141 L32.6713789,63.8619863 C34.0515155,62.1023122 35.7421828,60.8256859 37.7433809,60.0321073 C39.7445789,59.2040254 41.9010423,58.7899844 44.2127711,58.7899844 Z M40.3828921,80.5271355 C41.2454774,80.5271355 42.0563077,80.3718701 42.8153828,80.0613394 C43.6089613,79.7163053 44.2990296,79.2850126 44.8855876,78.7674614 C45.5066491,78.2154067 46.0069486,77.5943453 46.3864862,76.904277 C46.8005271,76.1797053 47.0765545,75.4378819 47.2145681,74.6788068 C46.6970169,74.4372829 45.9551935,74.1785072 44.9890979,73.9024799 C44.0575057,73.5919492 42.9706481,73.4366838 41.7285252,73.4366838 C40.2793818,73.4366838 39.0372589,73.7644663 38.0021565,74.4200311 C36.967054,75.0410926 36.4495028,76.0071882 36.4495028,77.318318 C36.4495028,78.3879238 36.8290404,79.198754 37.5881155,79.7508087 C38.381694,80.2683599 39.3132862,80.5271355 40.3828921,80.5271355 Z M75.8950521,58.7899844 C77.4132023,58.7899844 78.8105906,59.1005152 80.087217,59.7215766 C81.3638433,60.3081347 82.4679526,61.1362166 83.3995447,62.2058225 C84.3311369,63.2409249 85.0557086,64.5002995 85.5732599,65.9839463 C86.0908111,67.4330897 86.3495867,69.0202468 86.3495867,70.7454175 C86.3495867,72.7466156 86.0045525,74.661555 85.3144842,76.490236 C84.624416,78.2844136 83.6410686,79.8715706 82.3644423,81.2517072 C81.087816,82.6318438 79.5696657,83.735953 77.8099916,84.564035 C76.0503175,85.3921169 74.1181263,85.8061579 72.013418,85.8061579 C70.3227507,85.8061579 68.770097,85.443872 67.3554571,84.7193003 C65.9753205,83.9602252 64.9919732,83.028633 64.4054151,81.9245238 L63.9913741,81.9245238 L63.8361088,85.5473823 L61.9729244,96.1571822 L55.1930035,96.1571822 L61.6623937,59.6180664 L67.9765185,59.6180664 L67.4589673,62.6716185 L67.8730083,62.6716185 C68.5630766,61.6710195 69.5464239,60.7739308 70.8230502,59.9803522 C72.1341799,59.1867737 73.8248473,58.7899844 75.8950521,58.7899844 Z M71.8063975,79.5437882 C72.9450102,79.5437882 73.9801126,79.319516 74.9117048,78.8709716 C75.8778004,78.4224272 76.7058824,77.8186175 77.3959506,77.0595424 C78.0860189,76.3004672 78.6208219,75.4206302 79.0003594,74.4200311 C79.379897,73.4194321 79.5696657,72.367078 79.5696657,71.2629687 C79.5696657,69.3652809 79.0003594,67.8643824 77.8617467,66.7602732 C76.7231341,65.6216605 75.2222355,65.0523541 73.3590512,65.0523541 C72.3584521,65.0523541 71.3923565,65.2593746 70.4607643,65.6734156 C69.5291722,66.0874566 68.7010902,66.6567629 67.9765185,67.3813346 C67.2864502,68.1059063 66.7171439,68.9857434 66.2685995,70.0208458 C65.8545585,71.0559482 65.647538,72.1945609 65.647538,73.4366838 C65.647538,75.2998682 66.2168444,76.783515 67.3554571,77.8876243 C68.4940697,78.9917336 69.9777165,79.5437882 71.8063975,79.5437882 Z M112.677609,78.7674614 C111.193962,80.9756799 109.451539,82.7008506 107.450341,83.9429735 C105.449143,85.1850964 102.947646,85.8061579 99.9458488,85.8061579 C98.0826644,85.8061579 96.4092488,85.4956272 94.925602,84.8745657 C93.4764586,84.2535043 92.2343357,83.4081706 91.1992333,82.3385648 C90.1641308,81.2344555 89.3705523,79.9578292 88.8184977,78.5086858 C88.266443,77.0250389 87.9904157,75.4551336 87.9904157,73.7989697 C87.9904157,71.8322751 88.3527016,69.951839 89.0772733,68.1576614 C89.801845,66.3634839 90.8196957,64.7763268 92.1308254,63.3961902 C93.4419552,61.9815503 95.0291123,60.8601893 96.8922966,60.0321073 C98.755481,59.2040254 100.825686,58.7899844 103.102911,58.7899844 C104.966096,58.7899844 106.587756,59.0832634 107.967893,59.6698215 C109.382533,60.2218761 110.555649,60.9809512 111.487241,61.9470468 C112.453337,62.9131424 113.177908,64.0345034 113.660956,65.3111297 C114.144004,66.5877561 114.385528,67.9333892 114.385528,69.3480292 C114.385528,70.9696897 114.144004,72.4705882 113.660956,73.8507248 L94.5628369,73.8507248 L94.5628369,74.368276 C94.632323,76.2314604 95.2361327,77.611597 96.3747454,78.5086858 C97.5478615,79.3712711 98.9107464,79.8025638 100.4634,79.8025638 C102.119564,79.8025638 103.516952,79.4920331 104.655565,78.8709716 C105.794178,78.2154067 106.760273,77.2838145 107.553852,76.076195 L112.677609,78.7674614 Z M108.071403,69.0374985 L108.071403,68.830478 C108.071403,67.6573619 107.605607,66.6222595 106.674015,65.7251707 C105.776926,64.7935785 104.396789,64.3277824 102.533605,64.3277824 C100.842938,64.3277824 99.3592908,64.7935785 98.0826644,65.7251707 C96.8405415,66.6222595 95.9779562,67.7263688 95.4949084,69.0374985 L108.071403,69.0374985 Z M116.127471,84.978076 L120.578411,59.6180664 L126.944291,59.6180664 L126.32323,63.1374146 L126.737271,63.1374146 C127.565353,61.9297951 128.634959,60.9291961 129.946088,60.1356176 C131.257218,59.3075356 132.79262,58.8934947 134.552294,58.8934947 C135.449383,58.8934947 136.173955,58.9797532 136.726009,59.1522703 C137.312567,59.3247873 137.812867,59.5490595 138.226908,59.8250869 L135.690907,65.9839463 C135.311369,65.8114293 134.862825,65.6561639 134.345274,65.5181502 C133.862226,65.3801366 133.258416,65.3111297 132.533844,65.3111297 C130.56715,65.3111297 128.910986,66.001198 127.565353,67.3813346 C126.254223,68.7269678 125.408889,70.5038936 125.029352,72.7121121 L122.907392,84.978076 L116.127471,84.978076 Z M146.905954,85.8061579 C145.353301,85.8061579 143.955912,85.6163891 142.713789,85.2368516 C141.471666,84.857314 140.384809,84.3397628 139.453217,83.6841979 C138.556128,83.028633 137.797053,82.2695579 137.175991,81.4069726 C136.589433,80.5098838 136.140889,79.5610399 135.830358,78.5604409 L142.092728,76.0244399 C142.368755,77.3355697 142.989817,78.3016653 143.955912,78.9227267 C144.956511,79.5437882 146.112376,79.8543189 147.423505,79.8543189 C148.596622,79.8543189 149.579969,79.6472984 150.373547,79.2332575 C151.201629,78.7847131 151.61567,78.1636516 151.61567,77.3700731 C151.61567,76.6800048 151.339643,76.1279502 150.787588,75.7139092 C150.235534,75.2653648 149.355697,74.8858272 148.148077,74.5752965 L145.405056,73.9024799 C144.611477,73.6954594 143.817899,73.4021804 143.02432,73.0226429 C142.230742,72.6431053 141.523422,72.1600575 140.90236,71.5734995 C140.281299,70.9869414 139.763747,70.2968731 139.349706,69.5032946 C138.970169,68.7097161 138.7804,67.8126273 138.7804,66.8120283 C138.7804,65.5354019 139.056427,64.414041 139.608482,63.4479454 C140.19504,62.4473464 140.988619,61.6020127 141.989218,60.9119444 C142.989817,60.2218761 144.162933,59.7043249 145.508566,59.3592908 C146.854199,58.9797532 148.320594,58.7899844 149.907751,58.7899844 C154.979753,58.7899844 158.343836,60.8256859 160,64.8970888 L153.789385,67.1743141 C153.513358,66.2427219 152.961303,65.5354019 152.133222,65.0523541 C151.30514,64.5348029 150.373547,64.2760273 149.338445,64.2760273 C148.130825,64.2760273 147.199233,64.4830478 146.543668,64.8970888 C145.888104,65.2766263 145.560321,65.7941775 145.560321,66.4497424 C145.560321,67.5538517 146.509165,68.3474302 148.406853,68.830478 L151.977956,69.7620702 C154.151671,70.3141248 155.773332,71.2112136 156.842938,72.4533365 C157.947047,73.6954594 158.499101,75.1273511 158.499101,76.7490116 C158.499101,78.1636516 158.205822,79.4402779 157.619264,80.5788906 C157.032706,81.6829999 156.221876,82.6318438 155.186774,83.4254223 C154.151671,84.1844974 152.9268,84.7710555 151.51216,85.1850964 C150.09752,85.5991374 148.562118,85.8061579 146.905954,85.8061579 Z" id="Shape"></path>
        </g>
    </g>
</svg>