<?xml version="1.0" encoding="UTF-8"?>
<svg width="192px" height="192px" viewBox="0 0 192 192" version="1.1" xmlns="http://www.w3.org/2000/svg" xmlns:xlink="http://www.w3.org/1999/xlink">
    <title>Artboard Copy 22</title>
    <g id="Artboard-Copy-22" stroke="none" stroke-width="1" fill="none" fill-rule="evenodd">
        <g id="6151f05aa5911815f84d2c2d_Variant=Dark" transform="translate(22.000000, 13.000000)" stroke="#000000">
            <path d="M98.6666667,23 C127.403333,33.1073941 148,60.3630125 148,92.4024704 C148,133.052839 114.872667,166 74,166 C33.1273333,166 0,133.052839 0,92.4024704 C0,60.3630125 20.5966667,33.1073941 49.3333333,23" id="Path" stroke-width="12"></path>
            <path d="M99,162 L99,92.3392613 L99,4.9247606 C99,2.21614227 96.795,0 94.1,0 L54.9,0 C52.205,0 50,2.21614227 50,4.9247606 L50,22.6785226 L50,162" id="Path" stroke-width="12"></path>
            <path d="M99,23 C99,62.4642251 115.051583,98.1559544 141,124" id="Path" stroke-width="8"></path>
            <path d="M8,124 C33.9578207,98.1804511 50,62.4642251 50,23" id="Path" stroke-width="8"></path>
            <path d="M99,23 C99,66.5924437 108.665753,107.92926 126,145" id="Path" stroke-width="8"></path>
            <path d="M23,145 C40.3342466,107.946332 50,66.601206 50,23" id="Path" stroke-width="8"></path>
        </g>
    </g>
</svg>