<?xml version="1.0" encoding="UTF-8"?>
<svg width="192px" height="192px" viewBox="0 0 192 192" version="1.1" xmlns="http://www.w3.org/2000/svg" xmlns:xlink="http://www.w3.org/1999/xlink">
    <title>Artboard Copy 92</title>
    <g id="Artboard-Copy-92" stroke="none" stroke-width="1" fill="none" fill-rule="evenodd">
        <g id="Group" transform="translate(22.251662, 16.442146)" fill="#000000" fill-rule="nonzero">
            <path d="M77.2622072,1.2206319 L143.606378,53.8326838 C146.046477,55.7677235 146.455908,59.314474 144.520868,61.7545728 C144.25212,62.0934667 143.945272,62.4003145 143.606378,62.6690632 L77.2622072,115.281115 C75.2099065,116.908624 72.3071092,116.908624 70.2548086,115.281115 L3.91063792,62.6690632 C1.47053915,60.7340235 1.06110786,57.187273 2.99614755,54.7471742 C3.26489619,54.4082803 3.57174398,54.1014325 3.91063792,53.8326838 L70.2548086,1.2206319 C72.3071092,-0.406877301 75.2099065,-0.406877301 77.2622072,1.2206319 Z M73.7585079,20.031777 L25.5634999,58.2502999 L73.7570982,96.4688228 L121.952106,58.2502999 L73.7585079,20.031777 Z" id="Rectangle"></path>
            <path d="M133.914674,93.5675874 C137.58829,90.6820934 142.9055,91.3209932 145.790994,94.99461 C148.676488,98.6682269 148.037589,103.985437 144.363972,106.870931 L79.0236072,158.193439 C75.9569519,160.602187 71.6409643,160.602187 68.574309,158.193439 L3.23394431,106.870931 C-0.439672523,103.985437 -1.0785723,98.6682269 1.80692172,94.99461 C4.69241574,91.3209932 10.0096257,90.6820934 13.6832425,93.5675874 L73.7979796,140.785731 L133.914674,93.5675874 Z" id="Path-48"></path>
        </g>
    </g>
</svg>