<?xml version="1.0" encoding="UTF-8"?>
<svg width="192px" height="192px" viewBox="0 0 192 192" version="1.1" xmlns="http://www.w3.org/2000/svg" xmlns:xlink="http://www.w3.org/1999/xlink">
    <title>Artboard Copy 96</title>
    <g id="Artboard-Copy-96" stroke="none" stroke-width="1" fill="none" fill-rule="evenodd">
        <g id="Group-2" transform="translate(38.000000, 16.063481)">
            <path d="M57.9778442,10.1365937 C76.0281012,10.1365937 91.0348503,18.3379176 101.443463,32.5477472 C110.543675,44.9713502 115.547893,61.3736928 115.547893,77.4063928 C115.547893,80.7310333 112.852739,83.4261869 109.528099,83.4261869 L83.002841,83.4261869 C79.6782005,83.4261869 76.9830469,80.7310333 76.9830469,77.4063928 C76.9830469,74.0817522 79.6782005,71.3865986 83.002841,71.3865986 L103.232086,71.3857554 L103.205435,71.0867465 C102.134864,59.8594974 98.2598114,48.8137065 92.1176254,40.197545 L91.7307916,39.6622189 C83.5135889,28.4441001 72.0445779,22.1761821 57.9778442,22.1761821 C43.9111105,22.1761821 32.4420995,28.4441001 24.2248968,39.6622189 C17.8585548,48.353544 13.8431281,59.6255964 12.750253,71.0867465 L12.7224743,71.3857554 L33.0542098,71.3865986 C36.3032903,71.3865986 38.9511718,73.9606374 39.0698519,77.1807124 L39.074004,77.4063928 C39.074004,80.7310333 36.3788503,83.4261869 33.0542098,83.4261869 L6.42758956,83.4261869 C3.10294903,83.4261869 0.40779537,80.7310333 0.40779537,77.4063928 C0.40779537,61.3736928 5.41201315,44.9713502 14.5122256,32.5477472 C24.9208381,18.3379176 39.9275873,10.1365937 57.9778442,10.1365937 Z" id="Oval" fill="#000000" fill-rule="nonzero"></path>
            <path d="M7.23164454,1.60769611 C9.66839342,-0.654048681 13.4772751,-0.512179833 15.7390199,1.92456905 L32.2750784,19.7401167 C34.5368232,22.1768655 34.3949543,25.9857472 31.9582054,28.247492 C29.5214565,30.5092368 25.7125749,30.367368 23.4508301,27.9306191 L6.9147716,10.1150715 C4.65302681,7.67832259 4.79489566,3.8694409 7.23164454,1.60769611 Z" id="Path-49" fill="#000000" fill-rule="nonzero"></path>
            <path d="M83.2004409,1.60769611 C85.6371898,-0.654048681 89.4460715,-0.512179833 91.7078162,1.92456905 L108.243875,19.7401167 C110.50562,22.1768655 110.363751,25.9857472 107.927002,28.247492 C105.490253,30.5092368 101.681371,30.367368 99.4196264,27.9306191 L82.8835679,10.1150715 C80.6218231,7.67832259 80.763692,3.8694409 83.2004409,1.60769611 Z" id="Path-49-Copy" fill="#000000" fill-rule="nonzero" transform="translate(95.563721, 14.927594) scale(-1, 1) translate(-95.563721, -14.927594) "></path>
            <g id="Group" transform="translate(36.598760, 44.892213)" fill="#000000">
                <ellipse id="Oval" cx="6.31446942" cy="6.84067521" rx="6.31446942" ry="6.84067521"></ellipse>
                <ellipse id="Oval-Copy" cx="36.834405" cy="6.84067521" rx="6.31446942" ry="6.84067521"></ellipse>
            </g>
            <g id="Group-3" transform="translate(0.000000, 75.822816)">
                <path d="M96.0378158,12.5416224 L18.7897761,12.5416224 C8.4124693,12.5416224 0,20.1859892 0,29.6157935 L0,67.1030131 C0,76.5328175 8.4124693,84.1771843 18.7897761,84.1771843 L96.0378158,84.1771843 C106.415123,84.1771843 114.827592,76.5328175 114.827592,67.1030131 L114.827592,29.6157935 C114.827592,20.1859892 106.415123,12.5416224 96.0378158,12.5416224 Z M96.6477173,25.1831921 C99.7064386,25.1831921 102.186022,27.4256242 102.186022,30.1918043 L102.186022,67.5804665 C102.186022,70.3466466 99.7064386,72.5890787 96.6477173,72.5890787 L19.2333387,72.5890787 C16.1746174,72.5890787 13.6950339,70.3466466 13.6950339,67.5804665 L13.6950339,30.1918043 C13.6950339,27.4256242 16.1746174,25.1831921 19.2333387,25.1831921 L96.6477173,25.1831921 Z" id="Rectangle" fill="#000000" fill-rule="nonzero"></path>
                <path d="M67.6676864,60.2633663 C70.1226235,57.8084292 71.6410337,54.4169651 71.6410337,50.6708572 C71.6410337,43.1786416 65.5673929,37.1050007 58.0751772,37.1050007 C50.5829616,37.1050007 44.5093207,43.1786416 44.5093207,50.6708572" id="Oval" stroke="#000000" stroke-width="8" stroke-linecap="round" stroke-linejoin="round" transform="translate(58.075177, 48.684184) rotate(-24.500000) translate(-58.075177, -48.684184) "></path>
                <path d="M45.8194452,14.7100864 C44.7510122,4.90336212 48.7870902,0 57.9276791,0 C67.068268,0 70.9679427,4.90336212 69.626703,14.7100864" id="Path-50" stroke="#000000" stroke-width="7" stroke-linecap="round" stroke-linejoin="round"></path>
            </g>
        </g>
    </g>
</svg>