<?xml version="1.0" encoding="UTF-8"?>
<svg width="192px" height="192px" viewBox="0 0 192 192" version="1.1" xmlns="http://www.w3.org/2000/svg" xmlns:xlink="http://www.w3.org/1999/xlink">
    <title>Artboard Copy 70</title>
    <g id="Artboard-Copy-70" stroke="none" stroke-width="1" fill="none" fill-rule="evenodd">
        <polygon id="Path-31" stroke="#000000" stroke-width="12" stroke-linejoin="round" points="7 124.279466 24.6628565 46.1490964 124.255932 46.1490964 121.121328 61.9806934 184.966072 61.9806934 168.157367 146 86.6430222 146 92.2068149 124.279466"></polygon>
        <g id="ed" transform="translate(33.580000, 62.800000)" fill="#000000" fill-rule="nonzero">
            <path d="M12.18,43.92 C8.5,43.92 5.55,42.78 3.33,40.5 C1.11,38.22 0,35.16 0,31.32 C0,27.88 0.76,24.75 2.28,21.93 C3.8,19.11 5.89,16.87 8.55,15.21 C11.21,13.55 14.24,12.72 17.64,12.72 C20.24,12.72 22.43,13.23 24.21,14.25 C25.99,15.27 27.33,16.64 28.23,18.36 C29.13,20.08 29.58,21.98 29.58,24.06 C29.58,24.86 29.49,25.77 29.31,26.79 C29.13,27.81 28.96,28.7 28.8,29.46 L5.04,29.46 C4.96,30.14 4.92,30.74 4.92,31.26 C4.92,34.1 5.72,36.21 7.32,37.59 C8.92,38.97 10.8,39.66 12.96,39.66 C15.04,39.66 16.87,39.17 18.45,38.19 C20.03,37.21 21.26,35.92 22.14,34.32 L27.12,34.32 C25.88,37.08 23.96,39.37 21.36,41.19 C18.76,43.01 15.7,43.92 12.18,43.92 Z M16.98,16.98 C14.58,16.98 12.32,17.71 10.2,19.17 C8.08,20.63 6.62,22.76 5.82,25.56 L24.54,25.56 C24.58,25.32 24.61,25.09 24.63,24.87 C24.65,24.65 24.66,24.44 24.66,24.24 C24.66,21.96 23.96,20.18 22.56,18.9 C21.16,17.62 19.3,16.98 16.98,16.98 Z" id="Shape"></path>
            <path d="M46.32,43.92 C43.76,43.92 41.57,43.33 39.75,42.15 C37.93,40.97 36.54,39.38 35.58,37.38 C34.62,35.38 34.14,33.18 34.14,30.78 C34.14,27.26 34.89,24.15 36.39,21.45 C37.89,18.75 39.92,16.62 42.48,15.06 C45.04,13.5 47.9,12.72 51.06,12.72 C53.7,12.72 55.86,13.24 57.54,14.28 C59.22,15.32 60.46,16.7 61.26,18.42 L64.5,0 L69.54,0 L61.92,43.2 L57.3,43.2 L57.72,38.28 C56.56,39.72 55.06,41.02 53.22,42.18 C51.38,43.34 49.08,43.92 46.32,43.92 Z M47.76,39.54 C50.04,39.54 52.07,38.92 53.85,37.68 C55.63,36.44 57.03,34.77 58.05,32.67 C59.07,30.57 59.58,28.26 59.58,25.74 C59.58,23.14 58.84,21.05 57.36,19.47 C55.88,17.89 53.84,17.1 51.24,17.1 C48.96,17.1 46.92,17.68 45.12,18.84 C43.32,20 41.91,21.57 40.89,23.55 C39.87,25.53 39.36,27.78 39.36,30.3 C39.36,32.94 40.11,35.14 41.61,36.9 C43.11,38.66 45.16,39.54 47.76,39.54 Z" id="Shape"></path>
        </g>
        <g id="X" transform="translate(110.480000, 77.000000)" fill="#000000" fill-rule="nonzero">
            <polygon id="Path" points="0 56 21.92 27.84 9.68 0 17.36 0 27.2 22.32 44.24 0 51.92 0 29.68 28.08 42 56 34.32 56 24.48 33.6 7.52 56"></polygon>
        </g>
    </g>
</svg>