<?xml version="1.0" encoding="UTF-8"?>
<svg width="192px" height="192px" viewBox="0 0 192 192" version="1.1" xmlns="http://www.w3.org/2000/svg" xmlns:xlink="http://www.w3.org/1999/xlink">
    <title>Artboard Copy 6</title>
    <g id="Artboard-Copy-6" stroke="none" stroke-width="1" fill="none" fill-rule="evenodd">
        <g id="unnamed-(6)" transform="translate(21.000000, 18.000000)" stroke="#000000" stroke-width="12">
            <path d="M70.771854,155.927609 C69.103999,156.063591 66.4797494,156.002318 64.9401882,155.791442 C63.400627,155.580568 60.3565002,154.843053 58.1754558,154.152524 C55.9944114,153.46201 52.3204619,151.955874 50.0111236,150.80558 C47.7017853,149.655272 44.5526858,147.965217 43.0131246,147.049881 C41.4735634,146.134545 38.744348,144.288206 36.9481921,142.946912 C35.1520362,141.605604 32.370612,139.180423 30.7672458,137.557612 C29.1638792,135.934801 26.9074048,133.349255 25.75286,131.811957 C24.5983156,130.274659 22.8342792,127.444617 21.8327839,125.522987 C20.8312886,123.601357 19.3684604,119.932791 18.5820608,117.370618 C17.7956583,114.808445 16.0868813,108.833918 14.7847757,104.093903 C13.4826744,99.3538888 11.0401124,91.2830381 9.3568669,86.158692 C7.67362094,81.034346 4.94088926,73.802033 3.28413585,70.0868793 C1.62737871,66.3717256 0.168878613,62.7031596 0.0430196008,61.9345105 C-0.108545395,61.0088673 0.140987388,60.0150274 0.782000833,58.9912613 C1.3725923,58.0480327 2.59423812,57.0725743 3.91627583,56.4886276 C5.62762623,55.7327306 6.72756285,55.5779544 9.15233126,55.7518235 C11.1400275,55.8943595 13.1533686,56.4122846 14.8646304,57.22128 C16.3181152,57.9084255 18.3928484,59.3548225 19.4751524,60.4354977 C20.8923853,61.850604 22.4882841,64.5510054 25.178955,70.0868793 C27.2337485,74.3144634 29.7519934,79.7649029 30.7750547,82.1989701 C31.7981234,84.6330372 33.4297227,88.2079586 34.4008463,90.1432363 C35.3719693,92.0785141 37.4893012,95.6422751 39.1060293,98.0626803 C41.0029438,100.90256 44.4424523,104.907747 48.8034733,109.354999 C53.7729465,114.422749 55.814706,116.210373 56.5185354,116.109819 C57.1335867,116.021946 57.4636464,115.640088 57.4420557,115.04137 C57.4226852,114.504039 55.067581,111.743402 51.8782317,108.519475 C48.8366037,105.444865 44.945469,101.042594 43.2312709,98.7366324 C41.5170658,96.4306711 39.4361608,93.341446 38.6070421,91.8716764 C37.0995434,89.1993677 37.0995434,89.1993677 42.4745712,73.0047658 C45.4308455,64.0977374 49.7683607,50.7308322 52.1135058,43.3005248 C54.4586445,35.8702173 57.9451432,24.8645195 59.8612784,18.8434184 C61.7774136,12.8223174 63.68937,7.09669448 64.1100799,6.11981476 C64.5307898,5.14293504 65.4597206,3.85239457 66.1743702,3.25192789 C66.8890269,2.65147518 68.2760975,2.02483613 69.2567597,1.85938311 C70.2374224,1.69394453 72.0816868,1.7892951 73.355121,2.07126737 C74.6285558,2.3532252 76.4407432,3.08957416 77.3822096,3.70759825 C78.3236691,4.32560837 79.6722633,5.58834134 80.3790822,6.51367154 C81.298616,7.7174764 81.7153039,8.88227147 81.8438469,10.6081955 C81.9849261,12.5024012 81.5291986,14.6706606 79.7213398,20.706817 C78.4551522,24.9344081 76.3620241,31.7474592 75.0699527,35.8469304 C73.7778744,39.9464017 71.6092588,46.8642717 70.2507984,51.2199687 C68.8923375,55.5756657 67.7051825,59.8731314 67.6126745,60.7698864 C67.5200313,61.6679635 67.7202809,62.7454257 68.0584709,63.1685542 C68.3961621,63.5910719 69.1413226,64.0757586 69.7143878,64.245647 C70.4612422,64.4670704 71.0613944,64.2495135 71.8335489,63.4774525 C72.4427131,62.8683565 73.8708806,59.7204595 75.1204246,56.2326432 C76.3357274,52.8404057 78.6023817,46.5514355 80.1574332,42.2571539 C81.7124846,37.9628871 84.0155443,31.5668087 85.2753465,28.0436787 C86.5351487,24.5205342 88.8239068,18.0219261 90.3614819,13.6023397 C91.8990426,9.18273937 93.5095845,4.88043948 93.9404532,4.04168838 C94.3713214,3.2029233 95.4223312,2.08562625 96.2760237,1.55878711 C97.1297166,1.03194843 98.5237637,0.409119098 99.3738969,0.174730111 C100.468701,-0.127117166 101.722879,-0.0425281878 103.67317,0.464720117 C105.187624,0.858605308 107.306173,1.73643794 108.381044,2.4154655 C109.455916,3.09447909 110.89605,4.50055773 111.581342,5.54007606 C112.665667,7.18489426 112.801991,7.79272509 112.632138,10.2252 C112.487785,12.2924078 111.374443,15.8105337 108.356884,23.7348397 C106.112845,29.6278349 102.955289,38.0131285 101.34012,42.3688255 C99.7249362,46.7245224 96.3556968,55.6338969 93.8529353,62.1674354 C91.3501741,68.7009738 89.2028367,74.7372579 89.0810781,75.5813974 C88.9273988,76.6469102 89.1182519,77.4014496 89.7052767,78.0491577 C90.2270942,78.6249231 91.0067096,78.9290945 91.7415051,78.8436102 C92.6309624,78.7401417 93.1895693,78.1747615 93.9495935,76.6087743 C94.5091689,75.4557937 96.5828411,70.9487039 98.5577488,66.593007 C100.53267,62.23731 103.677513,55.214635 105.546308,50.9870439 C107.41509,46.7594528 110.534433,39.7513784 112.47816,35.4135375 C114.421887,31.0756965 116.583832,26.9307891 117.282479,26.2026144 C117.98114,25.4744401 119.339223,24.6433942 120.300437,24.355821 C121.272913,24.0648923 123.116024,23.9592628 124.455684,24.1176926 C125.779854,24.2742889 127.770465,24.8409484 128.879293,25.3769425 C129.988107,25.912923 131.631124,27.1646945 132.530434,28.158677 C133.429744,29.152645 134.419461,30.8121207 134.729795,31.846407 C135.219977,33.4800937 135.170544,34.0494971 134.353228,36.1844753 C133.835782,37.5361329 128.521904,48.7043834 122.544617,61.0028112 C116.567331,73.3012391 110.616198,85.6278158 109.319863,88.395177 C107.512303,92.2538758 107.074871,93.6040124 107.443251,94.187163 C107.707442,94.605387 108.289697,95.1712079 108.737124,95.4445508 C109.387946,95.842132 109.754932,95.7061929 110.572076,94.7647695 C111.133873,94.1175585 116.303952,86.0467223 122.061156,76.8295652 C127.81836,67.6124225 133.277218,58.9261919 134.191975,57.5268518 C135.106718,56.1275116 136.589507,54.4843141 137.487065,53.8752889 C138.837133,52.9592281 139.562133,52.7999309 141.684911,52.9529727 C143.383355,53.0754343 144.834993,53.5224753 145.978674,54.2752874 C146.928982,54.9008177 148.145075,56.1907614 148.681116,57.1418377 C149.217157,58.0929001 149.774027,59.8747806 149.918608,61.1015597 C150.150493,63.0691945 149.963926,63.7438151 148.335559,66.8259318 C147.320299,68.7475616 145.117763,72.7305774 143.441003,75.677075 C141.764256,78.6235726 138.828804,83.6547502 136.917766,86.8574665 C135.006728,90.0601828 131.690011,95.5106292 129.547272,98.9695573 C127.404519,102.428485 124.188276,107.45967 122.40005,110.149949 C120.611825,112.840228 117.577707,117.242512 115.657585,119.932791 C113.737449,122.62307 110.57239,126.815717 108.624121,129.249784 C106.675852,131.683851 103.326716,135.616818 101.1816,137.989711 C99.0364833,140.362604 95.0431876,144.097917 92.3075867,146.290402 C89.3044211,148.697343 85.6702086,151.093609 83.1349856,152.338457 C80.8256474,153.472402 77.7815136,154.68822 76.3702532,155.040266 C74.9589929,155.392311 72.4397091,155.791613 70.771854,155.927609 Z" id="Shape"></path>
        </g>
    </g>
</svg>