<?xml version="1.0" encoding="UTF-8"?>
<svg width="192px" height="192px" viewBox="0 0 192 192" version="1.1" xmlns="http://www.w3.org/2000/svg" xmlns:xlink="http://www.w3.org/1999/xlink">
    <title>Artboard Copy 5</title>
    <g id="Artboard-Copy-5" stroke="none" stroke-width="1" fill="none" fill-rule="evenodd">
        <path d="M90.5604542,20 C91.7303606,20 93.1270877,20.120672 94.419974,20.2373067 C95.0599145,20.3244565 95.6467214,20.4893327 96.4861029,20.7012641 C96.7452152,20.7666862 97.0216771,20.8364765 97.3201651,20.9106581 C102.027055,22.061305 103.018228,26.7960279 103.018228,26.7960279 C103.04335,26.9221667 103.366144,28.6298055 102.806317,30.5947799 C105.355525,31.0358675 107.255961,31.3644215 107.867025,31.4700531 C108.973286,31.6612872 114.305505,32.5829284 120.063342,33.5759603 L120.784943,33.7004013 C121.508298,33.8251338 122.23573,33.9505356 122.959632,34.0752875 L123.681839,34.1997333 C126.557565,34.6952009 129.334311,35.172907 131.521272,35.5478275 C132.207143,35.671229 132.978945,35.7942873 133.819381,35.9276998 C138.173993,36.6189595 144.904798,37.4898084 150.112504,41.4414239 C153.056977,43.6756954 155.392628,47.0128726 156.340128,51.9750413 C159.143128,66.8725263 160.395796,81.6128581 160.821398,94.5473106 C161.114419,103.452529 161.01479,111.504645 160.754218,118.1692 C160.573218,122.798559 160.314659,126.75564 160.056182,129.859764 C159.882733,131.942748 159.710046,133.634208 159.561632,134.877292 C159.479459,135.565554 159.406965,136.101759 159.346781,136.473722 C157.484589,149.303997 153.193798,157.307455 147.978769,162.515213 C139.258998,171.222827 128.297324,171.969425 125.177331,171.999082 C124.84285,171.998027 124.672868,171.996 124.600983,171.994879 L124.557384,171.994085 C118.2377,171.983932 113.761873,170.091845 110.823763,168.036487 C107.38044,165.81623 105.575686,163.106796 104.902074,161.384873 C104.194199,159.67282 103.809828,157.883207 103.809828,156.092213 C103.809828,152.100833 105.466429,148.476363 108.127738,145.848164 C110.808723,143.200536 114.511003,141.560229 118.600482,141.560229 C115.907707,142.273032 112.751211,143.187361 110.95955,144.658845 C108.280894,146.825669 106.308574,150.355655 106.308574,154.052612 C106.308574,157.732608 107.801642,161.159947 110.266998,163.610754 C113.848772,167.17139 118.620876,169.162831 123.798146,169.162831 C130.103134,169.162831 135.80293,166.623817 139.928126,162.522966 C144.066205,158.409308 146.622163,152.723785 146.622163,146.438101 C146.622163,141.165219 144.916247,136.173928 142.016989,131.95689 C139.073046,127.674857 134.896569,124.206765 130.129209,122.083034 C128.836163,121.474759 126.926012,120.938347 125.044177,120.474517 C121.956327,119.833152 119.641364,119.551028 119.114294,119.505034 L119.079,119.502 L119.715974,119.539776 C117.064691,119.22601 112.067899,117.909087 108.240909,114.842293 L107.896321,114.558653 C105.83817,112.81822 104.173917,110.461002 103.929483,107.232682 L92.0901323,106.38119 C92.0901323,106.38119 92.0019136,106.87074 91.8185487,107.701898 L91.7401118,108.052229 C90.7932782,112.221189 87.872103,123.005193 82.3311917,126.621245 C81.9020274,126.811548 81.3700572,126.988919 80.785794,127.117989 C80.0842392,127.27297 79.3057337,127.384654 79.0708819,127.384654 C66.5970418,128.110847 53.6912541,124.409774 44.7851703,115.316966 C44.73624,115.272302 44.6395492,115.183797 44.5021732,115.048074 L44.3916233,114.937376 C42.9957959,113.52144 38.5347035,108.319919 35.9543627,96.9727723 C35.7872442,96.1993174 35.5878142,95.3073585 35.367814,94.3237585 C34.5232793,90.5479253 33.3577824,85.3577868 32.6176775,80.4178377 C32.2609883,78.3960394 32.1320464,76.9258098 32.0199834,75.5849333 C32.040074,73.8267222 32.4413651,72.3843316 33.2740562,71.3252641 C33.9110462,70.5151013 34.7858409,69.9688147 35.7764084,69.766268 L63.2043296,69.766268 C70.2026421,69.766268 74.0083863,67.6749677 76.5620721,65.3316302 C80.0651712,62.0544385 81.3778052,57.5625973 81.3778052,51.9365814 L81.3778052,23.7464402 C81.5891797,22.7844178 82.1626689,21.9276214 82.9787607,21.2935209 C84.0720942,20.4440046 85.5589945,20 87.2777194,20 L90.5604542,20 Z" id="Path" stroke="#000000" stroke-width="12" fill-rule="nonzero"></path>
        <path d="M119.11659,73.4794236 C121.705543,72.210711 124.899797,71.5998044 128.384049,71.9146849 C132.113749,72.3614204 135.128816,73.6828018 137.386368,75.5591243 C139.964917,77.7022377 141.638494,80.5747816 142.126623,83.9715123 C142.298129,87.1580562 141.775676,88.9645456 141.034033,90.0704453 C139.253743,92.7251226 137.337039,93.2055434 135.660399,93.2653299 C133.564578,93.4919373 130.479899,93.2798193 126.13598,92.8331003 C121.149865,92.3203393 117.78538,91.6246476 115.735568,90.6057897 C114.114818,89.8001997 112.804886,88.7609197 112.033533,86.4605211 C111.619291,85.2251251 111.656686,82.670281 112.5663,80.4096675 C113.79546,77.3549011 116.072875,74.9709918 119.11659,73.4794236 Z" id="Path" stroke="#000000" stroke-width="12" stroke-linejoin="round" fill-rule="nonzero"></path>
        <path d="" id="Path" stroke="#000000" stroke-width="12" fill-rule="nonzero"></path>
    </g>
</svg>