<?xml version="1.0" encoding="UTF-8"?>
<svg width="192px" height="192px" viewBox="0 0 192 192" version="1.1" xmlns="http://www.w3.org/2000/svg" xmlns:xlink="http://www.w3.org/1999/xlink">
    <title>Artboard Copy 74</title>
    <g id="Artboard-Copy-74" stroke="none" stroke-width="1" fill="none" fill-rule="evenodd" stroke-linecap="round" stroke-linejoin="round">
        <g id="majesticons:flower-2" transform="translate(20.000000, 8.000000)" stroke="#000000" stroke-width="12">
            <g id="Group">
                <path d="M66.9375,171.243243 C13.3875,171.243243 0,126.843676 0,104.648649 C53.55,104.648649 66.9375,149.048216 66.9375,171.243243 Z M66.9375,171.243243 L76.5,171.243243 M76.5,171.243243 L76.5,95.1351351 M76.5,171.243243 L86.0625,171.243243 M76.5,95.1351351 C38.25,95.1351351 28.6875,63.4265946 28.6875,47.5675676 L28.6875,9.51351351 L52.59375,28.5405405 L76.5,0 L100.40625,28.5405405 L124.3125,9.51351351 L124.3125,47.5675676 C124.3125,63.4265946 114.75,95.1351351 76.5,95.1351351 Z M86.0625,171.243243 C139.6125,171.243243 153,126.843676 153,104.648649 C99.45,104.648649 86.0625,149.048216 86.0625,171.243243 Z" id="Shape"></path>
            </g>
        </g>
    </g>
</svg>