<?xml version="1.0" encoding="UTF-8"?>
<svg width="192px" height="192px" viewBox="0 0 192 192" version="1.1" xmlns="http://www.w3.org/2000/svg" xmlns:xlink="http://www.w3.org/1999/xlink">
    <title>Artboard Copy 72</title>
    <g id="Artboard-Copy-72" stroke="none" stroke-width="1" fill="none" fill-rule="evenodd">
        <g id="Group" transform="translate(8.000000, 11.000000)">
            <g id="ion:glasses-outline" transform="translate(0.000000, 109.000000)" stroke="#000000" stroke-linecap="round" stroke-linejoin="round" stroke-width="12">
                <path d="M74.4615385,20.3333333 C74.4615385,12.8468067 80.5229142,6.77777778 88,6.77777778 C95.4770858,6.77777778 101.538462,12.8468067 101.538462,20.3333333 M169.230769,6.77777778 L176,6.77777778 M6.76923077,6.77777778 L0,6.77777778 M6.76923077,6.77777778 C6.76923077,47.4444444 13.5384615,61 40.6153846,61 C67.6923077,61 74.4615385,47.4444444 74.4615385,6.77777778 C74.4615385,6.77777778 67.6923077,0 40.6153846,0 C13.5384615,0 6.76923077,6.77777778 6.76923077,6.77777778 Z M169.230769,6.77777778 C169.230769,47.4444444 162.461538,61 135.384615,61 C108.307692,61 101.538462,47.4444444 101.538462,6.77777778 C101.538462,6.77777778 108.307692,0 135.384615,0 C162.461538,0 169.230769,6.77777778 169.230769,6.77777778 Z" id="Shape"></path>
            </g>
            <g id="ion:glasses-outline-copy" transform="translate(0.000000, 109.000000)"></g>
            <path d="M88.0025941,14.8327688 C96.0949882,2.64729553 111.223293,-2.80533272 125.241191,1.41102482 C139.25909,5.62738236 148.857299,18.5173465 148.867358,33.1399068 L148.867358,39.6337595 C162.385005,46.0382365 171,59.6462512 171,74.5900307 C170.984093,89.5289283 162.373364,103.128705 148.867358,109.546302 L148.867358,110.513471 C148.866602,111.612544 148.811679,112.701828 148.704782,113.778377 C145.486399,113.349938 141.817979,113.069999 137.645889,113.01145 L137.662709,112.862312 C137.33078,112.914522 136.998177,112.961817 136.665009,113.004187 L136,113 C133.185665,113 130.589725,113.09873 128.197117,113.275759 L126.734717,113.276813 C123.678837,113.276813 121.201556,110.802433 121.201556,107.75013 C121.201556,104.697827 123.678837,102.223447 126.734717,102.223447 L132.267877,102.223447 C145.728398,102.200563 157.21896,92.5043519 159.489986,79.2523072 C161.761013,66.0002625 154.153335,53.0388103 141.466756,48.5455362 C139.264401,47.735162 137.801228,45.639484 137.801038,43.2951872 L137.801038,33.1399068 C137.801038,20.9306955 127.891916,11.0331741 115.668396,11.0331741 C103.444876,11.0331741 93.5357545,20.9306955 93.5357545,33.1399068 L93.5357545,85.8506476 C99.5935015,80.3592752 107.487836,77.3284427 115.668396,77.3533723 C118.724276,77.3533723 121.201556,79.8277526 121.201556,82.8800554 C121.201556,85.9323583 118.724276,88.4067386 115.668396,88.4067386 C103.748774,88.3997211 93.9644957,97.8225129 93.5369512,109.720522 C93.2732606,117.058687 96.6271776,123.712599 102.025987,127.933547 C102.068956,132.510978 102.166754,136.814363 102.328193,140.857137 C101.088228,140.312913 99.8805117,139.693706 98.7124047,139.001154 L102,139 C102,129.058875 95.9558441,121 88.5,121 C81.0441559,121 75,129.058875 75,139 L77.2927835,139.001154 C76.1231047,139.694637 74.9137098,140.31458 73.6721164,140.858271 C73.8332681,136.814734 73.9311186,132.508354 73.9741319,127.928946 C79.1458997,123.879778 82.4694337,117.584297 82.4694337,110.513471 C82.4694337,98.30426 72.5603125,88.4067386 60.3367921,88.4067386 C57.280912,88.4067386 54.8036317,85.9323583 54.8036317,82.8800554 C54.8036317,79.8277526 57.280912,77.3533723 60.3367921,77.3533723 C68.5173526,77.3284427 76.4116867,80.3592752 82.4694337,85.8506476 L82.4694337,33.1399068 C82.4694337,20.9306955 72.5603125,11.0331741 60.3367921,11.0331741 C48.1132717,11.0331741 38.2041505,20.9306955 38.2041505,33.1399068 L38.2041505,43.2951872 C38.2039599,45.639484 36.7407875,47.735162 34.5384318,48.5455362 C21.8518535,53.0388103 14.2441752,66.0002625 16.5152017,79.2523072 C18.7862282,92.5043519 30.2767906,102.200563 43.7373109,102.223447 L49.2704713,102.223447 C52.3263514,102.223447 54.8036317,104.697827 54.8036317,107.75013 C54.8036317,110.802433 52.3263514,113.276813 49.2704713,113.276813 L47.8028834,113.275759 C45.4102749,113.09873 42.8143353,113 40,113 L39.3391799,113.00406 C39.0063456,112.961722 38.6740757,112.91447 38.3424795,112.862312 C38.3478119,112.912156 38.3533074,112.961947 38.3589655,113.011685 C34.1875479,113.069738 30.5194273,113.349421 27.300956,113.777427 C27.1934756,112.701154 27.1385856,111.612204 27.1378297,110.513471 L27.1378297,109.546302 C13.6181611,103.143319 5,89.5349944 5,74.5900307 C5,59.6450669 13.6181611,46.0367422 27.1378297,39.6337595 L27.1378297,33.1399068 C27.1478888,18.5173465 36.746098,5.62738236 50.7639968,1.41102482 C64.7818956,-2.80533272 79.9101999,2.64729553 88.0025941,14.8327688 Z M60.3367921,35.9032484 C63.3926722,35.9032484 65.8699525,38.3776287 65.8699525,41.4299316 L65.8699525,46.9566148 C65.8699525,60.6919775 54.7221912,71.8266891 40.9707307,71.8266891 C37.9148506,71.8266891 35.4375703,69.3523087 35.4375703,66.3000059 C35.4375703,63.2477031 37.9148506,60.7733227 40.9707307,60.7733227 C48.5947035,60.7355302 54.7657949,54.5716628 54.8036317,46.9566148 L54.8036317,41.4299316 C54.8036317,38.3776287 57.280912,35.9032484 60.3367921,35.9032484 Z M115.668396,35.9032484 C118.724276,35.9032484 121.201556,38.3776287 121.201556,41.4299316 L121.201556,46.9566148 C121.239393,54.5716628 127.410485,60.7355302 135.034457,60.7733227 C138.090338,60.7733227 140.567618,63.2477031 140.567618,66.3000059 C140.567618,69.3523087 138.090338,71.8266891 135.034457,71.8266891 C121.282997,71.8266891 110.135236,60.6919775 110.135236,46.9566148 L110.135236,41.4299316 C110.135236,38.3776287 112.612516,35.9032484 115.668396,35.9032484 Z" id="Combined-Shape" fill="#000000" fill-rule="nonzero"></path>
        </g>
    </g>
</svg>