<?xml version="1.0" encoding="UTF-8"?>
<svg width="192px" height="192px" viewBox="0 0 192 192" version="1.1" xmlns="http://www.w3.org/2000/svg" xmlns:xlink="http://www.w3.org/1999/xlink">
    <title>Artboard Copy 99</title>
    <g id="Artboard-Copy-99" stroke="none" stroke-width="1" fill="none" fill-rule="evenodd">
        <path d="M98.2465994,37 L93.9709089,37 C93.7776393,37 93.5845001,37.0100387 93.392272,37.0300754 L92.7711158,37.0982715 C79.1214301,38.6727814 66.5232917,45.1379887 57.3615144,55.2755088 L57.0846512,55.584186 L56.5307228,56.1325453 C56.4589772,56.2034249 56.389166,56.276236 56.321366,56.3508986 L55.8287087,56.9006129 C51.1030643,62.2435693 47.444231,68.4252344 45.0470081,75.1180562 L44.8418605,75.7023256 L44.5524271,76.4447679 C41.2025135,85.1863004 39.2718398,94.3969248 38.8321933,103.735218 L38.8083721,104.299535 L38.8752364,103.89798 C38.7009025,104.881151 38.5822581,105.871563 38.5193262,106.864616 L38.4954287,107.314829 C35.8004849,108.520508 33.1750355,109.879817 30.6319674,111.386456 L26.504975,113.875607 C23.8832265,115.473254 22.4444927,116.408275 21.1382821,117.367421 L21.0035866,117.466757 C17.7618825,119.867789 16,122.001661 16,125.331139 C16,125.429396 16.0025946,125.527636 16.0077811,125.625755 C16.2450792,130.115017 19.4899638,132.777771 24.7373794,134.948598 L25.1470817,135.115136 C27.6212977,136.103525 30.6682305,137.015097 34.2479759,137.862006 L35.0669767,138.052093 L35.0987794,138.160477 C37.5522611,146.239081 45.0616193,152.068012 53.8762615,152.068012 L54.2460417,152.064568 C60.8898284,151.940744 66.8605005,148.48686 70.339544,143.128772 L70.4297674,142.986977 L71.0861981,143.041531 C72.0741165,143.120727 73.0569987,143.19566 74.0319333,143.266158 L75.3274419,143.357209 L75.4436104,143.586459 C78.9700648,150.413923 87.0233586,154.876262 96,154.876262 L96.3682393,154.873757 C105.193077,154.753651 113.072611,150.323716 116.552318,143.593563 L116.650233,143.39814 L116.956768,143.379559 C118.782563,143.267104 120.644316,143.137137 122.522586,142.990763 L122.953488,142.956279 L123.048992,143.105402 C126.590112,148.575606 132.726041,152.068012 139.527863,152.068012 L139.85916,152.065265 C148.566623,151.920759 155.939865,146.090373 158.333116,138.068041 L158.374884,137.923721 L158.407653,137.916332 C162.151617,137.011448 165.291318,136.028884 167.781008,134.951349 C172.689044,132.827156 175.762848,130.189701 175.992219,125.850415 C175.997405,125.752296 176,125.654056 176,125.555799 C176,122.327215 174.34328,120.222873 171.287029,117.908997 L170.726071,117.492913 C169.000771,116.23715 166.983811,114.980986 162.275227,112.157211 L161.431678,111.648464 C159.207511,110.326593 156.906484,109.112113 154.545406,108.014148 L153.483721,107.530233 L153.450508,107.033778 C153.371807,106.046048 153.237518,105.062173 153.047842,104.086771 L153.031628,104.009302 L153.013188,103.558118 C152.577409,94.2439081 150.651878,85.0569527 147.308446,76.3390186 L147.010233,75.572093 L147.058615,75.7104154 C144.596031,68.5376179 140.688077,61.934498 135.572048,56.3001099 L135.468855,56.1895103 L134.815814,55.5413953 L134.529312,55.2215304 C125.545371,45.2829341 113.245373,38.8801629 99.8865076,37.1788417 L99.3944186,37.12 L99.2745405,37.0944493 C98.9413734,37.0324282 98.5977848,37 98.2465994,37 Z M97.7209302,48.1627907 L97.9986411,48.1938584 C109.053528,49.4768757 119.252327,54.7857439 126.583155,63.0816933 L126.710646,63.2211384 L126.842783,63.3561885 L127.397209,63.9051163 L127.307769,63.8040818 C131.258261,68.1548394 134.306939,73.2230656 136.28532,78.7223827 L136.54395,79.4564993 L136.589962,79.5767915 C139.789427,87.6606925 141.583316,96.2195332 141.896267,104.892482 C141.905256,105.141609 141.930923,105.389761 141.973057,105.635276 L142.020673,105.879849 C142.329146,107.295098 142.434472,108.744261 142.334902,110.18523 L142.294121,110.665191 C142.042106,113.163444 143.489356,115.522448 145.830652,116.429703 C149.246604,117.753387 152.549999,119.359616 155.705683,121.231245 L159.430782,123.477659 C160.368181,124.047985 161.137685,124.523069 161.787493,124.933851 L162.171554,125.179402 C159.760142,126.08419 156.449524,126.981055 152.40725,127.822213 C150.013751,128.320277 148.232191,130.314312 147.990752,132.729547 L147.972658,132.957176 C147.709649,137.406146 144.010469,140.905222 139.527863,140.905222 C135.989947,140.905222 132.868545,138.71317 131.626897,135.479966 L131.53732,135.235541 C130.693892,132.81977 128.315803,131.286926 125.767338,131.516385 C121.188645,131.928643 116.623549,132.24653 112.375848,132.452926 C109.891154,132.573657 107.796529,134.321715 107.220019,136.722637 L107.170454,136.949607 C106.460038,140.558083 101.845291,143.713471 96,143.713471 L95.6822917,143.710356 C91.1464415,143.621288 87.3931264,141.632287 85.700812,139.035896 L85.5972093,138.869767 L85.6053399,138.813623 C85.9755194,135.899822 84.2966221,132.707801 80.3859598,132.489175 C76.3279126,132.26231 71.9902487,131.941087 67.6382513,131.541021 C65.1671494,131.31386 62.8532249,132.74449 61.942301,135.033066 L61.8610503,135.250109 C60.6816921,138.609358 57.4970583,140.905222 53.8762615,140.905222 C49.4949633,140.905222 45.859196,137.561467 45.454068,133.252687 L45.4346032,133.007779 C45.2707736,130.486875 43.4341447,128.390317 40.9567234,127.896167 L40.4079661,127.785572 C36.2405892,126.936916 32.8057749,126.034534 30.2638319,125.118638 L29.8232558,124.956279 L30.8844193,124.28788 C31.3833699,123.977458 31.9448154,123.632749 32.5838808,123.244032 L35.4659245,121.505799 C38.9098493,119.398729 42.4892005,117.628888 46.2034604,116.191474 C48.5041822,115.301098 49.9387314,113.011285 49.7548867,110.569187 L49.7328869,110.339832 C49.5586069,108.845214 49.6032152,107.332161 49.8665712,105.846943 C49.9117777,105.591997 49.9391889,105.334215 49.9486062,105.075463 C50.2547206,96.6646187 51.9467456,88.3608595 54.9566271,80.4899993 L55.3183774,79.5578199 L55.5774446,78.8224903 C57.4889778,73.5094901 60.3963469,68.5975427 64.1486002,64.3432089 L64.4930233,63.9572093 L65.0523003,63.4054108 C65.1419204,63.3168724 65.2285172,63.2253251 65.3119419,63.1309263 L65.6881815,62.7105696 C73.0095966,54.6337999 83.0721244,49.4699979 93.9843711,48.1951809 L94.2706977,48.1627907 L97.7209302,48.1627907 Z" id="Combined-Shape" fill="#000000" fill-rule="nonzero"></path>
    </g>
</svg>