<?xml version="1.0" encoding="UTF-8"?>
<svg width="192px" height="192px" viewBox="0 0 192 192" version="1.1" xmlns="http://www.w3.org/2000/svg" xmlns:xlink="http://www.w3.org/1999/xlink">
    <title>Artboard Copy 93</title>
    <g id="Artboard-Copy-93" stroke="none" stroke-width="1" fill="none" fill-rule="evenodd">
        <g id="ic:baseline-music-note" transform="translate(41.000000, 16.000000)" fill="#000000" fill-rule="nonzero">
            <path d="M87.9097447,0 L71.6454126,0 L71.2777198,0.00299099005 C59.1673793,0.200143523 49.4106294,10.118804 49.4106294,22.3255814 L49.4103205,84.3330233 L49.3161391,84.3039437 C45.8189203,83.2429013 42.1900848,82.6873385 38.4991154,82.6873385 C17.2295506,82.6873385 0,99.9872479 0,121.343669 C0,142.700091 17.2295506,160 38.4991154,160 L39.1359771,159.994823 C60.1115482,159.653596 76.9982307,142.486526 76.9982307,121.343669 L76.9981278,44.2372093 L87.9097447,44.2377261 C100.075973,44.2377261 109.93865,34.3347738 109.93865,22.118863 C109.93865,9.9029523 100.075973,0 87.9097447,0 Z M87.9097447,11.1627907 C93.9360075,11.1627907 98.8212587,16.0679914 98.8212587,22.118863 C98.8212587,28.1697347 93.9360075,33.0749354 87.9097447,33.0749354 L71.4395349,33.0749354 C68.369552,33.0749354 65.8808391,35.5738112 65.8808391,38.6563307 L65.8808391,121.343669 C65.8808391,136.535052 53.6287143,148.837209 38.4991154,148.837209 C23.3695165,148.837209 11.1173916,136.535052 11.1173916,121.343669 C11.1173916,106.152287 23.3695165,93.8501292 38.4991154,93.8501292 C43.2571507,93.8501292 47.9144639,95.1762532 52.193876,97.6524256 C55.8996714,99.7966895 60.528021,97.1110893 60.528021,92.8165375 L60.528021,22.3255814 C60.528021,16.1605423 65.5054467,11.1627907 71.6454126,11.1627907 L87.9097447,11.1627907 Z" id="Path"></path>
        </g>
    </g>
</svg>