<?xml version="1.0" encoding="UTF-8"?>
<svg width="192px" height="192px" viewBox="0 0 192 192" version="1.1" xmlns="http://www.w3.org/2000/svg" xmlns:xlink="http://www.w3.org/1999/xlink">
    <title>Artboard Copy 69</title>
    <g id="Artboard-Copy-69" stroke="none" stroke-width="1" fill="none" fill-rule="evenodd">
        <path d="M96.4976461,19.9999995 L97.1978081,20.0002737 C119.08852,20.0177081 148.507251,20.3617935 162.840985,31.5615441 C173.711151,40.0550149 174.719502,55.0824107 174.963836,68.7203079 L174.981606,69.873573 C174.998948,71.207511 175.005573,72.5321653 175.007241,73.8340357 L175.007084,75.5360054 C175.006353,76.13947 175.005073,76.739335 175.003804,77.3350805 C175.00189,78.2332624 175,79.1221538 175,80 C175,80.8844657 175.001933,81.7796826 175.00389,82.6839012 L175.007196,84.4551647 L175.007458,86.1530288 C175.006884,86.6254979 175.006416,87.100579 175.005665,87.5779371 L175.003666,88.5355898 C175.002797,88.8557531 175.001684,89.1768292 175.000214,89.4987185 L174.994611,90.4667275 C174.988853,91.2752696 174.98013,92.0882745 174.966629,92.9041908 L174.948018,93.8845884 C174.940973,94.2117872 174.933047,94.5393525 174.924125,94.8671851 L174.894253,95.8513849 C174.480585,108.161421 172.50248,120.707566 162.841839,128.253155 C148.646449,139.340679 119.659876,139.978326 97.8275476,139.999397 L95.1694331,139.999411 C73.2619976,139.978815 42.9539048,139.352905 28.7428611,128.253155 C18.3655875,120.147829 17.8948356,106.110345 17.8848128,93.1175843 L17.8865058,91.966387 L17.8927205,90.816839 C17.9034855,89.3061929 17.9235324,87.8056361 17.9433081,86.3225754 C17.9719875,84.1717953 18,82.0570479 17.9999958,79.9928745 L17.9993328,79.437954 C17.9949618,77.5645046 17.9696356,75.6432319 17.9437711,73.6907086 C17.9264811,72.3854768 17.9089802,71.0660166 17.8977913,69.7465139 L17.889729,68.5891928 L17.8857679,67.434099 L17.8855893,66.0472298 C17.8858098,65.8927088 17.8861258,65.7380581 17.8865529,65.5832893 L17.8905704,64.6533523 C17.8924359,64.3429631 17.8948689,64.0321948 17.8979929,63.7211407 L17.9095614,62.7872147 C18.0854834,50.9489909 19.4375823,38.8329485 28.7437157,31.5615441 C42.8103845,20.5704663 72.6428221,20.0238226 94.4938382,20.0009155 L95.83506,20.0000796 L96.4976461,19.9999995 Z" id="Oval" stroke="#000000" stroke-width="12"></path>
        <rect id="Rectangle" stroke="#000000" stroke-width="12" x="48" y="57" width="29" height="46" rx="14.5"></rect>
        <rect id="Rectangle-Copy" stroke="#000000" stroke-width="12" x="115" y="57" width="29" height="46" rx="14.5"></rect>
        <path d="M71.4937161,160.428198 C71.4937161,182.865478 120.842781,183.794991 120.842781,160.428198" id="Path-30" stroke="#000000" stroke-width="12" stroke-linecap="round" stroke-linejoin="round"></path>
    </g>
</svg>