<?xml version="1.0" encoding="UTF-8"?>
<svg width="192px" height="192px" viewBox="0 0 192 192" version="1.1" xmlns="http://www.w3.org/2000/svg" xmlns:xlink="http://www.w3.org/1999/xlink">
    <title>Artboard Copy 59</title>
    <g id="Artboard-Copy-59" stroke="none" stroke-width="1" fill="none" fill-rule="evenodd">
        <g id="DZ" transform="translate(96.171573, 95.828427) rotate(-45.000000) translate(-96.171573, -95.828427) translate(16.391613, 45.974874)" fill="#000000" fill-rule="nonzero">
            <path d="M-9.09494702e-13,99.7071068 L-9.09494702e-13,0.707106781 L31.7645051,0.707106781 C43.2389078,0.707106781 52.6843003,2.73424964 60.1006826,6.78853535 C67.5170648,10.8428211 73.0210466,16.5706782 76.612628,23.9721068 C80.2042093,31.3735354 82,40.1656782 82,50.3485354 C82,60.4371068 80.2042093,69.1821068 76.612628,76.5835354 C73.0210466,83.9849639 67.5170648,89.6892496 60.1006826,93.6963925 C52.6843003,97.7035354 43.2389078,99.7071068 31.7645051,99.7071068 L-9.09494702e-13,99.7071068 Z M14.8327645,86.9785354 L31.2047782,86.9785354 C40.0671217,86.9785354 47.0870307,85.5171068 52.2645051,82.5942496 C57.4419795,79.6713925 61.1734926,75.4756782 63.4590444,70.0071068 C65.7445961,64.5385354 66.887372,57.9856782 66.887372,50.3485354 C66.887372,42.7113925 65.7445961,36.1113925 63.4590444,30.5485354 C61.1734926,24.9856782 57.4419795,20.7192496 52.2645051,17.7492496 C47.0870307,14.7792496 40.0671217,13.2942496 31.2047782,13.2942496 L14.8327645,13.2942496 L14.8327645,86.9785354 Z" id="Shape"></path>
            <polygon id="Path" points="93.5599205 99 93.5599205 87.4028571 141.48166 12.7285714 94.1338336 12.7285714 94.1338336 0 159.129486 0 159.129486 11.5971429 111.064268 86.2714286 159.559921 86.2714286 159.559921 99"></polygon>
        </g>
    </g>
</svg>