<?xml version="1.0" encoding="UTF-8"?>
<svg width="192px" height="192px" viewBox="0 0 192 192" version="1.1" xmlns="http://www.w3.org/2000/svg" xmlns:xlink="http://www.w3.org/1999/xlink">
    <title>Artboard Copy 33</title>
    <g id="Artboard-Copy-33" stroke="none" stroke-width="1" fill="none" fill-rule="evenodd">
        <g id="Motorola_new_logo" transform="translate(11.000000, 17.000000)" fill="#000000" fill-rule="nonzero">
            <path d="M123.105202,0 L171,158 L162.019696,158 L161.673314,156.489498 C160.28272,150.589465 154.774766,128.726677 146.413352,114.556142 L146.117061,114.059238 C140.878501,105.08403 132.459502,97.7915981 121.421222,97.9787205 C113.563453,98.1657187 106.828227,102.466304 98.4091528,114.246154 C96.7253582,116.614604 94.7297431,120.188048 92.817276,123.899995 L92.4597592,124.597348 L91.7528863,125.995543 L90.7559033,128.008195 C87.8235617,133.993852 85.5,139.301797 85.5,139.301797 L84.3311874,136.611473 C83.1378129,133.915335 81.1523675,129.560884 78.9518746,125.278094 L76.7206544,121.171426 C75.25165,118.484429 73.8380726,115.991332 72.5907763,114.246154 C64.1717772,102.466304 57.4365464,98.1658429 49.5787812,97.9787205 C38.5405022,97.7917637 30.3085299,105.084071 24.8829391,114.059238 C16.553717,127.880961 10.9966881,149.486791 9.43166698,156.046821 L8.98030319,158 L0,158 L48.0820398,0 L85.3128983,123.408319 L85.6869439,123.595441 L85.8743394,123.408319 L123.105202,0 Z M123.132,41.455 L108.873,88.718 L109.015931,88.6547332 C112.699209,87.0230805 116.572629,86.1478528 120.752167,85.9945132 L121.217826,85.9804444 C127.044524,85.8816694 132.475994,87.1416826 137.403684,89.5156905 L137.753,89.686 L123.132,41.455 Z M48.032,41.381 L33.339,89.663 L33.5929737,89.5381009 C38.3836969,87.21273 43.6561523,85.9551696 49.3600601,85.9768806 L49.8644645,85.9821216 C54.194089,86.0852259 58.1996915,86.9634776 62.0072179,88.6553283 L62.339,88.805 L48.032,41.381 Z" id="path22"></path>
        </g>
    </g>
</svg>