<?xml version="1.0" encoding="UTF-8"?>
<svg width="192px" height="192px" viewBox="0 0 192 192" version="1.1" xmlns="http://www.w3.org/2000/svg" xmlns:xlink="http://www.w3.org/1999/xlink">
    <title>Artboard Copy 28</title>
    <g id="Artboard-Copy-28" stroke="none" stroke-width="1" fill="none" fill-rule="evenodd">
        <path d="M116.351713,55.6769549 C117.84901,55.3364146 119.476218,55.5670736 120.87844,56.4496487 C121.638667,56.9281442 122.281753,57.5712307 122.760249,58.3314571 L172.781147,137.803913 C173.663722,139.206135 173.894381,140.833343 173.553841,142.33064 C173.213301,143.827936 172.301561,145.195321 170.899339,146.077896 C169.942175,146.680346 168.834228,147 167.703251,147 L67.6614545,147 C66.0046002,147 64.5046002,146.328427 63.4188138,145.242641 C62.3330274,144.156854 61.6614545,142.656854 61.6614545,141 C61.6614545,139.869023 61.9811087,138.761076 62.5835587,137.803913 L112.604457,58.3314571 C113.487032,56.9292349 114.854417,56.0174953 116.351713,55.6769549 Z" id="Triangle" stroke="#000000" stroke-width="12"></path>
        <path d="M61.6159349,74.4534255 C63.1132313,74.1128852 64.7404395,74.3435441 66.1426617,75.2261193 C66.9028882,75.7046148 67.5459747,76.3477013 68.0244702,77.1079277 L106.227237,137.803913 C107.109812,139.206135 107.340471,140.833343 106.999931,142.33064 C106.659391,143.827936 105.747651,145.195321 104.345429,146.077896 C103.388265,146.680346 102.280318,147 101.149341,147 L24.7438074,147 C23.0869532,147 21.5869532,146.328427 20.5011667,145.242641 C19.4153803,144.156854 18.7438074,142.656854 18.7438074,141 C18.7438074,139.869023 19.0634616,138.761076 19.6659116,137.803913 L57.8686786,77.1079277 C58.7512538,75.7057055 60.1186384,74.7939658 61.6159349,74.4534255 Z" id="Triangle-Copy" stroke="#000000" stroke-width="12"></path>
        <circle id="Oval" stroke="#000000" stroke-width="8" cx="152.870588" cy="75.8823529" r="18.1294118"></circle>
        <line x1="117" y1="102.705882" x2="59.3294118" y2="102.705882" id="Line-3" stroke="#000000" stroke-width="8" stroke-linecap="round" stroke-linejoin="round"></line>
        <line x1="96.8823529" y1="128.188235" x2="39.2117647" y2="128.188235" id="Line-3-Copy" stroke="#000000" stroke-width="8" stroke-linecap="round" stroke-linejoin="round"></line>
    </g>
</svg>