<?xml version="1.0" encoding="UTF-8"?>
<svg width="192px" height="192px" viewBox="0 0 192 192" version="1.1" xmlns="http://www.w3.org/2000/svg" xmlns:xlink="http://www.w3.org/1999/xlink">
    <title>Artboard Copy 34</title>
    <g id="Artboard-Copy-34" stroke="none" stroke-width="1" fill="none" fill-rule="evenodd">
        <path d="M169,120.666667 C169,129.564588 161.78681,136.777778 152.888889,136.777778 L56.2222222,136.777778 L24,169 L24,40.1111111 C24,31.2131901 31.2131901,24 40.1111111,24 L152.888889,24 C161.78681,24 169,31.2131901 169,40.1111111 L169,120.666667 Z" id="Path" stroke="#000000" stroke-width="12" stroke-linecap="round" stroke-linejoin="round"></path>
        <g id="Motorola_new_logo-Copy" transform="translate(56.000000, 43.000000)" fill="#000000" fill-rule="nonzero">
            <path d="M58.3129905,0 L81,75 L76.746172,75 L76.5030302,73.9500337 C75.7350315,70.7452984 73.1848803,60.9141106 69.3843513,54.4301022 L69.2133444,54.1420436 C66.7319214,49.8816598 62.7439744,46.4200624 57.5153159,46.5088863 C53.7932147,46.5976513 50.6028442,48.6390684 46.6148619,54.2307692 C44.2221011,57.6035624 40.5,66.1242709 40.5,66.1242709 L39.9362779,64.8244172 C39.3699358,63.5429456 38.4344274,61.48839 37.3982564,59.4674496 L36.1334495,57.1384644 C35.5123882,56.0094727 34.9168467,54.9763359 34.3851046,54.2307692 C30.3971576,48.6390684 27.2067851,46.5977102 23.4846858,46.5088863 C18.2560273,46.420141 14.3566721,49.8816795 11.7866554,54.1420436 C8.06347933,60.3334108 5.50967572,69.815214 4.61080502,73.4805861 L4.25382783,75 L0,75 L22.7757031,0 L40.4113729,58.5798983 L40.5885524,58.6687222 L40.6773187,58.5798983 L58.3129905,0 Z M58.331,27.691 L55.012,38.715 L55.1150197,38.6991167 C55.7282221,38.6093796 56.3540746,38.5507134 56.993871,38.522974 L57.3794324,38.5100404 C58.7662665,38.486481 60.1093246,38.6051437 61.4036547,38.8540482 L61.727,38.919 L58.331,27.691 Z M22.742,27.641 L19.318,38.915 L19.5867589,38.8604365 C20.7657894,38.6327291 21.9883416,38.5125035 23.2525864,38.5082677 L23.6755429,38.5111633 C24.4438399,38.5294979 25.1923885,38.5923384 25.9233444,38.699932 L26.078,38.724 L22.742,27.641 Z" id="path22"></path>
        </g>
    </g>
</svg>