<?xml version="1.0" encoding="UTF-8"?>
<svg width="192px" height="192px" viewBox="0 0 192 192" version="1.1" xmlns="http://www.w3.org/2000/svg" xmlns:xlink="http://www.w3.org/1999/xlink">
    <title>Artboard Copy 24</title>
    <g id="Artboard-Copy-24" stroke="none" stroke-width="1" fill="none" fill-rule="evenodd">
        <g id="?" transform="translate(53.018179, 14.720000)" fill="#000000" fill-rule="nonzero">
            <path d="M41.5178212,118.272 C37.1879087,118.272 33.6778212,114.761912 33.6778212,110.432 L33.6778212,104.832 L33.6778212,104.832 C33.6778212,100.650667 34.1631545,96.88 35.1338212,93.52 C36.1044878,90.16 37.4484878,87.136 39.1658212,84.448 C40.8831545,81.76 42.8244878,79.3333333 44.9898212,77.168 C47.1551545,75.0026667 49.3578212,72.8746667 51.5978212,70.784 L57.8698212,65.184 C61.6031545,62.1973333 64.7018212,58.7626667 67.1658212,54.88 C69.6298212,50.9973333 70.8618212,46.144 70.8618212,40.32 C70.8618212,36.1386667 70.1151545,32.4053333 68.6218212,29.12 C67.1284878,25.8346667 65.1124878,23.072 62.5738212,20.832 C60.0351545,18.592 57.0858212,16.8746667 53.7258212,15.68 C50.3658212,14.4853333 46.7444878,13.888 42.8618212,13.888 C34.7978212,13.888 28.2644878,16.352 23.2618212,21.28 C20.833829,23.6717535 18.2881939,27.6019474 15.6249157,33.0705818 C13.6846132,37.0547208 9.33864339,39.2703208 4.97458116,38.5001921 C1.70057496,37.9224263 -0.48515974,34.7999482 0.0926060596,31.525942 C0.18751822,30.9881064 0.355181095,30.4656887 0.590999264,29.9730781 C5.24992775,20.2398497 9.74553505,13.5714903 14.0778212,9.968 C22.0671545,3.32266667 31.8858212,0 43.5338212,0 C49.5071545,0 55.1444878,0.858666667 60.4458212,2.576 C65.7471545,4.29333333 70.3391545,6.832 74.2218212,10.192 C78.1044878,13.552 81.2031545,17.696 83.5178212,22.624 C85.8324878,27.552 86.9898212,33.152 86.9898212,39.424 C86.9898212,44.2026667 86.4671545,48.384 85.4218212,51.968 C84.3764878,55.552 82.9204878,58.7626667 81.0538212,61.6 C79.1871545,64.4373333 76.9844878,67.0133333 74.4458212,69.328 C71.9071545,71.6426667 69.2191545,73.9946667 66.3818212,76.384 C63.2458212,78.9226667 60.5951545,81.2373333 58.4298212,83.328 C56.2644878,85.4186667 54.5098212,87.6213333 53.1658212,89.936 C51.8218212,92.2506667 50.8511545,94.8266667 50.2538212,97.664 C49.6564878,100.501333 49.3578212,103.936 49.3578212,107.968 L49.3578212,110.432 C49.3578212,114.761912 45.8477336,118.272 41.5178212,118.272 Z M55.1818212,150.528 C55.1818212,153.664 54.0618212,156.464 51.8218212,158.928 C49.5818212,161.392 46.6698212,162.624 43.0858212,162.624 C39.5018212,162.624 36.5898212,161.392 34.3498212,158.928 C32.1098212,156.464 30.9898212,153.664 30.9898212,150.528 C30.9898212,147.392 32.1098212,144.592 34.3498212,142.128 C36.5898212,139.664 39.5018212,138.432 43.0858212,138.432 C46.6698212,138.432 49.5818212,139.664 51.8218212,142.128 C54.0618212,144.592 55.1818212,147.392 55.1818212,150.528 Z" id="Shape"></path>
        </g>
    </g>
</svg>