<?xml version="1.0" encoding="UTF-8"?>
<svg width="192px" height="192px" viewBox="0 0 192 192" version="1.1" xmlns="http://www.w3.org/2000/svg" xmlns:xlink="http://www.w3.org/1999/xlink">
    <title>Artboard Copy 57</title>
    <g id="Artboard-Copy-57" stroke="none" stroke-width="1" fill="none" fill-rule="evenodd">
        <g id="Group" transform="translate(43.000000, 0.000000)" stroke="#000000" stroke-width="12">
            <path d="M6,15.4510619 L99.4275775,117.607305 C100.439066,118.713294 101,120.157799 101,121.656572 L101,176.548938 L9.14484507,76.112024 C7.12186843,73.9000466 6,71.0110368 6,68.0134914 L6,15.4510619 Z" id="Path-21"></path>
            <path d="M98,6 C98.8284271,6 99.5784271,6.33578644 100.12132,6.87867966 C100.664214,7.42157288 101,8.17157288 101,9 L101,66 C101,66.8284271 100.664214,67.5784271 100.12132,68.1213203 C99.5784271,68.6642136 98.8284271,69 98,69 L9,69 C8.17157288,69 7.42157288,68.6642136 6.87867966,68.1213203 C6.33578644,67.5784271 6,66.8284271 6,66 L6,9 C6,8.17157288 6.33578644,7.42157288 6.87867966,6.87867966 C7.42157288,6.33578644 8.17157288,6 9,6 Z" id="Path-20"></path>
            <path d="M98,123 C98.8284271,123 99.5784271,123.335786 100.12132,123.87868 C100.664214,124.421573 101,125.171573 101,126 L101,183 C101,183.828427 100.664214,184.578427 100.12132,185.12132 C99.5784271,185.664214 98.8284271,186 98,186 L9,186 C8.17157288,186 7.42157288,185.664214 6.87867966,185.12132 C6.33578644,184.578427 6,183.828427 6,183 L6,126 C6,125.171573 6.33578644,124.421573 6.87867966,123.87868 C7.42157288,123.335786 8.17157288,123 9,123 Z" id="Path-20-Copy"></path>
        </g>
    </g>
</svg>