<?xml version="1.0" encoding="UTF-8"?>
<svg width="192px" height="192px" viewBox="0 0 192 192" version="1.1" xmlns="http://www.w3.org/2000/svg" xmlns:xlink="http://www.w3.org/1999/xlink">
    <title>Artboard Copy 87</title>
    <g id="Artboard-Copy-87" stroke="none" stroke-width="1" fill="none" fill-rule="evenodd">
        <g id="Group-2" transform="translate(16.000000, 16.000000)">
            <path d="M119.5,21 C137.449254,21 152,35.5507456 152,53.5 C152,63.1253481 147.815676,71.773395 141.166804,77.7243638 C137.226322,75.0845192 132.667058,73.2535472 127.697228,72.494085 C124.817937,61.0427332 118.261011,50.8612689 109.039286,43.5224049 C104.194891,39.6491319 98.7458746,36.6911724 92.9568104,34.7408128 C98.8440921,26.4268654 108.53829,21 119.5,21 Z" id="Combined-Shape" stroke="#000000" stroke-width="12" stroke-linejoin="round"></path>
            <g id="ci:cloud-outline">
                <rect id="ViewBox" x="0" y="0" width="160" height="160"></rect>
                <g id="Group" transform="translate(0.000000, 26.987952)" fill-rule="nonzero" stroke="#000000" stroke-width="12">
                    <path d="M79.9959082,6.00029694 C90.6444586,5.96422698 100.974306,9.57006858 109.292438,16.2207239 C117.49606,22.7493773 123.320329,31.7956176 125.878345,41.969214 C126.224327,43.3452327 126.507908,44.7313413 126.729899,46.1220084 C128.071268,46.1258272 129.427758,46.2289777 130.790862,46.4372799 C137.856064,47.5169455 143.90799,51.2395386 148.058343,56.4778889 C152.214536,61.7236104 154.464503,68.4892152 153.919126,75.6486707 C153.373868,82.806562 150.126395,89.1493305 145.22492,93.6993742 C140.330499,98.2428683 133.786464,100.99824 126.632929,100.987917 L40.0032017,100.987918 C31.154624,100.99318 23.0458649,97.5885793 16.9686469,91.9718794 C10.8844064,86.3486892 6.83604624,78.5088355 6.11471116,69.6501339 C5.39324116,60.7897756 8.12061131,52.3931494 13.2153535,45.8524195 C18.3043785,39.3190294 25.756165,34.6374878 34.4901316,33.2011299 C35.4544715,33.0425379 36.4166734,32.92643 37.3746515,32.8505443 C37.8030069,31.963385 38.2605253,31.0860534 38.7472263,30.2199101 C42.9463356,22.7470862 48.9864623,16.6965793 56.1148255,12.5119961 C63.2392883,8.3297026 71.4507412,6.01145422 79.9959082,6.00029694 Z" id="Shape"></path>
                </g>
            </g>
        </g>
    </g>
</svg>