<?xml version="1.0" encoding="UTF-8"?>
<svg width="192px" height="192px" viewBox="0 0 192 192" version="1.1" xmlns="http://www.w3.org/2000/svg" xmlns:xlink="http://www.w3.org/1999/xlink">
    <title>Artboard Copy 12</title>
    <g id="Artboard-Copy-12" stroke="none" stroke-width="1" fill="none" fill-rule="evenodd">
        <g id="logo_play24" transform="translate(7.000000, 7.000000)" fill="#000000">
            <path d="M43.6934236,17.4458412 L37.7312997,16.2420354 L37.7312997,16.2420354 C14.2545533,32.8130687 0,59.7134854 0,89.0000523 C0,138.153594 39.8465104,178 89.0000523,178 C138.153594,178 178,138.153594 178,89.0000523 C178,39.8465104 138.153594,0 89.0000523,0 C75.1094366,0 61.6628895,3.18882132 49.4836906,9.23312476 L55.0092768,11.5079409 C55.9580785,11.8985509 56.4573739,12.9438006 56.164964,13.9273133 L54.534776,19.4104055 L54.534776,19.4104055 C65.1526733,14.1408947 76.8721121,11.3616732 89.0000523,11.3616732 C131.878574,11.3616732 166.638327,46.1215308 166.638327,89.0000523 C166.638327,131.878574 131.878574,166.638327 89.0000523,166.638327 C46.1215308,166.638327 11.3616732,131.878574 11.3616732,89.0000523 C11.3616732,63.4449179 23.7913081,39.9887797 44.2830131,25.5242745 L45.269124,19.7425361 C45.4508669,18.6769462 44.7530185,17.6597828 43.6934236,17.4458412 Z M45.2333933,120.521085 L82.3503554,120.521085 C85.1117791,120.521085 87.3503554,118.282509 87.3503554,115.521085 L87.3503554,114.983737 C87.3503554,112.222314 85.1117791,109.983737 82.3503554,109.983737 L61.6919988,109.983737 C60.8635716,109.983737 60.1919988,109.312164 60.1919988,108.483737 C60.1919988,108.091384 60.3457284,107.714649 60.6202268,107.434307 L73.5779487,94.2007298 L73.5779487,94.2007298 C77.8109853,89.7087839 80.798642,85.7738853 82.5419647,82.3976031 C84.2847644,79.020798 85.1561643,75.7041434 85.1561643,72.4481626 C85.1561643,66.5089397 83.2187903,61.9113379 79.3435193,58.654834 C75.4687713,55.3988532 70.0295834,53.7706012 63.0264786,53.7706012 C58.4508448,53.7706012 54.3579854,54.7131358 50.7473773,56.5971587 C47.1367691,58.4817047 44.3436868,61.081782 42.3670841,64.3984365 C41.6689676,65.5696613 41.0633385,67.1485158 40.5501968,69.135 C39.8586431,71.8084275 41.4650079,74.5364376 44.1383691,75.2282474 C44.5467231,75.3339209 44.9668078,75.3874966 45.3886131,75.3876987 L48.8328929,75.3876987 C51.1110335,75.3880833 53.1014087,73.848465 53.6737513,71.6433916 C54.1866387,69.6649183 54.8219977,68.2372756 55.5798282,67.3604637 C57.3383193,65.3252796 59.7427762,64.307949 62.7926757,64.307949 C65.6255098,64.307949 67.8040094,65.1448276 69.3292206,66.8180618 C70.8544319,68.4912959 71.6170375,70.7900969 71.6170375,73.7144645 C71.6170375,75.8553046 70.8931375,78.116446 69.4458606,80.4978887 C67.9985837,82.8798544 65.7651639,85.6687524 62.7461243,88.8645826 L42.1646991,110.112278 C41.2612545,111.044969 40.7560928,112.292546 40.7560928,113.591055 L40.7560928,116.043785 C40.7560928,118.516529 42.7606485,120.521085 45.2333933,120.521085 Z M138.02346,95.7348329 L133.319992,95.7348329 C132.491565,95.7348329 131.819992,95.06326 131.819992,94.2348329 L131.819992,59.6718149 C131.819992,56.9103911 129.581416,54.6718149 126.819992,54.6718149 L120.892851,54.6718149 C119.204761,54.6718149 117.630642,55.5236058 116.707233,56.936746 L90.7731099,96.6250825 C90.1730152,97.5434386 89.8916073,98.6336666 89.9722581,99.7277356 L90.1512834,102.156307 L90.3029677,104.213982 C90.3884863,105.374087 91.354658,106.271658 92.5179104,106.271658 L116.827417,106.271658 C117.655844,106.271658 118.327417,106.94323 118.327417,107.771658 L118.327417,119.017424 C118.327417,119.845851 118.99899,120.517424 119.827417,120.517424 L130.319992,120.517424 C131.148419,120.517424 131.819992,119.845851 131.819992,119.017424 L131.819992,107.771658 C131.819992,106.94323 132.491565,106.271658 133.319992,106.271658 L138.02346,106.271658 C138.851887,106.271658 139.52346,105.600085 139.52346,104.771658 L139.52346,97.2348329 C139.52346,96.4064058 138.851887,95.7348329 138.02346,95.7348329 Z M106.058798,95.7348329 L119.632455,95.7348329 C120.460882,95.7348329 121.132455,95.06326 121.132455,94.2348329 L121.132455,73.2471886 C121.132455,72.4187614 120.460882,71.7471886 119.632455,71.7471886 C119.123522,71.7471886 118.649304,72.0052438 118.37292,72.4325902 L104.799263,93.4202345 C104.349373,94.1158567 104.548578,95.044478 105.2442,95.4943683 C105.486895,95.6513301 105.769769,95.7348329 106.058798,95.7348329 Z" id="Shape"></path>
        </g>
    </g>
</svg>