<?xml version="1.0" encoding="UTF-8"?>
<svg width="192px" height="192px" viewBox="0 0 192 192" version="1.1" xmlns="http://www.w3.org/2000/svg" xmlns:xlink="http://www.w3.org/1999/xlink">
    <title>Artboard Copy 13</title>
    <g id="Artboard-Copy-13" stroke="none" stroke-width="1" fill="none" fill-rule="evenodd">
        <g id="navigation_menu" transform="translate(23.000000, 23.000000)">
            <polygon id="Path" points="0 0 147 0 147 146 0 146"></polygon>
            <path d="M17.6677202,7.84833411 C20.1202293,5.51851546 24.0343801,5.29219022 28.4282722,7.73739036 L54.076,22 L42,22 C36.4771525,22 32,26.4771525 32,32 L32,95.9996124 C32,101.52246 36.4771525,105.999612 42,105.999612 L83.0257887,105.999612 L121.9505,84.5179182 L121.97,59.756 L131.460558,65.033178 C138.844986,69.1336588 138.844986,75.8612875 131.465041,79.9706438 L28.4327557,137.266431 C24.0298965,139.707194 20.1202293,139.480869 17.6632366,137.15105 C15.9863839,135.580087 15,133.02838 15,129.677879 L15,15.317067 C15,11.9665659 15.9953511,9.42373529 17.6677202,7.84833411 Z" id="Combined-Shape" stroke="#000000" stroke-width="12" fill-rule="nonzero"></path>
            <path d="M32,32 L32,95.9996124 C32,101.52246 36.4771525,105.999612 42,105.999612 L83.0257887,105.999612 L83.0257887,105.999612 L121.9505,84.5179182 L121.992082,31.9999969 C122.00437,26.4771574 117.530763,21.9964614 112.007918,21.9920886 C112.005278,21.9920865 112.002639,21.9920855 112,22 L42,22 C36.4771525,22 32,26.4771525 32,32 Z" id="Path" stroke="#000000" stroke-width="12" stroke-linejoin="round" fill-rule="nonzero"></path>
            <path d="M101.8,45 C100.165196,44.9904743 98.5935483,45.6346075 97.4308166,46.7907983 C96.268085,47.9469891 95.6095184,49.5205239 95.6,51.1652288 C95.6,52.0207414 95.779971,52.8309887 96.0904209,53.5733383 L85.6206096,63.9843378 C84.07192,63.340278 82.3325792,63.340278 80.7838897,63.9843378 L76.5140784,59.7384606 C76.8380261,58.978005 77.0044993,58.1541781 77,57.3303511 C76.9904816,55.6856462 76.331915,54.1121114 75.1691834,52.9559206 C74.0064517,51.7997299 72.4348044,51.1555967 70.8,51.1652288 C69.1651956,51.1555967 67.5935483,51.7997299 66.4308166,52.9559206 C65.268085,54.1121114 64.6095184,55.6856462 64.6,57.3303511 C64.6,58.1903902 64.779971,59.0006376 65.0904209,59.7384606 L54.6206096,70.1494601 C53.8531725,69.8296949 53.0306517,69.6651174 52.2,69.6651223 C50.5644203,69.6554922 48.9920938,70.3002458 47.8292328,71.4574142 C46.6663717,72.6145827 46.0083291,74.1892797 46,75.8347712 C46.0095184,77.4794761 46.668085,79.0530109 47.8308166,80.2092017 C48.9935483,81.3653925 50.5651956,82.0095257 52.2,82 C53.8348044,82.0095257 55.4064517,81.3653925 56.5691834,80.2092017 C57.731915,79.0530109 58.3904816,77.4794761 58.4,75.8347712 C58.4,75.0064177 58.2335269,74.1871173 57.9140784,73.4266617 L68.3838897,63.0156622 C69.9316401,63.6539017 71.6683599,63.6539017 73.2206096,63.0156622 L77.4904209,67.2615394 C77.1657721,68.0207161 76.9988791,68.838669 77,69.6651223 C77.0083291,71.3106138 77.6663717,72.8853108 78.8292328,74.0424793 C79.9920938,75.1996477 81.5644203,75.8444013 83.2,75.8347712 C84.8355797,75.8444013 86.4079062,75.1996477 87.5707672,74.0424793 C88.7336283,72.8853108 89.3916709,71.3106138 89.4,69.6651223 C89.4,68.8412954 89.2335269,68.021995 88.9140784,67.2615394 L99.3838897,56.8460133 C100.148766,57.1673964 100.972134,57.3348777 101.8,57.3303511 C103.434804,57.3399833 105.006452,56.6958501 106.169183,55.5396593 C107.331915,54.3834686 107.990482,52.8099337 108,51.1652288 C107.990482,49.5205239 107.331915,47.9469891 106.169183,46.7907983 C105.006452,45.6346075 103.434804,44.9904743 101.8,45 L101.8,45 Z" id="Path" fill="#000000" fill-rule="nonzero"></path>
        </g>
    </g>
</svg>