<?xml version="1.0" encoding="UTF-8"?>
<svg width="192px" height="192px" viewBox="0 0 192 192" version="1.1" xmlns="http://www.w3.org/2000/svg" xmlns:xlink="http://www.w3.org/1999/xlink">
    <title>Artboard Copy 53</title>
    <g id="Artboard-Copy-53" stroke="none" stroke-width="1" fill="none" fill-rule="evenodd">
        <g id="Group-Copy" transform="translate(-0.000000, 0.000000)" fill="#000000" fill-rule="nonzero">
            <path d="M72.0654669,21.2919422 L72.4808581,21.7090879 C72.5490602,21.7778746 72.6167503,21.8462953 72.6839333,21.9143546 L73.0809803,22.3184078 C73.1461525,22.3850388 73.2108266,22.4513171 73.2750072,22.5172472 L73.6542057,22.9086842 C73.7164306,22.9732389 73.7781713,23.0374543 73.8394322,23.1013346 L74.2012776,23.4806316 C74.260638,23.5431895 74.3195278,23.6054212 74.3779516,23.6673311 L74.7229396,24.0349644 C74.7795179,24.0956048 74.8356394,24.1559322 74.8913088,24.2159511 L75.219935,24.5723971 L75.5379287,24.9216494 C75.5900539,24.9792704 75.6417452,25.0366005 75.6930072,25.0936441 L75.9954651,25.4325028 L76.2878412,25.7646972 L76.5703557,26.0904387 L76.8432289,26.4099393 L77.106681,26.7234104 C77.3223602,26.9821829 77.5284552,27.2348953 77.7255397,27.4820989 L77.9577528,27.7761342 C78.4896628,28.4562114 78.9527291,29.0948281 79.3595436,29.7040855 L79.5304854,29.9634336 C79.558414,30.0063705 79.5860647,30.0491664 79.6134422,30.0918257 L79.774465,30.3461782 L79.9291506,30.597465 L80.0777191,30.8458976 C80.1747748,31.010615 80.2678992,31.1735708 80.3573862,31.3350472 L80.4889253,31.5761876 C80.5533675,31.6962383 80.6158462,31.8155363 80.6764853,31.9342005 L80.7953475,32.1707194 C80.8730027,32.3278824 80.9475344,32.48406 81.0192362,32.6395343 L81.1247033,32.8722538 C81.1764124,32.9883851 81.2266123,33.1042002 81.2754269,33.2198183 L81.3712459,33.4508268 L81.463591,33.6815215 L81.5526825,33.912114 L81.6387408,34.142816 C81.6528433,34.1812872 81.6668286,34.2197718 81.6807013,34.2582741 L81.7626227,34.4895372 L81.8420615,34.721439 L81.9192379,34.9541911 L81.9943723,35.1880053 L82.0676849,35.4230932 C82.079764,35.4623924 82.0917765,35.5017535 82.1037268,35.5411809 C83.2987577,39.4839229 83.2987577,43.5160771 82.1037268,47.4588191 L82.0676849,47.5769068 L81.9943723,47.8119947 L81.9192379,48.0458089 L81.8420615,48.278561 L81.7626227,48.5104628 L81.6807013,48.7417259 C81.6668286,48.7802282 81.6528433,48.8187128 81.6387408,48.857184 L81.5526825,49.087886 L81.463591,49.3184785 C81.4333638,49.3953479 81.4025943,49.4722344 81.3712459,49.5491732 L81.2754269,49.7801817 C81.2266123,49.8957998 81.1764124,50.0116149 81.1247033,50.1277462 L81.0192362,50.3604657 C80.9475344,50.51594 80.8730027,50.6721176 80.7953475,50.8292806 L80.6764853,51.0657995 C80.6158462,51.1844637 80.5533675,51.3037617 80.4889253,51.4238124 L80.3573862,51.6649528 C80.1784123,51.9879056 79.9848884,52.316776 79.774465,52.6538218 L79.6134422,52.9081743 L79.4458617,53.1658043 C79.0185301,53.8141525 78.5276564,54.4952117 77.9577528,55.2238658 L77.7255397,55.5179011 L77.4846766,55.8172249 C77.3211688,56.018584 77.1517474,56.2236099 76.9761188,56.4325847 L76.7079837,56.7490441 C76.6625064,56.8022927 76.6166319,56.855797 76.5703557,56.9095613 L76.2878412,57.2353028 L75.9954651,57.5674972 C75.9459018,57.6234124 75.8959183,57.6796053 75.8455102,57.7360803 L75.5379287,58.0783506 L75.219935,58.4276029 L74.8913088,58.7840489 L74.5518297,59.1479001 C74.4943332,59.2091709 74.4363754,59.270759 74.3779516,59.3326689 L74.0217803,59.7080251 C73.9614743,59.7712398 73.9006931,59.8347851 73.8394322,59.8986654 L73.4660732,60.2860028 L73.0809803,60.6815922 L72.6839333,61.0856454 C72.6167503,61.1537047 72.5490602,61.2221254 72.4808581,61.2909121 L72.0654669,61.7080578 L61.7080578,72.0654669 L61.2909121,72.4808581 C61.2221254,72.5490602 61.1537047,72.6167503 61.0856454,72.6839333 L60.6815922,73.0809803 L60.2860028,73.4660732 L59.8986654,73.8394322 L59.5193684,74.2012776 C59.4568105,74.260638 59.3945788,74.3195278 59.3326689,74.3779516 L58.9650356,74.7229396 C58.9043952,74.7795179 58.8440678,74.8356394 58.7840489,74.8913088 L58.4276029,75.219935 L58.0783506,75.5379287 L57.7360803,75.8455102 L57.4005802,76.1428997 C57.3452159,76.1916275 57.2901249,76.2399398 57.2353028,76.2878412 L56.9095613,76.5703557 L56.5900607,76.8432289 C56.326352,77.0666672 56.0689238,77.2802919 55.8172249,77.4846766 L55.5179011,77.7255397 L55.2238658,77.9577528 C54.4952117,78.5276564 53.8141525,79.0185301 53.1658043,79.4458617 L52.9081743,79.6134422 L52.6538218,79.774465 C52.316776,79.9848884 51.9879056,80.1784123 51.6649528,80.3573862 L51.4238124,80.4889253 C51.3037617,80.5533675 51.1844637,80.6158462 51.0657995,80.6764853 L50.8292806,80.7953475 C50.6721176,80.8730027 50.51594,80.9475344 50.3604657,81.0192362 L50.1277462,81.1247033 C50.0116149,81.1764124 49.8957998,81.2266123 49.7801817,81.2754269 L49.5491732,81.3712459 L49.3184785,81.463591 L49.087886,81.5526825 L48.857184,81.6387408 L48.6261609,81.7219861 L48.394605,81.8026387 L48.1623045,81.8809187 L47.9290478,81.9570466 L47.6946232,82.0312425 L47.4588191,82.1037268 C43.5160771,83.2987577 39.4839229,83.2987577 35.5411809,82.1037268 L35.3053768,82.0312425 L35.0709522,81.9570466 L34.8376955,81.8809187 L34.605395,81.8026387 L34.3738391,81.7219861 L34.142816,81.6387408 L33.912114,81.5526825 L33.6815215,81.463591 C33.6046521,81.4333638 33.5277656,81.4025943 33.4508268,81.3712459 L33.2198183,81.2754269 C33.1427396,81.2428839 33.0655733,81.2097251 32.9882841,81.1759139 L32.7560127,81.0724866 C32.5620872,80.984605 32.3671731,80.8924165 32.1707194,80.7953475 L31.9342005,80.6764853 C31.7759815,80.5956331 31.6166359,80.5115106 31.4558816,80.423824 L31.2136581,80.2895844 C31.1730997,80.2667533 31.1324444,80.2436904 31.0916878,80.2203909 L30.8458976,80.0777191 C30.3929247,79.8108161 29.9266296,79.5141837 29.4411424,79.1817138 L29.1743926,78.9967758 C28.2786469,78.3682239 27.3159282,77.6175304 26.2509559,76.7079837 L25.9283613,76.4303174 L25.5994198,76.1428997 L25.2639197,75.8455102 L24.9216494,75.5379287 L24.5723971,75.219935 L24.2159511,74.8913088 L23.8520999,74.5518297 C23.7908291,74.4943332 23.729241,74.4363754 23.6673311,74.3779516 L23.2919749,74.0217803 C23.2287602,73.9614743 23.1652149,73.9006931 23.1013346,73.8394322 L22.7139972,73.4660732 L22.3184078,73.0809803 L21.9143546,72.6839333 C21.8462953,72.6167503 21.7778746,72.5490602 21.7090879,72.4808581 L21.2919422,72.0654669 L10.9345331,61.7080578 C10.7237296,61.4972543 10.5176155,61.2898232 10.3160667,61.0856454 L9.91901971,60.6815922 L9.53392683,60.2860028 L9.1605678,59.8986654 L8.79872238,59.5193684 C8.73936203,59.4568105 8.68047225,59.3945788 8.62204843,59.3326689 L8.2770604,58.9650356 C8.22048209,58.9043952 8.16436056,58.8440678 8.10869124,58.7840489 L7.780065,58.4276029 L7.46207128,58.0783506 L7.15448982,57.7360803 L6.85710035,57.4005802 L6.5696826,57.0716387 L6.2920163,56.7490441 C5.38246964,55.6840718 4.63177606,54.7213531 4.00322421,53.8256074 L3.81828619,53.5588576 C3.48581634,53.0733704 3.18918385,52.6070753 2.92228086,52.1541024 L2.77960908,51.9083122 C2.75630961,51.8675556 2.73324666,51.8269003 2.71041564,51.7863419 L2.576176,51.5441184 C2.48848941,51.3833641 2.40436688,51.2240185 2.32351472,51.0657995 L2.20465254,50.8292806 C2.10758353,50.6328269 2.01539502,50.4379128 1.9275134,50.2439873 L1.82408605,50.0117159 C1.80718047,49.9730713 1.79043799,49.9344574 1.77385402,49.8958699 L1.6762156,49.664625 C1.64427902,49.5876251 1.61293976,49.5106951 1.58216112,49.4337998 L1.49147032,49.2031827 L1.40392292,48.9725619 C1.3895814,48.9341131 1.37536168,48.8956553 1.36125917,48.857184 L1.27801389,48.6261609 L1.19736135,48.394605 L1.11908128,48.1623045 L1.04295341,47.9290478 L0.968757473,47.6946232 L0.896273206,47.4588191 C-0.298757735,43.5160771 -0.298757735,39.4839229 0.896273206,35.5411809 L0.968757473,35.3053768 L1.04295341,35.0709522 L1.11908128,34.8376955 L1.19736135,34.605395 L1.27801389,34.3738391 L1.36125917,34.142816 L1.44731746,33.912114 L1.53640902,33.6815215 L1.62875413,33.4508268 L1.72457305,33.2198183 C1.77338768,33.1042002 1.82358758,32.9883851 1.87529666,32.8722538 L1.98076378,32.6395343 C2.05246564,32.48406 2.12699733,32.3278824 2.20465254,32.1707194 L2.32351472,31.9342005 C2.38415384,31.8155363 2.44663254,31.6962383 2.51107473,31.5761876 L2.64261379,31.3350472 C2.82158775,31.0120944 3.01511163,30.683224 3.22553497,30.3461782 L3.38655784,30.0918257 L3.55413827,29.8341957 C3.98146986,29.1858475 4.47234364,28.5047883 5.0422472,27.7761342 L5.27446026,27.4820989 L5.51532343,27.1827751 C5.71970814,26.9310762 5.93333283,26.673648 6.15677111,26.4099393 L6.42964428,26.0904387 L6.71215877,25.7646972 L7.00453485,25.4325028 C7.05409824,25.3765876 7.1040817,25.3203947 7.15448982,25.2639197 L7.46207128,24.9216494 L7.780065,24.5723971 L8.10869124,24.2159511 L8.44817028,23.8520999 C8.50566676,23.7908291 8.56362461,23.729241 8.62204843,23.6673311 L8.97821966,23.2919749 C9.0385257,23.2287602 9.09930688,23.1652149 9.1605678,23.1013346 L9.53392683,22.7139972 L9.91901971,22.3184078 L10.3160667,21.9143546 C10.3832497,21.8462953 10.4509398,21.7778746 10.5191419,21.7090879 L10.9345331,21.2919422 L21.2919422,10.9345331 L21.7090879,10.5191419 C21.7778746,10.4509398 21.8462953,10.3832497 21.9143546,10.3160667 L22.3184078,9.91901971 L22.7139972,9.53392683 L23.1013346,9.1605678 L23.4806316,8.79872238 C23.5431895,8.73936203 23.6054212,8.68047225 23.6673311,8.62204843 L24.0349644,8.2770604 C24.0956048,8.22048209 24.1559322,8.16436056 24.2159511,8.10869124 L24.5723971,7.780065 L24.9216494,7.46207128 L25.2639197,7.15448982 L25.5994198,6.85710035 C25.6547841,6.80837253 25.7098751,6.7600602 25.7646972,6.71215877 L26.0904387,6.42964428 C26.144203,6.3833681 26.1977073,6.33749363 26.2509559,6.2920163 L26.5674153,6.02388118 C26.7763901,5.84825255 26.981416,5.6788312 27.1827751,5.51532343 L27.4820989,5.27446026 L27.7761342,5.0422472 C28.5047883,4.47234364 29.1858475,3.98146986 29.8341957,3.55413827 L30.0918257,3.38655784 L30.3461782,3.22553497 C30.683224,3.01511163 31.0120944,2.82158775 31.3350472,2.64261379 L31.5761876,2.51107473 C31.6962383,2.44663254 31.8155363,2.38415384 31.9342005,2.32351472 L32.1707194,2.20465254 C32.3278824,2.12699733 32.48406,2.05246564 32.6395343,1.98076378 L32.8722538,1.87529666 C32.9883851,1.82358758 33.1042002,1.77338768 33.2198183,1.72457305 L33.4508268,1.62875413 C33.4892962,1.61307991 33.5277526,1.59755044 33.5662002,1.58216112 L33.7968173,1.49147032 L34.0274381,1.40392292 C34.0658869,1.3895814 34.1043447,1.37536168 34.142816,1.36125917 L34.3738391,1.27801389 L34.605395,1.19736135 L34.8376955,1.11908128 C34.876486,1.10622007 34.9153164,1.09344853 34.9541911,1.08076208 L35.1880053,1.00562771 L35.4230932,0.932315148 C35.4623924,0.920235966 35.5017535,0.908223515 35.5411809,0.896273206 C39.4839229,-0.298757735 43.5160771,-0.298757735 47.4588191,0.896273206 L47.6946232,0.968757473 L47.9290478,1.04295341 L48.1623045,1.11908128 L48.394605,1.19736135 L48.6261609,1.27801389 C48.6647033,1.29166592 48.7032235,1.30542599 48.7417259,1.31929867 L48.9725619,1.40392292 C49.0110108,1.41826444 49.0494507,1.43272776 49.087886,1.44731746 L49.3184785,1.53640902 L49.5491732,1.62875413 L49.7801817,1.72457305 C49.8957998,1.77338768 50.0116149,1.82358758 50.1277462,1.87529666 L50.3604657,1.98076378 C50.51594,2.05246564 50.6721176,2.12699733 50.8292806,2.20465254 L51.0657995,2.32351472 C51.1844637,2.38415384 51.3037617,2.44663254 51.4238124,2.51107473 L51.6649528,2.64261379 C51.8264292,2.73210077 51.989385,2.82522523 52.1541024,2.92228086 L52.402535,3.0708494 L52.6538218,3.22553497 L52.9081743,3.38655784 C52.9508336,3.41393533 52.9936295,3.44158605 53.0365664,3.46951459 L53.2959145,3.64045641 C53.9051719,4.04727094 54.5437886,4.51033721 55.2238658,5.0422472 L55.5179011,5.27446026 C55.7651047,5.47154476 56.0178171,5.6776398 56.2765896,5.89331898 L56.5900607,6.15677111 L56.9095613,6.42964428 L57.2353028,6.71215877 L57.5674972,7.00453485 L57.9063559,7.30699279 C57.9633995,7.35825483 58.0207296,7.40994614 58.0783506,7.46207128 L58.4276029,7.780065 L58.7840489,8.10869124 L59.1479001,8.44817028 C59.2091709,8.50566676 59.270759,8.56362461 59.3326689,8.62204843 L59.7080251,8.97821966 C59.7712398,9.0385257 59.8347851,9.09930688 59.8986654,9.1605678 L60.2860028,9.53392683 C60.4164788,9.66032324 60.5483302,9.7886753 60.6815922,9.91901971 L61.0856454,10.3160667 C61.1537047,10.3832497 61.2221254,10.4509398 61.2909121,10.5191419 L61.7080578,10.9345331 L72.0654669,21.2919422 Z M53.3132236,19.036742 L52.8824688,18.609424 L52.4643167,18.1987987 L52.0585241,17.8045834 L51.6648478,17.4264952 L51.409008,17.1832564 L51.0349849,16.8314187 L50.7920221,16.6054183 L50.4369765,16.2790454 L50.2064402,16.0697599 L49.8696965,15.7680666 L49.6511363,15.5749722 L49.4372403,15.3882077 L49.2279365,15.2076893 L49.0231529,15.0333333 L48.8228174,14.8650558 L48.6268579,14.702773 L48.340966,14.4704058 L48.1556312,14.3227434 L47.9744202,14.1807825 L47.7972608,14.0444394 L47.6240811,13.9136304 C47.5955455,13.8922853 47.5671726,13.8711674 47.5389611,13.8502749 L47.3716157,13.7276097 L47.2080697,13.610269 L47.0482512,13.4981691 L46.8920879,13.3912262 C45.8990355,12.7196319 45.2217456,12.4072786 44.0752044,12.0597661 C42.3386495,11.5334225 40.6613505,11.5334225 38.9247956,12.0597661 C37.826027,12.3927989 37.15822,12.6935414 36.2304559,13.3091195 L36.0302829,13.4440583 L35.872301,13.5535692 C35.845665,13.5722519 35.8188753,13.5911513 35.7919303,13.610269 L35.6283843,13.7276097 L35.3759189,13.9136304 L35.1146615,14.111914 L34.9354853,14.2510555 L34.7522214,14.3958566 L34.4695034,14.6238535 L34.2757049,14.7831703 L34.0775664,14.9484399 L33.8750158,15.1197463 L33.6679811,15.297173 L33.4563903,15.480804 L33.2401711,15.6707229 L32.9070068,15.9675746 L32.6789017,16.17358 L32.4459161,16.3861667 L32.2079779,16.6054183 L31.9650151,16.8314187 L31.7169556,17.0642516 L31.3351522,17.4264952 L30.9414759,17.8045834 L30.6723088,18.0655842 L30.2583035,18.4707081 L29.8317766,18.8924304 L29.5403488,19.1829396 L19.036627,29.6866614 L18.7499946,29.9753586 L18.3338365,30.3976846 L18.0655842,30.6723088 L17.676776,31.0740356 L17.4264952,31.3351522 L17.0642516,31.7169556 L16.8314187,31.9650151 L16.6054183,32.2079779 L16.3861667,32.4459161 L16.0697599,32.7935598 L15.7680666,33.1303035 L15.480804,33.4563903 L15.297173,33.6679811 L15.1197463,33.8750158 L14.9484399,34.0775664 L14.702773,34.3731421 L14.4704058,34.659034 L14.3227434,34.8443688 L14.1807825,35.0255798 C14.1575929,35.055442 14.1346373,35.0851354 14.111914,35.1146615 L13.9783484,35.289822 C13.9565475,35.3186848 13.9349754,35.3473832 13.9136304,35.3759189 L13.7882715,35.545191 C13.7678278,35.5730814 13.7476078,35.600812 13.7276097,35.6283843 L13.610269,35.7919303 L13.4440583,36.0302829 L13.3912262,36.1079121 C12.7196319,37.1009645 12.4072786,37.7782544 12.0597661,38.9247956 C11.5334225,40.6613505 11.5334225,42.3386495 12.0597661,44.0752044 C12.3927989,45.173973 12.6935414,45.84178 13.3091195,46.7695441 L13.4440583,46.9697171 L13.5535692,47.127699 L13.668279,47.2893723 L13.7882715,47.454809 L13.9136304,47.6240811 L14.111914,47.8853385 L14.2510555,48.0645147 L14.3958566,48.2477786 L14.5464012,48.4352023 L14.7831703,48.7242951 L14.9484399,48.9224336 L15.1197463,49.1249842 L15.297173,49.3320189 L15.480804,49.5436097 L15.6707229,49.7598289 L15.8670136,49.9807483 L16.17358,50.3210983 L16.3861667,50.5540839 L16.6054183,50.7920221 L16.8314187,51.0349849 L17.1832564,51.409008 L17.4264952,51.6648478 L17.8045834,52.0585241 L18.0655842,52.3276912 L18.4707081,52.7416965 L18.8924304,53.1682234 L19.1829396,53.4596512 L29.6866614,63.963373 L29.9753586,64.2500054 L30.3976846,64.6661635 L30.6723088,64.9344158 L31.0740356,65.323224 L31.3351522,65.5735048 L31.7169556,65.9357484 L31.9650151,66.1685813 L32.2079779,66.3945817 L32.4459161,66.6138333 L32.6789017,66.82642 L32.9070068,67.0324254 L33.1303035,67.2319334 L33.4563903,67.519196 L33.6679811,67.702827 L33.8750158,67.8802537 L34.0775664,68.0515601 L34.2757049,68.2168297 L34.4695034,68.3761465 L34.7522214,68.6041434 L34.9354853,68.7489445 L35.1146615,68.888086 L35.289822,69.0216516 C35.3186848,69.0434525 35.3473832,69.0650246 35.3759189,69.0863696 L35.545191,69.2117285 L35.7106277,69.331721 L35.872301,69.4464308 L36.0302829,69.5559417 L36.1079121,69.6087738 C37.1009645,70.2803681 37.7782544,70.5927214 38.9247956,70.9402339 C40.6613505,71.4665775 42.3386495,71.4665775 44.0752044,70.9402339 C45.173973,70.6072011 45.84178,70.3064586 46.7695441,69.6908805 L46.9697171,69.5559417 L47.127699,69.4464308 C47.154335,69.4277481 47.1811247,69.4088487 47.2080697,69.389731 L47.3716157,69.2723903 L47.6240811,69.0863696 L47.8853385,68.888086 L48.0645147,68.7489445 L48.2477786,68.6041434 L48.4352023,68.4535988 L48.6268579,68.297227 L48.9224336,68.0515601 L49.1249842,67.8802537 L49.3320189,67.702827 L49.5436097,67.519196 L49.7598289,67.3292771 L49.9807483,67.1329864 L50.2064402,66.9302401 L50.5540839,66.6138333 L50.7920221,66.3945817 L51.0349849,66.1685813 L51.2830444,65.9357484 L51.6648478,65.5735048 L52.0585241,65.1954166 L52.3276912,64.9344158 L52.7416965,64.5292919 L53.1682234,64.1075696 L53.4596512,63.8170604 L63.963373,53.3133386 L64.2500054,53.0246414 L64.6661635,52.6023154 L64.9344158,52.3276912 L65.323224,51.9259644 L65.5735048,51.6648478 L65.9357484,51.2830444 L66.1685813,51.0349849 L66.3945817,50.7920221 L66.6138333,50.5540839 L66.9302401,50.2064402 L67.2319334,49.8696965 L67.519196,49.5436097 L67.702827,49.3320189 L67.8802537,49.1249842 L68.0515601,48.9224336 L68.297227,48.6268579 L68.5295942,48.340966 L68.6772566,48.1556312 L68.8192175,47.9744202 C68.8424071,47.944558 68.8653627,47.9148646 68.888086,47.8853385 L69.0216516,47.710178 C69.0434525,47.6813152 69.0650246,47.6526168 69.0863696,47.6240811 L69.2117285,47.454809 C69.2321722,47.4269186 69.2523922,47.399188 69.2723903,47.3716157 L69.389731,47.2080697 L69.5559417,46.9697171 L69.6087738,46.8920879 C70.2803681,45.8990355 70.5927214,45.2217456 70.9402339,44.0752044 C71.4665775,42.3386495 71.4665775,40.6613505 70.9402339,38.9247956 C70.6072011,37.826027 70.3064586,37.15822 69.6908805,36.2304559 L69.6087738,36.1079121 C69.5739763,36.0564589 69.5383334,36.0044085 69.5018309,35.9517488 L69.389731,35.7919303 L69.2723903,35.6283843 L69.1497251,35.4610389 L68.9555606,35.2027392 L68.8192175,35.0255798 L68.6772566,34.8443688 L68.5295942,34.659034 L68.297227,34.3731421 L68.1349442,34.1771826 L67.9666667,33.9768471 L67.7923107,33.7720635 L67.6117923,33.5627597 L67.4250278,33.3488637 L67.2319334,33.1303035 L67.0324254,32.9070068 L66.7209546,32.5630235 L66.3945817,32.2079779 L66.1685813,31.9650151 L65.9357484,31.7169556 L65.5735048,31.3351522 L65.323224,31.0740356 L64.9344158,30.6723088 L64.5292919,30.2583035 L64.1075696,29.8317766 C64.0599704,29.7834887 64.0117523,29.7352706 63.963258,29.6867764 L53.3132236,19.036742 Z" id="Rectangle-Copy-6"></path>
            <path d="M181.065467,21.2919422 L181.480858,21.7090879 C181.54906,21.7778746 181.61675,21.8462953 181.683933,21.9143546 L182.08098,22.3184078 C182.146152,22.3850388 182.210827,22.4513171 182.275007,22.5172472 L182.654206,22.9086842 C182.716431,22.9732389 182.778171,23.0374543 182.839432,23.1013346 L183.201278,23.4806316 C183.260638,23.5431895 183.319528,23.6054212 183.377952,23.6673311 L183.72294,24.0349644 C183.779518,24.0956048 183.835639,24.1559322 183.891309,24.2159511 L184.219935,24.5723971 L184.537929,24.9216494 C184.590054,24.9792704 184.641745,25.0366005 184.693007,25.0936441 L184.995465,25.4325028 L185.287841,25.7646972 L185.570356,26.0904387 L185.843229,26.4099393 L186.106681,26.7234104 C186.32236,26.9821829 186.528455,27.2348953 186.72554,27.4820989 L186.957753,27.7761342 C187.489663,28.4562114 187.952729,29.0948281 188.359544,29.7040855 L188.530485,29.9634336 C188.558414,30.0063705 188.586065,30.0491664 188.613442,30.0918257 L188.774465,30.3461782 L188.929151,30.597465 L189.077719,30.8458976 C189.174775,31.010615 189.267899,31.1735708 189.357386,31.3350472 L189.488925,31.5761876 C189.553367,31.6962383 189.615846,31.8155363 189.676485,31.9342005 L189.795347,32.1707194 C189.873003,32.3278824 189.947534,32.48406 190.019236,32.6395343 L190.124703,32.8722538 C190.176412,32.9883851 190.226612,33.1042002 190.275427,33.2198183 L190.371246,33.4508268 L190.463591,33.6815215 L190.552683,33.912114 L190.638741,34.142816 C190.652843,34.1812872 190.666829,34.2197718 190.680701,34.2582741 L190.762623,34.4895372 L190.842061,34.721439 L190.919238,34.9541911 L190.994372,35.1880053 L191.067685,35.4230932 C191.079764,35.4623924 191.091776,35.5017535 191.103727,35.5411809 C192.298758,39.4839229 192.298758,43.5160771 191.103727,47.4588191 L191.067685,47.5769068 L190.994372,47.8119947 L190.919238,48.0458089 L190.842061,48.278561 L190.762623,48.5104628 L190.680701,48.7417259 C190.666829,48.7802282 190.652843,48.8187128 190.638741,48.857184 L190.552683,49.087886 L190.463591,49.3184785 C190.433364,49.3953479 190.402594,49.4722344 190.371246,49.5491732 L190.275427,49.7801817 C190.226612,49.8957998 190.176412,50.0116149 190.124703,50.1277462 L190.019236,50.3604657 C189.947534,50.51594 189.873003,50.6721176 189.795347,50.8292806 L189.676485,51.0657995 C189.615846,51.1844637 189.553367,51.3037617 189.488925,51.4238124 L189.357386,51.6649528 C189.178412,51.9879056 188.984888,52.316776 188.774465,52.6538218 L188.613442,52.9081743 L188.445862,53.1658043 C188.01853,53.8141525 187.527656,54.4952117 186.957753,55.2238658 L186.72554,55.5179011 L186.484677,55.8172249 C186.321169,56.018584 186.151747,56.2236099 185.976119,56.4325847 L185.707984,56.7490441 C185.662506,56.8022927 185.616632,56.855797 185.570356,56.9095613 L185.287841,57.2353028 L184.995465,57.5674972 C184.945902,57.6234124 184.895918,57.6796053 184.84551,57.7360803 L184.537929,58.0783506 L184.219935,58.4276029 L183.891309,58.7840489 L183.55183,59.1479001 C183.494333,59.2091709 183.436375,59.270759 183.377952,59.3326689 L183.02178,59.7080251 C182.961474,59.7712398 182.900693,59.8347851 182.839432,59.8986654 L182.466073,60.2860028 L182.08098,60.6815922 L181.683933,61.0856454 C181.61675,61.1537047 181.54906,61.2221254 181.480858,61.2909121 L181.065467,61.7080578 L170.708058,72.0654669 L170.290912,72.4808581 C170.222125,72.5490602 170.153705,72.6167503 170.085645,72.6839333 L169.681592,73.0809803 L169.286003,73.4660732 L168.898665,73.8394322 L168.519368,74.2012776 C168.456811,74.260638 168.394579,74.3195278 168.332669,74.3779516 L167.965036,74.7229396 C167.904395,74.7795179 167.844068,74.8356394 167.784049,74.8913088 L167.427603,75.219935 L167.078351,75.5379287 L166.73608,75.8455102 L166.40058,76.1428997 C166.345216,76.1916275 166.290125,76.2399398 166.235303,76.2878412 L165.909561,76.5703557 L165.590061,76.8432289 C165.326352,77.0666672 165.068924,77.2802919 164.817225,77.4846766 L164.517901,77.7255397 L164.223866,77.9577528 C163.495212,78.5276564 162.814153,79.0185301 162.165804,79.4458617 L161.908174,79.6134422 L161.653822,79.774465 C161.316776,79.9848884 160.987906,80.1784123 160.664953,80.3573862 L160.423812,80.4889253 C160.303762,80.5533675 160.184464,80.6158462 160.065799,80.6764853 L159.829281,80.7953475 C159.672118,80.8730027 159.51594,80.9475344 159.360466,81.0192362 L159.127746,81.1247033 C159.011615,81.1764124 158.8958,81.2266123 158.780182,81.2754269 L158.549173,81.3712459 L158.318478,81.463591 L158.087886,81.5526825 L157.857184,81.6387408 L157.626161,81.7219861 L157.394605,81.8026387 L157.162305,81.8809187 L156.929048,81.9570466 L156.694623,82.0312425 L156.458819,82.1037268 C152.516077,83.2987577 148.483923,83.2987577 144.541181,82.1037268 L144.305377,82.0312425 L144.070952,81.9570466 L143.837695,81.8809187 L143.605395,81.8026387 L143.373839,81.7219861 L143.142816,81.6387408 L142.912114,81.5526825 L142.681522,81.463591 C142.604652,81.4333638 142.527766,81.4025943 142.450827,81.3712459 L142.219818,81.2754269 C142.14274,81.2428839 142.065573,81.2097251 141.988284,81.1759139 L141.756013,81.0724866 C141.562087,80.984605 141.367173,80.8924165 141.170719,80.7953475 L140.934201,80.6764853 C140.775982,80.5956331 140.616636,80.5115106 140.455882,80.423824 L140.213658,80.2895844 C140.1731,80.2667533 140.132444,80.2436904 140.091688,80.2203909 L139.845898,80.0777191 C139.392925,79.8108161 138.92663,79.5141837 138.441142,79.1817138 L138.174393,78.9967758 C137.278647,78.3682239 136.315928,77.6175304 135.250956,76.7079837 L134.928361,76.4303174 L134.59942,76.1428997 L134.26392,75.8455102 L133.921649,75.5379287 L133.572397,75.219935 L133.215951,74.8913088 L132.8521,74.5518297 C132.790829,74.4943332 132.729241,74.4363754 132.667331,74.3779516 L132.291975,74.0217803 C132.22876,73.9614743 132.165215,73.9006931 132.101335,73.8394322 L131.713997,73.4660732 L131.318408,73.0809803 L130.914355,72.6839333 C130.846295,72.6167503 130.777875,72.5490602 130.709088,72.4808581 L130.291942,72.0654669 L119.934533,61.7080578 C119.72373,61.4972543 119.517615,61.2898232 119.316067,61.0856454 L118.91902,60.6815922 L118.533927,60.2860028 L118.160568,59.8986654 L117.798722,59.5193684 C117.739362,59.4568105 117.680472,59.3945788 117.622048,59.3326689 L117.27706,58.9650356 C117.220482,58.9043952 117.164361,58.8440678 117.108691,58.7840489 L116.780065,58.4276029 L116.462071,58.0783506 L116.15449,57.7360803 L115.8571,57.4005802 L115.569683,57.0716387 L115.292016,56.7490441 C114.38247,55.6840718 113.631776,54.7213531 113.003224,53.8256074 L112.818286,53.5588576 C112.485816,53.0733704 112.189184,52.6070753 111.922281,52.1541024 L111.779609,51.9083122 C111.75631,51.8675556 111.733247,51.8269003 111.710416,51.7863419 L111.576176,51.5441184 C111.488489,51.3833641 111.404367,51.2240185 111.323515,51.0657995 L111.204653,50.8292806 C111.107584,50.6328269 111.015395,50.4379128 110.927513,50.2439873 L110.824086,50.0117159 C110.80718,49.9730713 110.790438,49.9344574 110.773854,49.8958699 L110.676216,49.664625 C110.644279,49.5876251 110.61294,49.5106951 110.582161,49.4337998 L110.49147,49.2031827 L110.403923,48.9725619 C110.389581,48.9341131 110.375362,48.8956553 110.361259,48.857184 L110.278014,48.6261609 L110.197361,48.394605 L110.119081,48.1623045 L110.042953,47.9290478 L109.968757,47.6946232 L109.896273,47.4588191 C108.701242,43.5160771 108.701242,39.4839229 109.896273,35.5411809 L109.968757,35.3053768 L110.042953,35.0709522 L110.119081,34.8376955 L110.197361,34.605395 L110.278014,34.3738391 L110.361259,34.142816 L110.447317,33.912114 L110.536409,33.6815215 L110.628754,33.4508268 L110.724573,33.2198183 C110.773388,33.1042002 110.823588,32.9883851 110.875297,32.8722538 L110.980764,32.6395343 C111.052466,32.48406 111.126997,32.3278824 111.204653,32.1707194 L111.323515,31.9342005 C111.384154,31.8155363 111.446633,31.6962383 111.511075,31.5761876 L111.642614,31.3350472 C111.821588,31.0120944 112.015112,30.683224 112.225535,30.3461782 L112.386558,30.0918257 L112.554138,29.8341957 C112.98147,29.1858475 113.472344,28.5047883 114.042247,27.7761342 L114.27446,27.4820989 L114.515323,27.1827751 C114.719708,26.9310762 114.933333,26.673648 115.156771,26.4099393 L115.429644,26.0904387 L115.712159,25.7646972 L116.004535,25.4325028 C116.054098,25.3765876 116.104082,25.3203947 116.15449,25.2639197 L116.462071,24.9216494 L116.780065,24.5723971 L117.108691,24.2159511 L117.44817,23.8520999 C117.505667,23.7908291 117.563625,23.729241 117.622048,23.6673311 L117.97822,23.2919749 C118.038526,23.2287602 118.099307,23.1652149 118.160568,23.1013346 L118.533927,22.7139972 L118.91902,22.3184078 L119.316067,21.9143546 C119.38325,21.8462953 119.45094,21.7778746 119.519142,21.7090879 L119.934533,21.2919422 L130.291942,10.9345331 L130.709088,10.5191419 C130.777875,10.4509398 130.846295,10.3832497 130.914355,10.3160667 L131.318408,9.91901971 L131.713997,9.53392683 L132.101335,9.1605678 L132.480632,8.79872238 C132.543189,8.73936203 132.605421,8.68047225 132.667331,8.62204843 L133.034964,8.2770604 C133.095605,8.22048209 133.155932,8.16436056 133.215951,8.10869124 L133.572397,7.780065 L133.921649,7.46207128 L134.26392,7.15448982 L134.59942,6.85710035 C134.654784,6.80837253 134.709875,6.7600602 134.764697,6.71215877 L135.090439,6.42964428 C135.144203,6.3833681 135.197707,6.33749363 135.250956,6.2920163 L135.567415,6.02388118 C135.77639,5.84825255 135.981416,5.6788312 136.182775,5.51532343 L136.482099,5.27446026 L136.776134,5.0422472 C137.504788,4.47234364 138.185847,3.98146986 138.834196,3.55413827 L139.091826,3.38655784 L139.346178,3.22553497 C139.683224,3.01511163 140.012094,2.82158775 140.335047,2.64261379 L140.576188,2.51107473 C140.696238,2.44663254 140.815536,2.38415384 140.934201,2.32351472 L141.170719,2.20465254 C141.327882,2.12699733 141.48406,2.05246564 141.639534,1.98076378 L141.872254,1.87529666 C141.988385,1.82358758 142.1042,1.77338768 142.219818,1.72457305 L142.450827,1.62875413 C142.489296,1.61307991 142.527753,1.59755044 142.5662,1.58216112 L142.796817,1.49147032 L143.027438,1.40392292 C143.065887,1.3895814 143.104345,1.37536168 143.142816,1.36125917 L143.373839,1.27801389 L143.605395,1.19736135 L143.837695,1.11908128 C143.876486,1.10622007 143.915316,1.09344853 143.954191,1.08076208 L144.188005,1.00562771 L144.423093,0.932315148 C144.462392,0.920235966 144.501754,0.908223515 144.541181,0.896273206 C148.483923,-0.298757735 152.516077,-0.298757735 156.458819,0.896273206 L156.694623,0.968757473 L156.929048,1.04295341 L157.162305,1.11908128 L157.394605,1.19736135 L157.626161,1.27801389 C157.664703,1.29166592 157.703223,1.30542599 157.741726,1.31929867 L157.972562,1.40392292 C158.011011,1.41826444 158.049451,1.43272776 158.087886,1.44731746 L158.318478,1.53640902 L158.549173,1.62875413 L158.780182,1.72457305 C158.8958,1.77338768 159.011615,1.82358758 159.127746,1.87529666 L159.360466,1.98076378 C159.51594,2.05246564 159.672118,2.12699733 159.829281,2.20465254 L160.065799,2.32351472 C160.184464,2.38415384 160.303762,2.44663254 160.423812,2.51107473 L160.664953,2.64261379 C160.826429,2.73210077 160.989385,2.82522523 161.154102,2.92228086 L161.402535,3.0708494 L161.653822,3.22553497 L161.908174,3.38655784 C161.950834,3.41393533 161.993629,3.44158605 162.036566,3.46951459 L162.295914,3.64045641 C162.905172,4.04727094 163.543789,4.51033721 164.223866,5.0422472 L164.517901,5.27446026 C164.765105,5.47154476 165.017817,5.6776398 165.27659,5.89331898 L165.590061,6.15677111 L165.909561,6.42964428 L166.235303,6.71215877 L166.567497,7.00453485 L166.906356,7.30699279 C166.9634,7.35825483 167.02073,7.40994614 167.078351,7.46207128 L167.427603,7.780065 L167.784049,8.10869124 L168.1479,8.44817028 C168.209171,8.50566676 168.270759,8.56362461 168.332669,8.62204843 L168.708025,8.97821966 C168.77124,9.0385257 168.834785,9.09930688 168.898665,9.1605678 L169.286003,9.53392683 C169.416479,9.66032324 169.54833,9.7886753 169.681592,9.91901971 L170.085645,10.3160667 C170.153705,10.3832497 170.222125,10.4509398 170.290912,10.5191419 L170.708058,10.9345331 L181.065467,21.2919422 Z M162.313224,19.036742 L161.882469,18.609424 L161.464317,18.1987987 L161.058524,17.8045834 L160.664848,17.4264952 L160.409008,17.1832564 L160.034985,16.8314187 L159.792022,16.6054183 L159.436977,16.2790454 L159.20644,16.0697599 L158.869697,15.7680666 L158.651136,15.5749722 L158.43724,15.3882077 L158.227937,15.2076893 L158.023153,15.0333333 L157.822817,14.8650558 L157.626858,14.702773 L157.340966,14.4704058 L157.155631,14.3227434 L156.97442,14.1807825 L156.797261,14.0444394 L156.624081,13.9136304 C156.595545,13.8922853 156.567173,13.8711674 156.538961,13.8502749 L156.371616,13.7276097 L156.20807,13.610269 L156.048251,13.4981691 L155.892088,13.3912262 C154.899035,12.7196319 154.221746,12.4072786 153.075204,12.0597661 C151.33865,11.5334225 149.66135,11.5334225 147.924796,12.0597661 C146.826027,12.3927989 146.15822,12.6935414 145.230456,13.3091195 L145.030283,13.4440583 L144.872301,13.5535692 C144.845665,13.5722519 144.818875,13.5911513 144.79193,13.610269 L144.628384,13.7276097 L144.375919,13.9136304 L144.114661,14.111914 L143.935485,14.2510555 L143.752221,14.3958566 L143.469503,14.6238535 L143.275705,14.7831703 L143.077566,14.9484399 L142.875016,15.1197463 L142.667981,15.297173 L142.45639,15.480804 L142.240171,15.6707229 L141.907007,15.9675746 L141.678902,16.17358 L141.445916,16.3861667 L141.207978,16.6054183 L140.965015,16.8314187 L140.716956,17.0642516 L140.335152,17.4264952 L139.941476,17.8045834 L139.672309,18.0655842 L139.258304,18.4707081 L138.831777,18.8924304 L138.540349,19.1829396 L128.036627,29.6866614 L127.749995,29.9753586 L127.333836,30.3976846 L127.065584,30.6723088 L126.676776,31.0740356 L126.426495,31.3351522 L126.064252,31.7169556 L125.831419,31.9650151 L125.605418,32.2079779 L125.386167,32.4459161 L125.06976,32.7935598 L124.768067,33.1303035 L124.480804,33.4563903 L124.297173,33.6679811 L124.119746,33.8750158 L123.94844,34.0775664 L123.702773,34.3731421 L123.470406,34.659034 L123.322743,34.8443688 L123.180783,35.0255798 C123.157593,35.055442 123.134637,35.0851354 123.111914,35.1146615 L122.978348,35.289822 C122.956547,35.3186848 122.934975,35.3473832 122.91363,35.3759189 L122.788271,35.545191 C122.767828,35.5730814 122.747608,35.600812 122.72761,35.6283843 L122.610269,35.7919303 L122.444058,36.0302829 L122.391226,36.1079121 C121.719632,37.1009645 121.407279,37.7782544 121.059766,38.9247956 C120.533422,40.6613505 120.533422,42.3386495 121.059766,44.0752044 C121.392799,45.173973 121.693541,45.84178 122.309119,46.7695441 L122.444058,46.9697171 L122.553569,47.127699 L122.668279,47.2893723 L122.788271,47.454809 L122.91363,47.6240811 L123.111914,47.8853385 L123.251055,48.0645147 L123.395857,48.2477786 L123.546401,48.4352023 L123.78317,48.7242951 L123.94844,48.9224336 L124.119746,49.1249842 L124.297173,49.3320189 L124.480804,49.5436097 L124.670723,49.7598289 L124.867014,49.9807483 L125.17358,50.3210983 L125.386167,50.5540839 L125.605418,50.7920221 L125.831419,51.0349849 L126.183256,51.409008 L126.426495,51.6648478 L126.804583,52.0585241 L127.065584,52.3276912 L127.470708,52.7416965 L127.89243,53.1682234 L128.18294,53.4596512 L138.686661,63.963373 L138.975359,64.2500054 L139.397685,64.6661635 L139.672309,64.9344158 L140.074036,65.323224 L140.335152,65.5735048 L140.716956,65.9357484 L140.965015,66.1685813 L141.207978,66.3945817 L141.445916,66.6138333 L141.678902,66.82642 L141.907007,67.0324254 L142.130303,67.2319334 L142.45639,67.519196 L142.667981,67.702827 L142.875016,67.8802537 L143.077566,68.0515601 L143.275705,68.2168297 L143.469503,68.3761465 L143.752221,68.6041434 L143.935485,68.7489445 L144.114661,68.888086 L144.289822,69.0216516 C144.318685,69.0434525 144.347383,69.0650246 144.375919,69.0863696 L144.545191,69.2117285 L144.710628,69.331721 L144.872301,69.4464308 L145.030283,69.5559417 L145.107912,69.6087738 C146.100965,70.2803681 146.778254,70.5927214 147.924796,70.9402339 C149.66135,71.4665775 151.33865,71.4665775 153.075204,70.9402339 C154.173973,70.6072011 154.84178,70.3064586 155.769544,69.6908805 L155.969717,69.5559417 L156.127699,69.4464308 C156.154335,69.4277481 156.181125,69.4088487 156.20807,69.389731 L156.371616,69.2723903 L156.624081,69.0863696 L156.885339,68.888086 L157.064515,68.7489445 L157.247779,68.6041434 L157.435202,68.4535988 L157.626858,68.297227 L157.922434,68.0515601 L158.124984,67.8802537 L158.332019,67.702827 L158.54361,67.519196 L158.759829,67.3292771 L158.980748,67.1329864 L159.20644,66.9302401 L159.554084,66.6138333 L159.792022,66.3945817 L160.034985,66.1685813 L160.283044,65.9357484 L160.664848,65.5735048 L161.058524,65.1954166 L161.327691,64.9344158 L161.741696,64.5292919 L162.168223,64.1075696 L162.459651,63.8170604 L172.963373,53.3133386 L173.250005,53.0246414 L173.666164,52.6023154 L173.934416,52.3276912 L174.323224,51.9259644 L174.573505,51.6648478 L174.935748,51.2830444 L175.168581,51.0349849 L175.394582,50.7920221 L175.613833,50.5540839 L175.93024,50.2064402 L176.231933,49.8696965 L176.519196,49.5436097 L176.702827,49.3320189 L176.880254,49.1249842 L177.05156,48.9224336 L177.297227,48.6268579 L177.529594,48.340966 L177.677257,48.1556312 L177.819217,47.9744202 C177.842407,47.944558 177.865363,47.9148646 177.888086,47.8853385 L178.021652,47.710178 C178.043453,47.6813152 178.065025,47.6526168 178.08637,47.6240811 L178.211729,47.454809 C178.232172,47.4269186 178.252392,47.399188 178.27239,47.3716157 L178.389731,47.2080697 L178.555942,46.9697171 L178.608774,46.8920879 C179.280368,45.8990355 179.592721,45.2217456 179.940234,44.0752044 C180.466578,42.3386495 180.466578,40.6613505 179.940234,38.9247956 C179.607201,37.826027 179.306459,37.15822 178.690881,36.2304559 L178.608774,36.1079121 C178.573976,36.0564589 178.538333,36.0044085 178.501831,35.9517488 L178.389731,35.7919303 L178.27239,35.6283843 L178.149725,35.4610389 L177.955561,35.2027392 L177.819217,35.0255798 L177.677257,34.8443688 L177.529594,34.659034 L177.297227,34.3731421 L177.134944,34.1771826 L176.966667,33.9768471 L176.792311,33.7720635 L176.611792,33.5627597 L176.425028,33.3488637 L176.231933,33.1303035 L176.032425,32.9070068 L175.720955,32.5630235 L175.394582,32.2079779 L175.168581,31.9650151 L174.935748,31.7169556 L174.573505,31.3351522 L174.323224,31.0740356 L173.934416,30.6723088 L173.529292,30.2583035 L173.10757,29.8317766 C173.05997,29.7834887 173.011752,29.7352706 172.963258,29.6867764 L162.313224,19.036742 Z" id="Rectangle-Copy-7"></path>
            <path d="M181.065467,130.291942 L181.480858,130.709088 C181.54906,130.777875 181.61675,130.846295 181.683933,130.914355 L182.08098,131.318408 C182.146152,131.385039 182.210827,131.451317 182.275007,131.517247 L182.654206,131.908684 C182.716431,131.973239 182.778171,132.037454 182.839432,132.101335 L183.201278,132.480632 C183.260638,132.543189 183.319528,132.605421 183.377952,132.667331 L183.72294,133.034964 C183.779518,133.095605 183.835639,133.155932 183.891309,133.215951 L184.219935,133.572397 L184.537929,133.921649 C184.590054,133.97927 184.641745,134.0366 184.693007,134.093644 L184.995465,134.432503 L185.287841,134.764697 L185.570356,135.090439 L185.843229,135.409939 L186.106681,135.72341 C186.32236,135.982183 186.528455,136.234895 186.72554,136.482099 L186.957753,136.776134 C187.489663,137.456211 187.952729,138.094828 188.359544,138.704086 L188.530485,138.963434 C188.558414,139.006371 188.586065,139.049166 188.613442,139.091826 L188.774465,139.346178 L188.929151,139.597465 L189.077719,139.845898 C189.174775,140.010615 189.267899,140.173571 189.357386,140.335047 L189.488925,140.576188 C189.553367,140.696238 189.615846,140.815536 189.676485,140.934201 L189.795347,141.170719 C189.873003,141.327882 189.947534,141.48406 190.019236,141.639534 L190.124703,141.872254 C190.176412,141.988385 190.226612,142.1042 190.275427,142.219818 L190.371246,142.450827 L190.463591,142.681522 L190.552683,142.912114 L190.638741,143.142816 C190.652843,143.181287 190.666829,143.219772 190.680701,143.258274 L190.762623,143.489537 L190.842061,143.721439 L190.919238,143.954191 L190.994372,144.188005 L191.067685,144.423093 C191.079764,144.462392 191.091776,144.501754 191.103727,144.541181 C192.298758,148.483923 192.298758,152.516077 191.103727,156.458819 L191.067685,156.576907 L190.994372,156.811995 L190.919238,157.045809 L190.842061,157.278561 L190.762623,157.510463 L190.680701,157.741726 C190.666829,157.780228 190.652843,157.818713 190.638741,157.857184 L190.552683,158.087886 L190.463591,158.318478 C190.433364,158.395348 190.402594,158.472234 190.371246,158.549173 L190.275427,158.780182 C190.226612,158.8958 190.176412,159.011615 190.124703,159.127746 L190.019236,159.360466 C189.947534,159.51594 189.873003,159.672118 189.795347,159.829281 L189.676485,160.065799 C189.615846,160.184464 189.553367,160.303762 189.488925,160.423812 L189.357386,160.664953 C189.178412,160.987906 188.984888,161.316776 188.774465,161.653822 L188.613442,161.908174 L188.445862,162.165804 C188.01853,162.814153 187.527656,163.495212 186.957753,164.223866 L186.72554,164.517901 L186.484677,164.817225 C186.321169,165.018584 186.151747,165.22361 185.976119,165.432585 L185.707984,165.749044 C185.662506,165.802293 185.616632,165.855797 185.570356,165.909561 L185.287841,166.235303 L184.995465,166.567497 C184.945902,166.623412 184.895918,166.679605 184.84551,166.73608 L184.537929,167.078351 L184.219935,167.427603 L183.891309,167.784049 L183.55183,168.1479 C183.494333,168.209171 183.436375,168.270759 183.377952,168.332669 L183.02178,168.708025 C182.961474,168.77124 182.900693,168.834785 182.839432,168.898665 L182.466073,169.286003 L182.08098,169.681592 L181.683933,170.085645 C181.61675,170.153705 181.54906,170.222125 181.480858,170.290912 L181.065467,170.708058 L170.708058,181.065467 L170.290912,181.480858 C170.222125,181.54906 170.153705,181.61675 170.085645,181.683933 L169.681592,182.08098 L169.286003,182.466073 L168.898665,182.839432 L168.519368,183.201278 C168.456811,183.260638 168.394579,183.319528 168.332669,183.377952 L167.965036,183.72294 C167.904395,183.779518 167.844068,183.835639 167.784049,183.891309 L167.427603,184.219935 L167.078351,184.537929 L166.73608,184.84551 L166.40058,185.1429 C166.345216,185.191627 166.290125,185.23994 166.235303,185.287841 L165.909561,185.570356 L165.590061,185.843229 C165.326352,186.066667 165.068924,186.280292 164.817225,186.484677 L164.517901,186.72554 L164.223866,186.957753 C163.495212,187.527656 162.814153,188.01853 162.165804,188.445862 L161.908174,188.613442 L161.653822,188.774465 C161.316776,188.984888 160.987906,189.178412 160.664953,189.357386 L160.423812,189.488925 C160.303762,189.553367 160.184464,189.615846 160.065799,189.676485 L159.829281,189.795347 C159.672118,189.873003 159.51594,189.947534 159.360466,190.019236 L159.127746,190.124703 C159.011615,190.176412 158.8958,190.226612 158.780182,190.275427 L158.549173,190.371246 L158.318478,190.463591 L158.087886,190.552683 L157.857184,190.638741 L157.626161,190.721986 L157.394605,190.802639 L157.162305,190.880919 L156.929048,190.957047 L156.694623,191.031243 L156.458819,191.103727 C152.516077,192.298758 148.483923,192.298758 144.541181,191.103727 L144.305377,191.031243 L144.070952,190.957047 L143.837695,190.880919 L143.605395,190.802639 L143.373839,190.721986 L143.142816,190.638741 L142.912114,190.552683 L142.681522,190.463591 C142.604652,190.433364 142.527766,190.402594 142.450827,190.371246 L142.219818,190.275427 C142.14274,190.242884 142.065573,190.209725 141.988284,190.175914 L141.756013,190.072487 C141.562087,189.984605 141.367173,189.892416 141.170719,189.795347 L140.934201,189.676485 C140.775982,189.595633 140.616636,189.511511 140.455882,189.423824 L140.213658,189.289584 C140.1731,189.266753 140.132444,189.24369 140.091688,189.220391 L139.845898,189.077719 C139.392925,188.810816 138.92663,188.514184 138.441142,188.181714 L138.174393,187.996776 C137.278647,187.368224 136.315928,186.61753 135.250956,185.707984 L134.928361,185.430317 L134.59942,185.1429 L134.26392,184.84551 L133.921649,184.537929 L133.572397,184.219935 L133.215951,183.891309 L132.8521,183.55183 C132.790829,183.494333 132.729241,183.436375 132.667331,183.377952 L132.291975,183.02178 C132.22876,182.961474 132.165215,182.900693 132.101335,182.839432 L131.713997,182.466073 L131.318408,182.08098 L130.914355,181.683933 C130.846295,181.61675 130.777875,181.54906 130.709088,181.480858 L130.291942,181.065467 L119.934533,170.708058 C119.72373,170.497254 119.517615,170.289823 119.316067,170.085645 L118.91902,169.681592 L118.533927,169.286003 L118.160568,168.898665 L117.798722,168.519368 C117.739362,168.456811 117.680472,168.394579 117.622048,168.332669 L117.27706,167.965036 C117.220482,167.904395 117.164361,167.844068 117.108691,167.784049 L116.780065,167.427603 L116.462071,167.078351 L116.15449,166.73608 L115.8571,166.40058 L115.569683,166.071639 L115.292016,165.749044 C114.38247,164.684072 113.631776,163.721353 113.003224,162.825607 L112.818286,162.558858 C112.485816,162.07337 112.189184,161.607075 111.922281,161.154102 L111.779609,160.908312 C111.75631,160.867556 111.733247,160.8269 111.710416,160.786342 L111.576176,160.544118 C111.488489,160.383364 111.404367,160.224018 111.323515,160.065799 L111.204653,159.829281 C111.107584,159.632827 111.015395,159.437913 110.927513,159.243987 L110.824086,159.011716 C110.80718,158.973071 110.790438,158.934457 110.773854,158.89587 L110.676216,158.664625 C110.644279,158.587625 110.61294,158.510695 110.582161,158.4338 L110.49147,158.203183 L110.403923,157.972562 C110.389581,157.934113 110.375362,157.895655 110.361259,157.857184 L110.278014,157.626161 L110.197361,157.394605 L110.119081,157.162305 L110.042953,156.929048 L109.968757,156.694623 L109.896273,156.458819 C108.701242,152.516077 108.701242,148.483923 109.896273,144.541181 L109.968757,144.305377 L110.042953,144.070952 L110.119081,143.837695 L110.197361,143.605395 L110.278014,143.373839 L110.361259,143.142816 L110.447317,142.912114 L110.536409,142.681522 L110.628754,142.450827 L110.724573,142.219818 C110.773388,142.1042 110.823588,141.988385 110.875297,141.872254 L110.980764,141.639534 C111.052466,141.48406 111.126997,141.327882 111.204653,141.170719 L111.323515,140.934201 C111.384154,140.815536 111.446633,140.696238 111.511075,140.576188 L111.642614,140.335047 C111.821588,140.012094 112.015112,139.683224 112.225535,139.346178 L112.386558,139.091826 L112.554138,138.834196 C112.98147,138.185847 113.472344,137.504788 114.042247,136.776134 L114.27446,136.482099 L114.515323,136.182775 C114.719708,135.931076 114.933333,135.673648 115.156771,135.409939 L115.429644,135.090439 L115.712159,134.764697 L116.004535,134.432503 C116.054098,134.376588 116.104082,134.320395 116.15449,134.26392 L116.462071,133.921649 L116.780065,133.572397 L117.108691,133.215951 L117.44817,132.8521 C117.505667,132.790829 117.563625,132.729241 117.622048,132.667331 L117.97822,132.291975 C118.038526,132.22876 118.099307,132.165215 118.160568,132.101335 L118.533927,131.713997 L118.91902,131.318408 L119.316067,130.914355 C119.38325,130.846295 119.45094,130.777875 119.519142,130.709088 L119.934533,130.291942 L130.291942,119.934533 L130.709088,119.519142 C130.777875,119.45094 130.846295,119.38325 130.914355,119.316067 L131.318408,118.91902 L131.713997,118.533927 L132.101335,118.160568 L132.480632,117.798722 C132.543189,117.739362 132.605421,117.680472 132.667331,117.622048 L133.034964,117.27706 C133.095605,117.220482 133.155932,117.164361 133.215951,117.108691 L133.572397,116.780065 L133.921649,116.462071 L134.26392,116.15449 L134.59942,115.8571 C134.654784,115.808373 134.709875,115.76006 134.764697,115.712159 L135.090439,115.429644 C135.144203,115.383368 135.197707,115.337494 135.250956,115.292016 L135.567415,115.023881 C135.77639,114.848253 135.981416,114.678831 136.182775,114.515323 L136.482099,114.27446 L136.776134,114.042247 C137.504788,113.472344 138.185847,112.98147 138.834196,112.554138 L139.091826,112.386558 L139.346178,112.225535 C139.683224,112.015112 140.012094,111.821588 140.335047,111.642614 L140.576188,111.511075 C140.696238,111.446633 140.815536,111.384154 140.934201,111.323515 L141.170719,111.204653 C141.327882,111.126997 141.48406,111.052466 141.639534,110.980764 L141.872254,110.875297 C141.988385,110.823588 142.1042,110.773388 142.219818,110.724573 L142.450827,110.628754 C142.489296,110.61308 142.527753,110.59755 142.5662,110.582161 L142.796817,110.49147 L143.027438,110.403923 C143.065887,110.389581 143.104345,110.375362 143.142816,110.361259 L143.373839,110.278014 L143.605395,110.197361 L143.837695,110.119081 C143.876486,110.10622 143.915316,110.093449 143.954191,110.080762 L144.188005,110.005628 L144.423093,109.932315 C144.462392,109.920236 144.501754,109.908224 144.541181,109.896273 C148.483923,108.701242 152.516077,108.701242 156.458819,109.896273 L156.694623,109.968757 L156.929048,110.042953 L157.162305,110.119081 L157.394605,110.197361 L157.626161,110.278014 C157.664703,110.291666 157.703223,110.305426 157.741726,110.319299 L157.972562,110.403923 C158.011011,110.418264 158.049451,110.432728 158.087886,110.447317 L158.318478,110.536409 L158.549173,110.628754 L158.780182,110.724573 C158.8958,110.773388 159.011615,110.823588 159.127746,110.875297 L159.360466,110.980764 C159.51594,111.052466 159.672118,111.126997 159.829281,111.204653 L160.065799,111.323515 C160.184464,111.384154 160.303762,111.446633 160.423812,111.511075 L160.664953,111.642614 C160.826429,111.732101 160.989385,111.825225 161.154102,111.922281 L161.402535,112.070849 L161.653822,112.225535 L161.908174,112.386558 C161.950834,112.413935 161.993629,112.441586 162.036566,112.469515 L162.295914,112.640456 C162.905172,113.047271 163.543789,113.510337 164.223866,114.042247 L164.517901,114.27446 C164.765105,114.471545 165.017817,114.67764 165.27659,114.893319 L165.590061,115.156771 L165.909561,115.429644 L166.235303,115.712159 L166.567497,116.004535 L166.906356,116.306993 C166.9634,116.358255 167.02073,116.409946 167.078351,116.462071 L167.427603,116.780065 L167.784049,117.108691 L168.1479,117.44817 C168.209171,117.505667 168.270759,117.563625 168.332669,117.622048 L168.708025,117.97822 C168.77124,118.038526 168.834785,118.099307 168.898665,118.160568 L169.286003,118.533927 C169.416479,118.660323 169.54833,118.788675 169.681592,118.91902 L170.085645,119.316067 C170.153705,119.38325 170.222125,119.45094 170.290912,119.519142 L170.708058,119.934533 L181.065467,130.291942 Z M162.313224,128.036742 L161.882469,127.609424 L161.464317,127.198799 L161.058524,126.804583 L160.664848,126.426495 L160.409008,126.183256 L160.034985,125.831419 L159.792022,125.605418 L159.436977,125.279045 L159.20644,125.06976 L158.869697,124.768067 L158.651136,124.574972 L158.43724,124.388208 L158.227937,124.207689 L158.023153,124.033333 L157.822817,123.865056 L157.626858,123.702773 L157.340966,123.470406 L157.155631,123.322743 L156.97442,123.180783 L156.797261,123.044439 L156.624081,122.91363 C156.595545,122.892285 156.567173,122.871167 156.538961,122.850275 L156.371616,122.72761 L156.20807,122.610269 L156.048251,122.498169 L155.892088,122.391226 C154.899035,121.719632 154.221746,121.407279 153.075204,121.059766 C151.33865,120.533422 149.66135,120.533422 147.924796,121.059766 C146.826027,121.392799 146.15822,121.693541 145.230456,122.309119 L145.030283,122.444058 L144.872301,122.553569 C144.845665,122.572252 144.818875,122.591151 144.79193,122.610269 L144.628384,122.72761 L144.375919,122.91363 L144.114661,123.111914 L143.935485,123.251055 L143.752221,123.395857 L143.469503,123.623853 L143.275705,123.78317 L143.077566,123.94844 L142.875016,124.119746 L142.667981,124.297173 L142.45639,124.480804 L142.240171,124.670723 L141.907007,124.967575 L141.678902,125.17358 L141.445916,125.386167 L141.207978,125.605418 L140.965015,125.831419 L140.716956,126.064252 L140.335152,126.426495 L139.941476,126.804583 L139.672309,127.065584 L139.258304,127.470708 L138.831777,127.89243 L138.540349,128.18294 L128.036627,138.686661 L127.749995,138.975359 L127.333836,139.397685 L127.065584,139.672309 L126.676776,140.074036 L126.426495,140.335152 L126.064252,140.716956 L125.831419,140.965015 L125.605418,141.207978 L125.386167,141.445916 L125.06976,141.79356 L124.768067,142.130303 L124.480804,142.45639 L124.297173,142.667981 L124.119746,142.875016 L123.94844,143.077566 L123.702773,143.373142 L123.470406,143.659034 L123.322743,143.844369 L123.180783,144.02558 C123.157593,144.055442 123.134637,144.085135 123.111914,144.114661 L122.978348,144.289822 C122.956547,144.318685 122.934975,144.347383 122.91363,144.375919 L122.788271,144.545191 C122.767828,144.573081 122.747608,144.600812 122.72761,144.628384 L122.610269,144.79193 L122.444058,145.030283 L122.391226,145.107912 C121.719632,146.100965 121.407279,146.778254 121.059766,147.924796 C120.533422,149.66135 120.533422,151.33865 121.059766,153.075204 C121.392799,154.173973 121.693541,154.84178 122.309119,155.769544 L122.444058,155.969717 L122.553569,156.127699 L122.668279,156.289372 L122.788271,156.454809 L122.91363,156.624081 L123.111914,156.885339 L123.251055,157.064515 L123.395857,157.247779 L123.546401,157.435202 L123.78317,157.724295 L123.94844,157.922434 L124.119746,158.124984 L124.297173,158.332019 L124.480804,158.54361 L124.670723,158.759829 L124.867014,158.980748 L125.17358,159.321098 L125.386167,159.554084 L125.605418,159.792022 L125.831419,160.034985 L126.183256,160.409008 L126.426495,160.664848 L126.804583,161.058524 L127.065584,161.327691 L127.470708,161.741696 L127.89243,162.168223 L128.18294,162.459651 L138.686661,172.963373 L138.975359,173.250005 L139.397685,173.666164 L139.672309,173.934416 L140.074036,174.323224 L140.335152,174.573505 L140.716956,174.935748 L140.965015,175.168581 L141.207978,175.394582 L141.445916,175.613833 L141.678902,175.82642 L141.907007,176.032425 L142.130303,176.231933 L142.45639,176.519196 L142.667981,176.702827 L142.875016,176.880254 L143.077566,177.05156 L143.275705,177.21683 L143.469503,177.376147 L143.752221,177.604143 L143.935485,177.748945 L144.114661,177.888086 L144.289822,178.021652 C144.318685,178.043453 144.347383,178.065025 144.375919,178.08637 L144.545191,178.211729 L144.710628,178.331721 L144.872301,178.446431 L145.030283,178.555942 L145.107912,178.608774 C146.100965,179.280368 146.778254,179.592721 147.924796,179.940234 C149.66135,180.466578 151.33865,180.466578 153.075204,179.940234 C154.173973,179.607201 154.84178,179.306459 155.769544,178.690881 L155.969717,178.555942 L156.127699,178.446431 C156.154335,178.427748 156.181125,178.408849 156.20807,178.389731 L156.371616,178.27239 L156.624081,178.08637 L156.885339,177.888086 L157.064515,177.748945 L157.247779,177.604143 L157.435202,177.453599 L157.626858,177.297227 L157.922434,177.05156 L158.124984,176.880254 L158.332019,176.702827 L158.54361,176.519196 L158.759829,176.329277 L158.980748,176.132986 L159.20644,175.93024 L159.554084,175.613833 L159.792022,175.394582 L160.034985,175.168581 L160.283044,174.935748 L160.664848,174.573505 L161.058524,174.195417 L161.327691,173.934416 L161.741696,173.529292 L162.168223,173.10757 L162.459651,172.81706 L172.963373,162.313339 L173.250005,162.024641 L173.666164,161.602315 L173.934416,161.327691 L174.323224,160.925964 L174.573505,160.664848 L174.935748,160.283044 L175.168581,160.034985 L175.394582,159.792022 L175.613833,159.554084 L175.93024,159.20644 L176.231933,158.869697 L176.519196,158.54361 L176.702827,158.332019 L176.880254,158.124984 L177.05156,157.922434 L177.297227,157.626858 L177.529594,157.340966 L177.677257,157.155631 L177.819217,156.97442 C177.842407,156.944558 177.865363,156.914865 177.888086,156.885339 L178.021652,156.710178 C178.043453,156.681315 178.065025,156.652617 178.08637,156.624081 L178.211729,156.454809 C178.232172,156.426919 178.252392,156.399188 178.27239,156.371616 L178.389731,156.20807 L178.555942,155.969717 L178.608774,155.892088 C179.280368,154.899035 179.592721,154.221746 179.940234,153.075204 C180.466578,151.33865 180.466578,149.66135 179.940234,147.924796 C179.607201,146.826027 179.306459,146.15822 178.690881,145.230456 L178.608774,145.107912 C178.573976,145.056459 178.538333,145.004408 178.501831,144.951749 L178.389731,144.79193 L178.27239,144.628384 L178.149725,144.461039 L177.955561,144.202739 L177.819217,144.02558 L177.677257,143.844369 L177.529594,143.659034 L177.297227,143.373142 L177.134944,143.177183 L176.966667,142.976847 L176.792311,142.772063 L176.611792,142.56276 L176.425028,142.348864 L176.231933,142.130303 L176.032425,141.907007 L175.720955,141.563023 L175.394582,141.207978 L175.168581,140.965015 L174.935748,140.716956 L174.573505,140.335152 L174.323224,140.074036 L173.934416,139.672309 L173.529292,139.258304 L173.10757,138.831777 C173.05997,138.783489 173.011752,138.735271 172.963258,138.686776 L162.313224,128.036742 Z" id="Rectangle-Copy-8"></path>
            <path d="M72.0654669,130.291942 L72.4808581,130.709088 C72.5490602,130.777875 72.6167503,130.846295 72.6839333,130.914355 L73.0809803,131.318408 C73.1461525,131.385039 73.2108266,131.451317 73.2750072,131.517247 L73.6542057,131.908684 C73.7164306,131.973239 73.7781713,132.037454 73.8394322,132.101335 L74.2012776,132.480632 C74.260638,132.543189 74.3195278,132.605421 74.3779516,132.667331 L74.7229396,133.034964 C74.7795179,133.095605 74.8356394,133.155932 74.8913088,133.215951 L75.219935,133.572397 L75.5379287,133.921649 C75.5900539,133.97927 75.6417452,134.0366 75.6930072,134.093644 L75.9954651,134.432503 L76.2878412,134.764697 L76.5703557,135.090439 L76.8432289,135.409939 L77.106681,135.72341 C77.3223602,135.982183 77.5284552,136.234895 77.7255397,136.482099 L77.9577528,136.776134 C78.4896628,137.456211 78.9527291,138.094828 79.3595436,138.704086 L79.5304854,138.963434 C79.558414,139.006371 79.5860647,139.049166 79.6134422,139.091826 L79.774465,139.346178 L79.9291506,139.597465 L80.0777191,139.845898 C80.1747748,140.010615 80.2678992,140.173571 80.3573862,140.335047 L80.4889253,140.576188 C80.5533675,140.696238 80.6158462,140.815536 80.6764853,140.934201 L80.7953475,141.170719 C80.8730027,141.327882 80.9475344,141.48406 81.0192362,141.639534 L81.1247033,141.872254 C81.1764124,141.988385 81.2266123,142.1042 81.2754269,142.219818 L81.3712459,142.450827 L81.463591,142.681522 L81.5526825,142.912114 L81.6387408,143.142816 C81.6528433,143.181287 81.6668286,143.219772 81.6807013,143.258274 L81.7626227,143.489537 L81.8420615,143.721439 L81.9192379,143.954191 L81.9943723,144.188005 L82.0676849,144.423093 C82.079764,144.462392 82.0917765,144.501754 82.1037268,144.541181 C83.2987577,148.483923 83.2987577,152.516077 82.1037268,156.458819 L82.0676849,156.576907 L81.9943723,156.811995 L81.9192379,157.045809 L81.8420615,157.278561 L81.7626227,157.510463 L81.6807013,157.741726 C81.6668286,157.780228 81.6528433,157.818713 81.6387408,157.857184 L81.5526825,158.087886 L81.463591,158.318478 C81.4333638,158.395348 81.4025943,158.472234 81.3712459,158.549173 L81.2754269,158.780182 C81.2266123,158.8958 81.1764124,159.011615 81.1247033,159.127746 L81.0192362,159.360466 C80.9475344,159.51594 80.8730027,159.672118 80.7953475,159.829281 L80.6764853,160.065799 C80.6158462,160.184464 80.5533675,160.303762 80.4889253,160.423812 L80.3573862,160.664953 C80.1784123,160.987906 79.9848884,161.316776 79.774465,161.653822 L79.6134422,161.908174 L79.4458617,162.165804 C79.0185301,162.814153 78.5276564,163.495212 77.9577528,164.223866 L77.7255397,164.517901 L77.4846766,164.817225 C77.3211688,165.018584 77.1517474,165.22361 76.9761188,165.432585 L76.7079837,165.749044 C76.6625064,165.802293 76.6166319,165.855797 76.5703557,165.909561 L76.2878412,166.235303 L75.9954651,166.567497 C75.9459018,166.623412 75.8959183,166.679605 75.8455102,166.73608 L75.5379287,167.078351 L75.219935,167.427603 L74.8913088,167.784049 L74.5518297,168.1479 C74.4943332,168.209171 74.4363754,168.270759 74.3779516,168.332669 L74.0217803,168.708025 C73.9614743,168.77124 73.9006931,168.834785 73.8394322,168.898665 L73.4660732,169.286003 L73.0809803,169.681592 L72.6839333,170.085645 C72.6167503,170.153705 72.5490602,170.222125 72.4808581,170.290912 L72.0654669,170.708058 L61.7080578,181.065467 L61.2909121,181.480858 C61.2221254,181.54906 61.1537047,181.61675 61.0856454,181.683933 L60.6815922,182.08098 L60.2860028,182.466073 L59.8986654,182.839432 L59.5193684,183.201278 C59.4568105,183.260638 59.3945788,183.319528 59.3326689,183.377952 L58.9650356,183.72294 C58.9043952,183.779518 58.8440678,183.835639 58.7840489,183.891309 L58.4276029,184.219935 L58.0783506,184.537929 L57.7360803,184.84551 L57.4005802,185.1429 C57.3452159,185.191627 57.2901249,185.23994 57.2353028,185.287841 L56.9095613,185.570356 L56.5900607,185.843229 C56.326352,186.066667 56.0689238,186.280292 55.8172249,186.484677 L55.5179011,186.72554 L55.2238658,186.957753 C54.4952117,187.527656 53.8141525,188.01853 53.1658043,188.445862 L52.9081743,188.613442 L52.6538218,188.774465 C52.316776,188.984888 51.9879056,189.178412 51.6649528,189.357386 L51.4238124,189.488925 C51.3037617,189.553367 51.1844637,189.615846 51.0657995,189.676485 L50.8292806,189.795347 C50.6721176,189.873003 50.51594,189.947534 50.3604657,190.019236 L50.1277462,190.124703 C50.0116149,190.176412 49.8957998,190.226612 49.7801817,190.275427 L49.5491732,190.371246 L49.3184785,190.463591 L49.087886,190.552683 L48.857184,190.638741 L48.6261609,190.721986 L48.394605,190.802639 L48.1623045,190.880919 L47.9290478,190.957047 L47.6946232,191.031243 L47.4588191,191.103727 C43.5160771,192.298758 39.4839229,192.298758 35.5411809,191.103727 L35.3053768,191.031243 L35.0709522,190.957047 L34.8376955,190.880919 L34.605395,190.802639 L34.3738391,190.721986 L34.142816,190.638741 L33.912114,190.552683 L33.6815215,190.463591 C33.6046521,190.433364 33.5277656,190.402594 33.4508268,190.371246 L33.2198183,190.275427 C33.1427396,190.242884 33.0655733,190.209725 32.9882841,190.175914 L32.7560127,190.072487 C32.5620872,189.984605 32.3671731,189.892416 32.1707194,189.795347 L31.9342005,189.676485 C31.7759815,189.595633 31.6166359,189.511511 31.4558816,189.423824 L31.2136581,189.289584 C31.1730997,189.266753 31.1324444,189.24369 31.0916878,189.220391 L30.8458976,189.077719 C30.3929247,188.810816 29.9266296,188.514184 29.4411424,188.181714 L29.1743926,187.996776 C28.2786469,187.368224 27.3159282,186.61753 26.2509559,185.707984 L25.9283613,185.430317 L25.5994198,185.1429 L25.2639197,184.84551 L24.9216494,184.537929 L24.5723971,184.219935 L24.2159511,183.891309 L23.8520999,183.55183 C23.7908291,183.494333 23.729241,183.436375 23.6673311,183.377952 L23.2919749,183.02178 C23.2287602,182.961474 23.1652149,182.900693 23.1013346,182.839432 L22.7139972,182.466073 L22.3184078,182.08098 L21.9143546,181.683933 C21.8462953,181.61675 21.7778746,181.54906 21.7090879,181.480858 L21.2919422,181.065467 L10.9345331,170.708058 C10.7237296,170.497254 10.5176155,170.289823 10.3160667,170.085645 L9.91901971,169.681592 L9.53392683,169.286003 L9.1605678,168.898665 L8.79872238,168.519368 C8.73936203,168.456811 8.68047225,168.394579 8.62204843,168.332669 L8.2770604,167.965036 C8.22048209,167.904395 8.16436056,167.844068 8.10869124,167.784049 L7.780065,167.427603 L7.46207128,167.078351 L7.15448982,166.73608 L6.85710035,166.40058 L6.5696826,166.071639 L6.2920163,165.749044 C5.38246964,164.684072 4.63177606,163.721353 4.00322421,162.825607 L3.81828619,162.558858 C3.48581634,162.07337 3.18918385,161.607075 2.92228086,161.154102 L2.77960908,160.908312 C2.75630961,160.867556 2.73324666,160.8269 2.71041564,160.786342 L2.576176,160.544118 C2.48848941,160.383364 2.40436688,160.224018 2.32351472,160.065799 L2.20465254,159.829281 C2.10758353,159.632827 2.01539502,159.437913 1.9275134,159.243987 L1.82408605,159.011716 C1.80718047,158.973071 1.79043799,158.934457 1.77385402,158.89587 L1.6762156,158.664625 C1.64427902,158.587625 1.61293976,158.510695 1.58216112,158.4338 L1.49147032,158.203183 L1.40392292,157.972562 C1.3895814,157.934113 1.37536168,157.895655 1.36125917,157.857184 L1.27801389,157.626161 L1.19736135,157.394605 L1.11908128,157.162305 L1.04295341,156.929048 L0.968757473,156.694623 L0.896273206,156.458819 C-0.298757735,152.516077 -0.298757735,148.483923 0.896273206,144.541181 L0.968757473,144.305377 L1.04295341,144.070952 L1.11908128,143.837695 L1.19736135,143.605395 L1.27801389,143.373839 L1.36125917,143.142816 L1.44731746,142.912114 L1.53640902,142.681522 L1.62875413,142.450827 L1.72457305,142.219818 C1.77338768,142.1042 1.82358758,141.988385 1.87529666,141.872254 L1.98076378,141.639534 C2.05246564,141.48406 2.12699733,141.327882 2.20465254,141.170719 L2.32351472,140.934201 C2.38415384,140.815536 2.44663254,140.696238 2.51107473,140.576188 L2.64261379,140.335047 C2.82158775,140.012094 3.01511163,139.683224 3.22553497,139.346178 L3.38655784,139.091826 L3.55413827,138.834196 C3.98146986,138.185847 4.47234364,137.504788 5.0422472,136.776134 L5.27446026,136.482099 L5.51532343,136.182775 C5.71970814,135.931076 5.93333283,135.673648 6.15677111,135.409939 L6.42964428,135.090439 L6.71215877,134.764697 L7.00453485,134.432503 C7.05409824,134.376588 7.1040817,134.320395 7.15448982,134.26392 L7.46207128,133.921649 L7.780065,133.572397 L8.10869124,133.215951 L8.44817028,132.8521 C8.50566676,132.790829 8.56362461,132.729241 8.62204843,132.667331 L8.97821966,132.291975 C9.0385257,132.22876 9.09930688,132.165215 9.1605678,132.101335 L9.53392683,131.713997 L9.91901971,131.318408 L10.3160667,130.914355 C10.3832497,130.846295 10.4509398,130.777875 10.5191419,130.709088 L10.9345331,130.291942 L21.2919422,119.934533 L21.7090879,119.519142 C21.7778746,119.45094 21.8462953,119.38325 21.9143546,119.316067 L22.3184078,118.91902 L22.7139972,118.533927 L23.1013346,118.160568 L23.4806316,117.798722 C23.5431895,117.739362 23.6054212,117.680472 23.6673311,117.622048 L24.0349644,117.27706 C24.0956048,117.220482 24.1559322,117.164361 24.2159511,117.108691 L24.5723971,116.780065 L24.9216494,116.462071 L25.2639197,116.15449 L25.5994198,115.8571 C25.6547841,115.808373 25.7098751,115.76006 25.7646972,115.712159 L26.0904387,115.429644 C26.144203,115.383368 26.1977073,115.337494 26.2509559,115.292016 L26.5674153,115.023881 C26.7763901,114.848253 26.981416,114.678831 27.1827751,114.515323 L27.4820989,114.27446 L27.7761342,114.042247 C28.5047883,113.472344 29.1858475,112.98147 29.8341957,112.554138 L30.0918257,112.386558 L30.3461782,112.225535 C30.683224,112.015112 31.0120944,111.821588 31.3350472,111.642614 L31.5761876,111.511075 C31.6962383,111.446633 31.8155363,111.384154 31.9342005,111.323515 L32.1707194,111.204653 C32.3278824,111.126997 32.48406,111.052466 32.6395343,110.980764 L32.8722538,110.875297 C32.9883851,110.823588 33.1042002,110.773388 33.2198183,110.724573 L33.4508268,110.628754 C33.4892962,110.61308 33.5277526,110.59755 33.5662002,110.582161 L33.7968173,110.49147 L34.0274381,110.403923 C34.0658869,110.389581 34.1043447,110.375362 34.142816,110.361259 L34.3738391,110.278014 L34.605395,110.197361 L34.8376955,110.119081 C34.876486,110.10622 34.9153164,110.093449 34.9541911,110.080762 L35.1880053,110.005628 L35.4230932,109.932315 C35.4623924,109.920236 35.5017535,109.908224 35.5411809,109.896273 C39.4839229,108.701242 43.5160771,108.701242 47.4588191,109.896273 L47.6946232,109.968757 L47.9290478,110.042953 L48.1623045,110.119081 L48.394605,110.197361 L48.6261609,110.278014 C48.6647033,110.291666 48.7032235,110.305426 48.7417259,110.319299 L48.9725619,110.403923 C49.0110108,110.418264 49.0494507,110.432728 49.087886,110.447317 L49.3184785,110.536409 L49.5491732,110.628754 L49.7801817,110.724573 C49.8957998,110.773388 50.0116149,110.823588 50.1277462,110.875297 L50.3604657,110.980764 C50.51594,111.052466 50.6721176,111.126997 50.8292806,111.204653 L51.0657995,111.323515 C51.1844637,111.384154 51.3037617,111.446633 51.4238124,111.511075 L51.6649528,111.642614 C51.8264292,111.732101 51.989385,111.825225 52.1541024,111.922281 L52.402535,112.070849 L52.6538218,112.225535 L52.9081743,112.386558 C52.9508336,112.413935 52.9936295,112.441586 53.0365664,112.469515 L53.2959145,112.640456 C53.9051719,113.047271 54.5437886,113.510337 55.2238658,114.042247 L55.5179011,114.27446 C55.7651047,114.471545 56.0178171,114.67764 56.2765896,114.893319 L56.5900607,115.156771 L56.9095613,115.429644 L57.2353028,115.712159 L57.5674972,116.004535 L57.9063559,116.306993 C57.9633995,116.358255 58.0207296,116.409946 58.0783506,116.462071 L58.4276029,116.780065 L58.7840489,117.108691 L59.1479001,117.44817 C59.2091709,117.505667 59.270759,117.563625 59.3326689,117.622048 L59.7080251,117.97822 C59.7712398,118.038526 59.8347851,118.099307 59.8986654,118.160568 L60.2860028,118.533927 C60.4164788,118.660323 60.5483302,118.788675 60.6815922,118.91902 L61.0856454,119.316067 C61.1537047,119.38325 61.2221254,119.45094 61.2909121,119.519142 L61.7080578,119.934533 L72.0654669,130.291942 Z M53.3132236,128.036742 L52.8824688,127.609424 L52.4643167,127.198799 L52.0585241,126.804583 L51.6648478,126.426495 L51.409008,126.183256 L51.0349849,125.831419 L50.7920221,125.605418 L50.4369765,125.279045 L50.2064402,125.06976 L49.8696965,124.768067 L49.6511363,124.574972 L49.4372403,124.388208 L49.2279365,124.207689 L49.0231529,124.033333 L48.8228174,123.865056 L48.6268579,123.702773 L48.340966,123.470406 L48.1556312,123.322743 L47.9744202,123.180783 L47.7972608,123.044439 L47.6240811,122.91363 C47.5955455,122.892285 47.5671726,122.871167 47.5389611,122.850275 L47.3716157,122.72761 L47.2080697,122.610269 L47.0482512,122.498169 L46.8920879,122.391226 C45.8990355,121.719632 45.2217456,121.407279 44.0752044,121.059766 C42.3386495,120.533422 40.6613505,120.533422 38.9247956,121.059766 C37.826027,121.392799 37.15822,121.693541 36.2304559,122.309119 L36.0302829,122.444058 L35.872301,122.553569 C35.845665,122.572252 35.8188753,122.591151 35.7919303,122.610269 L35.6283843,122.72761 L35.3759189,122.91363 L35.1146615,123.111914 L34.9354853,123.251055 L34.7522214,123.395857 L34.4695034,123.623853 L34.2757049,123.78317 L34.0775664,123.94844 L33.8750158,124.119746 L33.6679811,124.297173 L33.4563903,124.480804 L33.2401711,124.670723 L32.9070068,124.967575 L32.6789017,125.17358 L32.4459161,125.386167 L32.2079779,125.605418 L31.9650151,125.831419 L31.7169556,126.064252 L31.3351522,126.426495 L30.9414759,126.804583 L30.6723088,127.065584 L30.2583035,127.470708 L29.8317766,127.89243 L29.5403488,128.18294 L19.036627,138.686661 L18.7499946,138.975359 L18.3338365,139.397685 L18.0655842,139.672309 L17.676776,140.074036 L17.4264952,140.335152 L17.0642516,140.716956 L16.8314187,140.965015 L16.6054183,141.207978 L16.3861667,141.445916 L16.0697599,141.79356 L15.7680666,142.130303 L15.480804,142.45639 L15.297173,142.667981 L15.1197463,142.875016 L14.9484399,143.077566 L14.702773,143.373142 L14.4704058,143.659034 L14.3227434,143.844369 L14.1807825,144.02558 C14.1575929,144.055442 14.1346373,144.085135 14.111914,144.114661 L13.9783484,144.289822 C13.9565475,144.318685 13.9349754,144.347383 13.9136304,144.375919 L13.7882715,144.545191 C13.7678278,144.573081 13.7476078,144.600812 13.7276097,144.628384 L13.610269,144.79193 L13.4440583,145.030283 L13.3912262,145.107912 C12.7196319,146.100965 12.4072786,146.778254 12.0597661,147.924796 C11.5334225,149.66135 11.5334225,151.33865 12.0597661,153.075204 C12.3927989,154.173973 12.6935414,154.84178 13.3091195,155.769544 L13.4440583,155.969717 L13.5535692,156.127699 L13.668279,156.289372 L13.7882715,156.454809 L13.9136304,156.624081 L14.111914,156.885339 L14.2510555,157.064515 L14.3958566,157.247779 L14.5464012,157.435202 L14.7831703,157.724295 L14.9484399,157.922434 L15.1197463,158.124984 L15.297173,158.332019 L15.480804,158.54361 L15.6707229,158.759829 L15.8670136,158.980748 L16.17358,159.321098 L16.3861667,159.554084 L16.6054183,159.792022 L16.8314187,160.034985 L17.1832564,160.409008 L17.4264952,160.664848 L17.8045834,161.058524 L18.0655842,161.327691 L18.4707081,161.741696 L18.8924304,162.168223 L19.1829396,162.459651 L29.6866614,172.963373 L29.9753586,173.250005 L30.3976846,173.666164 L30.6723088,173.934416 L31.0740356,174.323224 L31.3351522,174.573505 L31.7169556,174.935748 L31.9650151,175.168581 L32.2079779,175.394582 L32.4459161,175.613833 L32.6789017,175.82642 L32.9070068,176.032425 L33.1303035,176.231933 L33.4563903,176.519196 L33.6679811,176.702827 L33.8750158,176.880254 L34.0775664,177.05156 L34.2757049,177.21683 L34.4695034,177.376147 L34.7522214,177.604143 L34.9354853,177.748945 L35.1146615,177.888086 L35.289822,178.021652 C35.3186848,178.043453 35.3473832,178.065025 35.3759189,178.08637 L35.545191,178.211729 L35.7106277,178.331721 L35.872301,178.446431 L36.0302829,178.555942 L36.1079121,178.608774 C37.1009645,179.280368 37.7782544,179.592721 38.9247956,179.940234 C40.6613505,180.466578 42.3386495,180.466578 44.0752044,179.940234 C45.173973,179.607201 45.84178,179.306459 46.7695441,178.690881 L46.9697171,178.555942 L47.127699,178.446431 C47.154335,178.427748 47.1811247,178.408849 47.2080697,178.389731 L47.3716157,178.27239 L47.6240811,178.08637 L47.8853385,177.888086 L48.0645147,177.748945 L48.2477786,177.604143 L48.4352023,177.453599 L48.6268579,177.297227 L48.9224336,177.05156 L49.1249842,176.880254 L49.3320189,176.702827 L49.5436097,176.519196 L49.7598289,176.329277 L49.9807483,176.132986 L50.2064402,175.93024 L50.5540839,175.613833 L50.7920221,175.394582 L51.0349849,175.168581 L51.2830444,174.935748 L51.6648478,174.573505 L52.0585241,174.195417 L52.3276912,173.934416 L52.7416965,173.529292 L53.1682234,173.10757 L53.4596512,172.81706 L63.963373,162.313339 L64.2500054,162.024641 L64.6661635,161.602315 L64.9344158,161.327691 L65.323224,160.925964 L65.5735048,160.664848 L65.9357484,160.283044 L66.1685813,160.034985 L66.3945817,159.792022 L66.6138333,159.554084 L66.9302401,159.20644 L67.2319334,158.869697 L67.519196,158.54361 L67.702827,158.332019 L67.8802537,158.124984 L68.0515601,157.922434 L68.297227,157.626858 L68.5295942,157.340966 L68.6772566,157.155631 L68.8192175,156.97442 C68.8424071,156.944558 68.8653627,156.914865 68.888086,156.885339 L69.0216516,156.710178 C69.0434525,156.681315 69.0650246,156.652617 69.0863696,156.624081 L69.2117285,156.454809 C69.2321722,156.426919 69.2523922,156.399188 69.2723903,156.371616 L69.389731,156.20807 L69.5559417,155.969717 L69.6087738,155.892088 C70.2803681,154.899035 70.5927214,154.221746 70.9402339,153.075204 C71.4665775,151.33865 71.4665775,149.66135 70.9402339,147.924796 C70.6072011,146.826027 70.3064586,146.15822 69.6908805,145.230456 L69.6087738,145.107912 C69.5739763,145.056459 69.5383334,145.004408 69.5018309,144.951749 L69.389731,144.79193 L69.2723903,144.628384 L69.1497251,144.461039 L68.9555606,144.202739 L68.8192175,144.02558 L68.6772566,143.844369 L68.5295942,143.659034 L68.297227,143.373142 L68.1349442,143.177183 L67.9666667,142.976847 L67.7923107,142.772063 L67.6117923,142.56276 L67.4250278,142.348864 L67.2319334,142.130303 L67.0324254,141.907007 L66.7209546,141.563023 L66.3945817,141.207978 L66.1685813,140.965015 L65.9357484,140.716956 L65.5735048,140.335152 L65.323224,140.074036 L64.9344158,139.672309 L64.5292919,139.258304 L64.1075696,138.831777 C64.0599704,138.783489 64.0117523,138.735271 63.963258,138.686776 L53.3132236,128.036742 Z" id="Rectangle-Copy-9"></path>
        </g>
    </g>
</svg>