<?xml version="1.0" encoding="UTF-8"?>
<svg width="192px" height="192px" viewBox="0 0 192 192" version="1.1" xmlns="http://www.w3.org/2000/svg" xmlns:xlink="http://www.w3.org/1999/xlink">
    <title>Artboard Copy 52</title>
    <g id="Artboard-Copy-52" stroke="none" stroke-width="1" fill="none" fill-rule="evenodd">
        <g id="SH" transform="translate(14.000000, 47.000000)" fill="#000000" fill-rule="nonzero">
            <path d="M34.4197531,99 C27.8902606,99 22.0137174,97.8628692 16.7901235,95.5886076 C11.5665295,93.314346 7.46227709,90.0886076 4.47736626,85.9113924 C1.49245542,81.7341772 0,76.8607595 0,71.2911392 L17.0699588,71.2911392 C17.4430727,75.4683544 19.0987654,78.9029536 22.037037,81.5949367 C24.9753086,84.2869198 29.1028807,85.6329114 34.4197531,85.6329114 C39.9231824,85.6329114 44.2139918,84.3101266 47.2921811,81.664557 C50.3703704,79.0189873 51.909465,75.6075949 51.909465,71.4303797 C51.909465,68.1814346 50.9533608,65.535865 49.0411523,63.4936709 C47.1289438,61.4514768 44.7503429,59.8734177 41.9053498,58.7594937 C39.0603567,57.6455696 35.1193416,56.4388186 30.0823045,55.1392405 C23.739369,53.4683544 18.5857339,51.7742616 14.6213992,50.056962 C10.6570645,48.3396624 7.27572016,45.6708861 4.47736626,42.0506329 C1.67901235,38.4303797 0.279835391,33.6033755 0.279835391,27.5696203 C0.279835391,22 1.67901235,17.1265823 4.47736626,12.9493671 C7.27572016,8.7721519 11.1934156,5.56962025 16.2304527,3.34177215 C21.2674897,1.11392405 27.0973937,0 33.7201646,0 C43.1412894,0 50.8600823,2.34388186 56.8765432,7.03164557 C62.8930041,11.7194093 66.2277092,18.1476793 66.8806584,26.3164557 L49.2510288,26.3164557 C48.9711934,22.7890295 47.2921811,19.7721519 44.2139918,17.2658228 C41.1358025,14.7594937 37.0781893,13.5063291 32.0411523,13.5063291 C27.4705075,13.5063291 23.739369,14.6666667 20.8477366,16.9873418 C17.9561043,19.3080169 16.5102881,22.649789 16.5102881,27.0126582 C16.5102881,29.9831224 17.4197531,32.4198312 19.2386831,34.3227848 C21.0576132,36.2257384 23.3662551,37.7341772 26.1646091,38.8481013 C28.962963,39.9620253 32.78738,41.1687764 37.6378601,42.4683544 C44.0740741,44.2320675 49.3209877,45.9957806 53.3786008,47.7594937 C57.436214,49.5232068 60.8875171,52.2383966 63.7325103,55.9050633 C66.5775034,59.57173 68,64.4683544 68,70.5949367 C68,75.5147679 66.6707819,80.1561181 64.0123457,84.5189873 C61.3539095,88.8818565 57.4828532,92.3860759 52.399177,95.0316456 C47.3155007,97.6772152 41.3223594,99 34.4197531,99 Z" id="Path"></path>
            <polygon id="Path" points="164 1 164 98 147.978378 98 147.978378 55.571223 102.021622 55.571223 102.021622 98 86 98 86 1 102.021622 1 102.021622 42.5913669 147.978378 42.5913669 147.978378 1"></polygon>
        </g>
    </g>
</svg>