<?xml version="1.0" encoding="UTF-8"?>
<svg width="192px" height="192px" viewBox="0 0 192 192" version="1.1" xmlns="http://www.w3.org/2000/svg" xmlns:xlink="http://www.w3.org/1999/xlink">
    <title>Artboard Copy 75</title>
    <g id="Artboard-Copy-75" stroke="none" stroke-width="1" fill="none" fill-rule="evenodd">
        <g id="Sm" transform="translate(3.000000, 48.000000)" fill="#000000" fill-rule="nonzero">
            <path d="M34.188,96 C27.412,96 21.472,94.8066298 16.368,92.4198895 C11.264,90.0331492 7.282,86.6298343 4.422,82.2099448 C3.23695691,80.3785603 2.21905066,77.6536471 1.36828124,74.0352051 C0.586094783,70.708401 2.64890268,67.3773984 5.97570391,66.5951996 C6.4398966,66.4860585 6.91514924,66.4309392 7.392,66.4309392 C11.4783473,66.4309392 15.1206964,69.0073772 16.4815251,72.8604773 C17.4478901,75.5966645 18.5980484,77.6523802 19.932,79.0276243 C23.276,82.4751381 27.984,84.198895 34.056,84.198895 C39.424,84.198895 43.626,82.8950276 46.662,80.2872928 C49.698,77.679558 51.216,74.3425414 51.216,70.2762431 C51.216,67.0055249 50.49,64.3535912 49.038,62.320442 C47.586,60.2872928 45.606,58.6077348 43.098,57.281768 C40.59,55.9558011 37.708,54.7624309 34.452,53.7016575 C31.196,52.640884 27.764,51.4917127 24.156,50.2541436 C17.028,47.8674033 11.682,44.7734807 8.118,40.9723757 C4.554,37.1712707 2.772,32.1767956 2.772,25.9889503 C2.684,20.7734807 3.894,16.2209945 6.402,12.3314917 C8.91,8.44198895 12.43,5.41436464 16.962,3.24861878 C21.494,1.08287293 26.796,0 32.868,0 C38.852,0 44.11,1.10497238 48.642,3.31491713 C53.174,5.52486188 56.716,8.59668508 59.268,12.5303867 C60.1974533,13.9630639 61.0130964,15.9783569 61.7149294,18.576266 C62.5920577,21.8231051 60.671042,25.1662495 57.4242067,26.0433918 C56.9063961,26.1832799 56.3723734,26.2541436 55.836,26.2541436 C51.9986735,26.2541436 48.5386779,23.9440646 47.0676118,20.399909 C46.9187496,20.0412604 46.7615457,19.7164289 46.596,19.4254144 C45.364,17.2596685 43.56,15.4696133 41.184,14.0552486 C38.808,12.640884 35.904,11.9337017 32.472,11.9337017 C28.072,11.8453039 24.442,12.9502762 21.582,15.2486188 C18.722,17.5469613 17.292,20.7292818 17.292,24.7955801 C17.292,28.4198895 18.348,31.2044199 20.46,33.1491713 C22.572,35.0939227 25.476,36.7071823 29.172,37.9889503 C32.868,39.2707182 37.092,40.7513812 41.844,42.4309392 C46.42,43.9337017 50.512,45.7458564 54.12,47.8674033 C57.728,49.9889503 60.61,52.7734807 62.766,56.2209945 C64.922,59.6685083 66,64.0441989 66,69.3480663 C66,74.0331492 64.812,78.3867403 62.436,82.4088398 C60.06,86.4309392 56.496,89.7016575 51.744,92.2209945 C46.992,94.7403315 41.14,96 34.188,96 Z" id="Path"></path>
            <path d="M158.617424,28 C166.837121,28 173.289141,30.4619423 177.973485,35.3858268 C182.657828,40.3097113 185,47.6515748 185,57.4114173 L185,87.9734848 C185,91.854122 181.854122,95 177.973485,95 C174.092848,95 170.94697,91.854122 170.94697,87.9734848 L170.94697,58.8622047 C170.94697,46.2007874 166.085859,39.8700787 156.363636,39.8700787 C151.414141,39.8700787 147.370581,41.7165354 144.232955,45.4094488 C141.095328,49.1023622 139.526515,54.3779528 139.526515,61.2362205 L139.526515,87.9734848 C139.526515,91.854122 136.380637,95 132.5,95 C128.619363,95 125.473485,91.854122 125.473485,87.9734848 L125.473485,58.8622047 C125.473485,46.2007874 120.568182,39.8700787 110.757576,39.8700787 C105.896465,39.8700787 101.897096,41.7165354 98.7594697,45.4094488 C95.6218434,49.1023622 94.0530303,54.3779528 94.0530303,61.2362205 L94.0530303,87.9734848 C94.0530303,91.854122 90.9071523,95 87.0265152,95 C83.145878,95 80,91.854122 80,87.9734848 L80,35.8137378 C80,32.372418 82.7897409,29.5826772 86.2310606,29.5826772 C89.7945332,29.5826772 92.804037,32.228262 93.2607821,35.762342 L93.655303,38.8149606 C95.7765152,35.4737533 98.582702,32.835958 102.073864,30.9015748 C105.565025,28.9671916 109.608586,28 114.204545,28 C124.633838,28 131.881313,32.0885827 135.94697,40.265748 C138.333333,36.4849081 141.537247,33.4954068 145.558712,31.2972441 C149.580177,29.0990814 153.933081,28 158.617424,28 Z M178,83 C175.238576,83 173,85.2385763 173,88 C173,90.7614237 175.238576,93 178,93 C180.761424,93 183,90.7614237 183,88 C183,85.2385763 180.761424,83 178,83 Z" id="Combined-Shape"></path>
        </g>
    </g>
</svg>