<?xml version="1.0" encoding="UTF-8"?>
<svg width="192px" height="192px" viewBox="0 0 192 192" version="1.1" xmlns="http://www.w3.org/2000/svg" xmlns:xlink="http://www.w3.org/1999/xlink">
    <title>Artboard Copy 76</title>
    <g id="Artboard-Copy-76" stroke="none" stroke-width="1" fill="none" fill-rule="evenodd" stroke-linejoin="round">
        <path d="M179.831937,66.4241997 C183.137419,101.991634 174.153701,125.362107 161.174129,140.734059 C141.518647,164.012416 112.194669,169.042525 99.208383,169.042525 C79.6342942,169.042525 64.1395423,164.034069 52.5592268,154.414714 C39.9005897,143.899636 31.7650824,127.743718 28.6253772,105.637738 L67.7021294,95.5036689 L72.4809859,94.264332 Z" id="Path-36" stroke="#000000" stroke-width="12"></path>
        <path d="M125.292466,20.483999 C128.091603,22.9973067 129.59941,24.6321804 129.59941,24.6321804 C129.59941,24.6321804 161.822175,59.5704386 153.507388,102.097132 C149.400418,123.102585 135.564286,146.230492 102.257789,167.752525 C101.639797,168.151859 101.024056,168.544855 100.408364,168.928112 C99.6904202,168.845042 98.9688936,168.757362 98.2437812,168.665063 C56.7044728,163.377586 30.3543242,146.36695 18.242947,118.762816 Z" id="Path-35" stroke="#000000" stroke-width="12"></path>
        <path d="M91.1785514,61.4428435 C108.523022,78.0740141 117.391094,95.5740142 118.288451,113.752333 C119.103505,130.263376 113.321977,147.502214 100.522072,165.366813 C99.9220766,166.204217 99.3184242,167.026575 98.7089098,167.831579 C97.6964718,167.85869 96.6750953,167.872252 95.644774,167.872252 C62.6744933,167.872252 38.8636187,153.985738 24.0080037,126.557436 Z" id="Path-34" stroke="#000000" stroke-width="12"></path>
        <path d="M71.1142127,39.4389 C89.2218693,39.0079321 110.442244,45.4823851 132.643106,67.1720285 L90.8628053,108.483408 L88.5535523,110.766743 L48.1450118,150.721758 C32.0369149,143.329426 22.3968171,130.226885 16.9977831,116.342533 C9.34476361,96.6617502 10.4166906,75.5953845 12.618128,68.1170483 C12.7386534,67.7076203 12.8840914,67.2657938 13.0550241,66.7950218 C13.6215502,66.1170881 13.944591,65.7640599 13.944591,65.7640599 C13.944591,65.7640599 37.2971215,40.2437573 71.1142127,39.4389 Z" id="Path-33" stroke="#000000" stroke-width="12"></path>
    </g>
</svg>