<?xml version="1.0" encoding="UTF-8"?>
<svg width="192px" height="192px" viewBox="0 0 192 192" version="1.1" xmlns="http://www.w3.org/2000/svg" xmlns:xlink="http://www.w3.org/1999/xlink">
    <title>Artboard Copy 45</title>
    <g id="Artboard-Copy-45" stroke="none" stroke-width="1" fill="none" fill-rule="evenodd">
        <path d="M170.705617,152.248736 C171.308732,153.679302 170.9666,155.339793 169.849164,156.405409 L137.038966,187.69409 C136.425289,188.279308 135.631099,188.631303 134.790931,188.690445 L87.9042471,191.990965 C85.8924348,192.132583 84.1483885,190.592648 84.0088105,188.551424 C83.9012536,186.978484 84.7866759,185.508804 86.2154502,184.888702 L165.912332,150.299501 C166.309647,150.127063 166.720366,150.031648 167.128303,150.006676 L167.331965,150 C168.754928,149.994172 170.110778,150.837801 170.705617,152.248736 Z M20.2304303,108.044289 L165.907851,130.750682 C167.90496,131.061966 169.269208,132.918143 168.954983,134.896568 C168.73716,136.26803 167.748036,137.395918 166.407652,137.801261 L110.057552,154.841997 C109.803282,154.918891 109.543154,154.967588 109.281741,154.988375 L109.02007,155 C108.496547,155.004291 107.973982,154.897451 107.488955,154.681633 L18.1616334,114.934504 C16.3174445,114.113913 15.4939368,111.967668 16.3222775,110.140733 C16.8757303,108.920072 18.0479846,108.123283 19.3492129,108.013123 L19.5671945,108.001165 C19.7862023,107.995656 20.0080368,108.009625 20.2304303,108.044289 Z M99,135 L110.036515,139 L117,137.28499 L99,135 Z M43.0218791,0.866936577 L173.71018,111.57167 C175.249287,112.875432 175.437732,115.177276 174.131083,116.712983 C173.499114,117.455737 172.608753,117.902331 171.666989,117.985735 L171.430596,118 C171.114298,118.00645 170.794205,117.972944 170.477983,117.89598 L105.133832,101.99216 C104.261029,101.779732 103.497183,101.254055 102.988089,100.515465 L37.6439388,5.71455108 C36.4998544,4.05472022 36.9209288,1.78374682 38.5844347,0.64219003 C39.1285583,0.268793111 39.7460008,0.0594918482 40.3715966,0.0109857542 L40.6064499,1.42109631e-14 C41.4680468,-0.0111666526 42.3296582,0.280563267 43.0218791,0.866936577 Z M96,66 L112.5,89.1212175 L129,93 L96,66 Z" id="Combined-Shape" fill="#000000" fill-rule="nonzero"></path>
    </g>
</svg>