<?xml version="1.0" encoding="UTF-8"?>
<svg width="192px" height="192px" viewBox="0 0 192 192" version="1.1" xmlns="http://www.w3.org/2000/svg" xmlns:xlink="http://www.w3.org/1999/xlink">
    <title>Artboard Copy 15</title>
    <g id="Artboard-Copy-15" stroke="none" stroke-width="1" fill="none" fill-rule="evenodd">
        <g id="room_service_FILL0_wght400_GRAD0_opsz48" transform="translate(15.000000, 35.000000)" fill="#000000" fill-rule="nonzero">
            <path d="M6.1125,123 C4.34666667,123 2.88645833,122.419167 1.731875,121.2575 C0.577291667,120.095833 0,118.626667 0,116.85 C0,115.073333 0.577291667,113.604167 1.731875,112.4425 C2.88645833,111.280833 4.34666667,110.7 6.1125,110.7 L156.8875,110.7 C158.653333,110.7 160.113542,111.280833 161.268125,112.4425 C162.422708,113.604167 163,115.073333 163,116.85 C163,118.626667 162.422708,120.095833 161.268125,121.2575 C160.113542,122.419167 158.653333,123 156.8875,123 L6.1125,123 Z M6.1125,94.915 L6.1125,94.915 L6.1125,94.915 C6.1125,73.7316667 12.123125,56.6483333 24.144375,43.665 C36.165625,30.6816667 51.2091667,22.2766667 69.275,18.45 L69.275,12.3 C69.275,8.74666667 70.4295833,5.80833333 72.73875,3.485 C75.0479167,1.16166667 77.9683333,0 81.5,0 C85.0316667,0 87.9520833,1.16166667 90.26125,3.485 C92.5704167,5.80833333 93.725,8.74666667 93.725,12.3 L93.725,18.45 C111.790833,22.2766667 126.834375,30.6816667 138.855625,43.665 C150.876875,56.6483333 156.8875,73.7316667 156.8875,94.915 C156.8875,96.8397124 155.327212,98.4 153.4025,98.4 L9.5975,98.4 C7.67278765,98.4 6.1125,96.8397124 6.1125,94.915 Z M18.94875,86.1 L144.05125,86.1 C142.149583,68.6066667 135.188125,54.9058333 123.166875,44.9975 C111.145625,35.0891667 97.18875,30.135 81.29625,30.135 C65.40375,30.135 51.5147917,35.0891667 39.629375,44.9975 C27.7439583,54.9058333 20.8504167,68.6066667 18.94875,86.1 Z" id="Shape"></path>
        </g>
    </g>
</svg>