<?xml version="1.0" encoding="UTF-8"?>
<svg width="192px" height="192px" viewBox="0 0 192 192" version="1.1" xmlns="http://www.w3.org/2000/svg" xmlns:xlink="http://www.w3.org/1999/xlink">
    <title>Artboard Copy 11</title>
    <g id="Artboard-Copy-11" stroke="none" stroke-width="1" fill="none" fill-rule="evenodd">
        <g id="G" transform="translate(13.000000, 49.000000)">
            <path d="M119,7 C130.045695,7 140.045695,11.4771525 147.284271,18.7157288 C154.522847,25.954305 159,35.954305 159,47 C159,58.045695 154.522847,68.045695 147.284271,75.2842712 C140.045695,82.5228475 130.045695,87 119,87 C107.954305,87 97.954305,82.5228475 90.7157288,75.2842712 C83.4771525,68.045695 79,58.045695 79,47 C79,35.954305 83.4771525,25.954305 90.7157288,18.7157288 C97.954305,11.4771525 107.954305,7 119,7 Z" id="Shape" stroke="#000000" stroke-width="12" fill-rule="nonzero"></path>
            <path d="M42.6074215,0 C52.1385183,0 60.4332497,2.51155149 67.3533388,7.55585308 C71.6251067,10.6696981 75.1779747,14.4733967 78.0002046,18.9408353 C75.3525742,22.6174038 73.2316988,26.7055547 71.7476739,31.0927973 C71.380103,30.6666127 71.0502588,30.1985076 70.7671519,29.6937746 C67.0965097,23.1498267 63.7022014,18.8152414 60.7702127,16.7162847 C55.7086938,13.0928366 49.698825,11.275766 42.6074215,11.275766 C36.7506574,11.275766 31.4962541,12.6631539 26.7617393,15.4411872 C22.0697594,18.1942628 18.3781935,22.1343705 15.6365459,27.3464571 C12.8681393,32.6094146 11.4684976,38.8065696 11.4684976,46 C11.4684976,53.1934304 12.8681393,59.3905854 15.6365459,64.6535429 C18.3781935,69.8656295 22.0697594,73.8057372 26.7617393,76.5588128 C31.4962541,79.3368461 36.7506574,80.724234 42.6074215,80.724234 C48.330952,80.724234 53.5098762,79.3852809 58.220622,76.7024704 C62.8868731,74.045 66.6192969,70.2122206 69.4652742,65.1252842 C70.2912665,63.6488951 71.004731,62.0987356 71.6050812,60.473193 C73.0768312,64.9766129 75.2195714,69.1719279 77.9121667,72.9380929 C74.4791093,78.4074227 70.0290822,82.8102596 64.5949213,86.1005091 C58.0960595,90.0354086 50.7371417,92 42.6074215,92 C34.4777012,92 27.1187834,90.0354086 20.6199216,86.1005091 C14.1132594,82.1608867 9.01752777,76.6261724 5.3859607,69.5762255 C1.78938958,62.5942161 0,54.7147685 0,46 C0,37.2852315 1.78938958,29.4057839 5.3859607,22.4237745 C9.01752777,15.3738276 14.1132594,9.83911331 20.6199216,5.89949091 C27.1187834,1.96459143 34.4777012,0 42.6074215,0 Z M69.6323243,40.4766982 C69.4182269,42.2875667 69.3080722,44.1307631 69.3080722,46 C69.3080722,47.9484127 69.4277562,49.8685321 69.660089,51.7532377 L41.9277316,51.7532033 C38.9319735,51.7532033 36.4981823,49.3580355 36.3688143,46.3659997 L36.3634053,46.1153203 C36.3634053,43.0075182 38.848758,40.4774373 41.9277316,40.4774373 Z" id="Combined-Shape" fill="#000000" fill-rule="nonzero"></path>
            <path d="M124.5,34.7502902 L140.919697,62 L108.080303,62 L124.5,34.7502902 Z" id="Triangle" stroke="#000000" stroke-width="8" transform="translate(124.500000, 46.500000) rotate(90.000000) translate(-124.500000, -46.500000) "></path>
        </g>
    </g>
</svg>