<?xml version="1.0" encoding="UTF-8"?>
<svg width="192px" height="192px" viewBox="0 0 192 192" version="1.1" xmlns="http://www.w3.org/2000/svg" xmlns:xlink="http://www.w3.org/1999/xlink">
    <title>Artboard Copy 100</title>
    <g id="Artboard-Copy-100" stroke="none" stroke-width="1" fill="none" fill-rule="evenodd">
        <path d="M96.5,183 C56.08,173.091818 26,132.279545 26,88.6363636 L26,51.1873431 C26,45.2673158 29.4819282,39.9010353 34.8882622,37.4889249 L90.3882622,12.726836 C94.2779604,10.9913935 98.7220396,10.9913935 102.611738,12.726836 L158.111738,37.4889249 C163.518072,39.9010353 167,45.2673158 167,51.1873431 L167,88.6363636 L167,88.6363636 C167,132.279545 136.92,173.091818 96.5,183 Z M156.492447,89.1730303 L156.492447,51.4672951 C156.492447,48.7073122 154.87068,46.2049649 152.351383,45.0777343 L99.4819761,21.4219252 C97.6629129,20.6080062 95.5831681,20.6080062 93.7641049,21.4219252 L40.8946979,45.0777343 C38.3754009,46.2049649 36.7536335,48.7073122 36.7536335,51.4672951 L36.7536335,89.1730303 L36.7536335,89.1730303 C36.7536335,126.263939 64.5501439,164.556869 96.6230405,173.142727 C128.695937,164.556869 156.492447,126.263939 156.492447,89.1730303 Z" id="Shape" fill="#000000" fill-rule="nonzero"></path>
        <line x1="67.078858" y1="70.0334361" x2="125.078858" y2="70.0334361" id="Path-56" stroke="#000000" stroke-width="12" stroke-linecap="round" stroke-linejoin="round"></line>
        <line x1="67.078858" y1="96.141718" x2="96.3866172" y2="96.4665639" id="Path-56-Copy" stroke="#000000" stroke-width="12" stroke-linecap="round" stroke-linejoin="round"></line>
        <line x1="67.078858" y1="121.75" x2="82.0687238" y2="122.074846" id="Path-56-Copy-2" stroke="#000000" stroke-width="12" stroke-linecap="round" stroke-linejoin="round"></line>
    </g>
</svg>