<?xml version="1.0" encoding="UTF-8"?>
<svg width="192px" height="192px" viewBox="0 0 192 192" version="1.1" xmlns="http://www.w3.org/2000/svg" xmlns:xlink="http://www.w3.org/1999/xlink">
    <title>Artboard Copy 110</title>
    <g id="Artboard-Copy-110" stroke="none" stroke-width="1" fill="none" fill-rule="evenodd">
        <g id="2fas_shield" transform="translate(22, 6)" fill="#000000">
            <path d="M94.9824798,2.67645449 L134.240566,13.1812242 C142.925539,15.4932788 149,23.3844216 149,32.3813297 L149,101.441395 C149,121.345169 139.110175,139.891868 122.69407,150.999782 L80.7250674,179.29732 C77.4117251,181.559112 73.0441375,181.559112 69.680593,179.347582 L26.7577493,150.94952 C10.0404313,139.891868 0,121.194383 0,101.139823 L0,32.3813297 C0,23.3844216 6.07446092,15.4932788 14.759434,13.1812242 L54.0175202,2.67645449 C67.421496,-0.892151497 81.5283019,-0.892151497 94.9824798,2.67645449 Z M57.1193806,14.2686269 L17.8464763,24.7773516 C14.4119838,25.6916589 12,28.8280696 12,32.3813297 L12,101.139823 C12,117.170651 20.0231556,132.107362 33.3790558,140.941608 L75.154,168.58 L115.969152,141.061197 C129.114132,132.166681 137,117.328816 137,101.441395 L137,32.3813297 C137,28.8280696 134.588016,25.6916589 131.138706,24.7733967 L91.9059639,14.275379 C80.4697355,11.2420169 68.487612,11.2420169 57.1193806,14.2686269 Z" id="Path" fill-rule="nonzero"></path>
            <path d="M110,43 C113.313708,43 116,45.6862915 116,49 C116,52.3137085 113.313708,55 110,55 L40,55 C36.6862915,55 34,52.3137085 34,49 C34,45.6862915 36.6862915,43 40,43 L110,43 Z" id="Path-2" fill-rule="nonzero"></path>
            <path d="M68,74 C71.3137085,74 74,76.6862915 74,80 C74,83.3137085 71.3137085,86 68,86 L39,86 C35.6862915,86 33,83.3137085 33,80 C33,76.6862915 35.6862915,74 39,74 L68,74 Z" id="Path-2-Copy" fill-rule="nonzero"></path>
            <circle id="Oval" cx="39" cy="111" r="6"></circle>
        </g>
    </g>
</svg>