<?xml version="1.0" encoding="UTF-8"?>
<svg width="192px" height="192px" viewBox="0 0 192 192" version="1.1" xmlns="http://www.w3.org/2000/svg" xmlns:xlink="http://www.w3.org/1999/xlink">
    <title>Artboard Copy 109</title>
    <g id="Artboard-Copy-109" stroke="none" stroke-width="1" fill="none" fill-rule="evenodd">
        <g id="2fas_shield" transform="translate(18, 1)" fill="#000000">
            <path d="M99.4447439,2.80953786 L140.54717,13.8366442 C149.640162,16.2636628 156,24.5471829 156,33.9914511 L156,106.485442 C156,127.378907 145.645553,146.847817 128.458221,158.508059 L84.5175202,188.212656 C81.0485175,190.586914 76.4757412,190.586914 72.9541779,188.265418 L28.0148248,158.455297 C10.5121294,146.847817 0,127.220623 0,106.168874 L0,33.9914511 C0,24.5471829 6.35983827,16.2636628 15.4528302,13.8366442 L56.5552561,2.80953786 C70.5889488,-0.936512621 85.3584906,-0.936512621 99.4447439,2.80953786 Z M59.6647005,14.3996783 L18.5474256,25.4307582 C14.7054855,26.4562139 12,29.9834982 12,33.9914511 L12,106.168874 C12,123.204339 20.5018942,139.073799 34.6481865,148.455372 L78.687,177.668 L121.721229,148.577654 C135.643856,139.132256 144,123.368324 144,106.485442 L144,33.9914511 C144,29.9834982 141.294514,26.4562139 137.437725,25.4267846 L96.3606972,14.4064623 C84.2971551,11.1983248 71.6578518,11.1983248 59.6647005,14.3996783 Z" id="Path" fill-rule="nonzero"></path>
            <path d="M115,46 C118.313708,46 121,48.6862915 121,52 C121,55.3137085 118.313708,58 115,58 L41.9135802,58 C38.5998717,58 35.9135802,55.3137085 35.9135802,52 C35.9135802,48.6862915 38.5998717,46 41.9135802,46 L115,46 Z" id="Path-2" fill-rule="nonzero"></path>
            <path d="M71.1481481,78 C74.4618566,78 77.1481481,80.6862915 77.1481481,84 C77.1481481,87.3137085 74.4618566,90 71.1481481,90 L41,90 C37.6862915,90 35,87.3137085 35,84 C35,80.6862915 37.6862915,78 41,78 L71.1481481,78 Z" id="Path-2-Copy" fill-rule="nonzero"></path>
            <circle id="Oval" cx="41" cy="115" r="6"></circle>
        </g>
    </g>
</svg>