<?xml version="1.0" encoding="UTF-8"?>
<svg width="192px" height="192px" viewBox="0 0 192 192" version="1.1" xmlns="http://www.w3.org/2000/svg" xmlns:xlink="http://www.w3.org/1999/xlink">
    <title>Artboard Copy 106</title>
    <g id="Artboard-Copy-106" stroke="none" stroke-width="1" fill="none" fill-rule="evenodd">
        <g id="2fas_shield" transform="translate(27, 13)" fill="#000000">
            <path d="M87.3328841,2.45464887 L123.429245,12.0888576 C131.414757,14.2093054 137,21.4464861 137,29.6977941 L137,93.0346494 C137,111.28894 127.906671,128.298619 112.812668,138.485988 L74.2237197,164.438426 C71.1772237,166.512777 67.1613881,166.512777 64.0687332,164.484523 L24.6027628,138.439891 C9.23180593,128.298619 0,111.15065 0,92.7580693 L0,29.6977941 C0,21.4464861 5.58524259,14.2093054 13.5707547,12.0888576 L49.6671159,2.45464887 C61.9915768,-0.81821629 74.9622642,-0.81821629 87.3328841,2.45464887 Z M52.7616203,14.0487872 L16.6504712,23.6869327 C13.9150065,24.4132994 12,26.8971417 12,29.6977941 L12,92.7580693 C12,107.119579 19.2076014,120.503881 31.212355,128.424239 L69.095,153.425 L106.099484,128.539473 C117.91524,120.564686 125,107.268035 125,93.0346494 L125,29.6977941 C125,26.8971417 123.084993,24.4132994 120.334741,23.6829959 L84.2636726,14.0555084 C73.9063823,11.315305 63.0549911,11.315305 52.7616203,14.0487872 Z" id="Path" fill-rule="nonzero"></path>
            <path d="M104.167186,40 C107.480894,40 110.167186,42.6862915 110.167186,46 C110.167186,49.3137085 107.480894,52 104.167186,52 L34.2218204,52 C30.9081119,52 28.2218204,49.3137085 28.2218204,46 C28.2218204,42.6862915 30.9081119,40 34.2218204,40 L104.167186,40 Z" id="Path-2" fill-rule="nonzero"></path>
            <path d="M62.8227518,68 C66.1364603,68 68.8227518,70.6862915 68.8227518,74 C68.8227518,77.3137085 66.1364603,80 62.8227518,80 L34.2218204,80 C30.9081119,80 28.2218204,77.3137085 28.2218204,74 C28.2218204,70.6862915 30.9081119,68 34.2218204,68 L62.8227518,68 Z" id="Path-2-Copy" fill-rule="nonzero"></path>
            <circle id="Oval" cx="34" cy="102" r="6"></circle>
        </g>
    </g>
</svg>