<?xml version="1.0" encoding="UTF-8"?>
<svg width="192px" height="192px" viewBox="0 0 192 192" version="1.1" xmlns="http://www.w3.org/2000/svg" xmlns:xlink="http://www.w3.org/1999/xlink">
    <title>Artboard Copy 102</title>
    <g id="Artboard-Copy-102" stroke="none" stroke-width="1" fill="none" fill-rule="evenodd">
        <path d="M38.1949311,28.8714286 C39.0312885,25.2134844 41.2446655,22 44.9432796,22 L45.0730555,22 C47.2792463,22 49.2907733,23.0571429 50.5885326,24.8410714 L65.9949616,50.0881402 C69.2385154,55.4054217 75.4309059,58.1642789 81.5534325,57.0202546 C85.6492166,56.2547291 90.4288038,55.8719664 95.8921941,55.8719664 C101.373409,55.8719664 106.178299,56.2572308 110.306862,57.0277598 L110.306804,57.0280755 C116.448079,58.1731745 122.656083,55.3921727 125.890023,50.0472553 C135.454902,34.2391525 140.600764,25.8374902 141.325631,24.8410714 C142.623391,23.0571429 144.699806,22 146.841109,22 C148.982411,22 143.207382,22 146.970885,22 C150.734387,22 152.871915,25.1113907 153.719233,28.8714286 C154.566551,32.6314664 163,71.5535714 163,106.571429 C163,141.589286 130.282816,170 95.8921941,170 C61.5015721,170 29,141.589286 29,106.571429 C29,71.5535714 37.3585738,32.5293727 38.1949311,28.8714286 Z" id="Shape" stroke="#000000" stroke-width="12" stroke-linejoin="round" fill-rule="nonzero"></path>
        <path d="M66,90.8596491 C66,86.5245614 69.7182186,83 74.291498,83 L111.603239,83 C116.176518,83 119.894737,86.5245614 119.894737,90.8596491 L119.894737,98.7192982 C119.894737,103.054386 116.176518,106.578947 111.603239,106.578947 L74.291498,106.578947 C69.7182186,106.578947 66,103.054386 66,98.7192982 L66,90.8596491 Z M86.2105263,126.294677 C86.2105263,124.004151 87.9894737,122.153613 90.1913876,122.153613 L90.1913876,120.083081 C90.1913876,114.363235 94.6449761,109.730419 100.143541,109.730419 L118.057416,109.730419 C120.25933,109.730419 122.038278,107.879881 122.038278,105.589355 L122.038278,89.7368421 C126.678469,91.4450312 130,96.0390247 130,101.44829 L130,105.589355 C130,112.447993 124.650718,118.012548 118.057416,118.012548 L100.143541,118.012548 C99.0488038,118.012548 98.15311,118.944288 98.15311,120.083081 L98.15311,122.153613 C100.355024,122.153613 102.133971,124.004151 102.133971,126.294677 L102.133971,142.858935 C102.133971,145.149462 100.355024,147 98.15311,147 L90.1913876,147 C87.9894737,147 86.2105263,145.149462 86.2105263,142.858935 L86.2105263,126.294677 Z" id="Shape" fill="#000000" fill-rule="nonzero"></path>
    </g>
</svg>