<?xml version="1.0" encoding="UTF-8"?>
<svg width="192px" height="192px" viewBox="0 0 192 192" version="1.1" xmlns="http://www.w3.org/2000/svg" xmlns:xlink="http://www.w3.org/1999/xlink">
    <title>Artboard Copy 77</title>
    <g id="Artboard-Copy-77" stroke="none" stroke-width="1" fill="none" fill-rule="evenodd">
        <g id="wi" transform="translate(5.000000, 27.000000)" fill="#000000" fill-rule="nonzero">
            <polygon id="Path" points="28.2899729 139 0 43 20.5392954 43 39.1409214 115.387097 60.0677507 43 82.9322493 43 103.859079 115.387097 122.460705 43 143 43 114.710027 139 93.5894309 139 71.5 63.516129 49.4105691 139"></polygon>
            <path d="M170,25.0972222 C166.231884,25.0972222 163.123188,23.906713 160.673913,21.5256944 C158.224638,19.1446759 157,16.1523148 157,12.5486111 C157,8.94490741 158.224638,5.9525463 160.673913,3.57152778 C163.123188,1.19050926 166.231884,0 170,0 C173.768116,0 176.876812,1.19050926 179.326087,3.57152778 C181.775362,5.9525463 183,8.94490741 183,12.5486111 C183,16.1523148 181.775362,19.1446759 179.326087,21.5256944 C176.876812,23.906713 173.768116,25.0972222 170,25.0972222 Z M160.014493,139 L160.014493,43.2444444 L179.985507,43.2444444 L179.985507,139 L160.014493,139 Z" id="Shape"></path>
        </g>
    </g>
</svg>