<?xml version="1.0" encoding="UTF-8"?>
<svg width="192px" height="192px" viewBox="0 0 192 192" version="1.1" xmlns="http://www.w3.org/2000/svg" xmlns:xlink="http://www.w3.org/1999/xlink">
    <title>Artboard</title>
    <g id="Artboard" stroke="none" stroke-width="1" fill="none" fill-rule="evenodd">
        <g id="wulkanowy-full-flat.4ff8222a" transform="translate(1.000000, 16.000000)" fill-rule="nonzero" stroke="#000000" stroke-width="12">
            <g id="layer2" transform="translate(14.451613, 0.000000)">
                <path d="M48.014,72.332 L40.8554967,93.0247612 C40.4220315,94.3028807 40.2982958,95.6668946 40.5475003,97.0234313 L43.745644,114.766532 L36.0692923,132.001345 C35.2794517,133.810775 35.1825051,135.786871 35.7582589,137.584515 L39.8405512,150.803983 L37.8695451,154 L9.49245349,154 L29.5915359,124.40026 C30.1565409,123.579575 30.523892,122.696744 30.7581673,121.788103 L41.5053806,75.9026625 L48.014,72.332 Z M91.082382,57.7912792 L109.44264,95.1373138 L111.894128,111.391015 C112.141304,112.988779 112.824021,114.409435 113.908315,115.585835 L149.013792,154 L133.718651,154 L117.671915,131.438305 L109.197544,106.692822 C108.548988,104.777228 107.082213,103.0445 105.148233,102.07281 L85.6020275,92.2050155 L82.8617617,78.6153542 C82.669485,77.57934 82.2533321,76.5384396 81.5793372,75.5805318 L75.6982497,66.9392014 L78.1266618,61.7478125 L84.0348497,61.3994342 C85.7980285,61.3104453 87.4010989,60.6831813 88.7160991,59.6296095 L91.082382,57.7912792 Z M62.709,87.471 L70.2302029,107.60572 C71.0392174,109.816808 72.8646641,111.656489 75.27381,112.468349 L90.1969209,117.560085 L98.763193,143.122349 L97.9023476,154 L64.5124231,154 L59.2725399,144.267842 L53.9403345,131.364064 L63.1688489,113.311021 C64.1913426,111.331098 64.3303334,109.017675 63.573929,106.960162 L59.2208763,94.8988795 L62.709,87.471 Z" id="XMLID_42_"></path>
                <path d="M112.623677,6 C113.796362,6 114.893179,6.29844624 115.673451,6.90580234 C115.84061,7.03591746 116.148687,7.15467459 116.148687,7.41417538 C116.148687,7.64081093 115.913703,7.76009512 115.742841,7.87364033 C115.779709,8.53356516 115.89815,9.32170258 116.12512,10.2711503 C117.133729,14.4902872 118.613137,14.8991161 119.767012,15.1579248 L119.933456,15.1951532 C120.097391,15.2321603 120.253522,15.2697785 120.399354,15.3194791 C120.846335,15.4854715 121.264914,15.6760289 121.613853,15.9137354 C121.045961,16.3044555 120.315866,16.576518 119.523728,16.7715372 L116.149067,17.6023571 L115.190696,20.9430341 C115.092397,21.285681 115.191602,21.6541341 114.986882,21.8292392 L113.966104,21.9226289 L109.224537,27.1027099 C108.739199,27.6329335 107.978915,28.0327006 107.103841,28.4202968 C104.232699,29.6920103 100.228891,30.381674 95.8295876,30.381674 C93.8552735,30.381674 91.9703976,30.24098 90.2292756,29.9717762 L84.4762617,33.3586781 C84.3349345,33.4506911 84.1181909,33.41 83.9233277,33.41 L80.4416866,33.41 L78.7140872,36.4327842 C78.1188465,37.4742781 77.8379409,38.5466704 77.7740546,39.7033121 C77.1432621,39.9926882 76.345139,40.1140793 75.5053907,40.1140793 C75.2703518,40.1140793 75.0445807,40.11032 74.8190779,40.0809134 C74.3795699,40.0318162 73.9503859,40.021853 73.5339521,40.0477776 L73.371,40.061 L73.3956555,39.9249452 C73.2485475,39.4801491 73.0465393,38.9819505 72.7766009,38.4206678 L72.6359105,38.1347245 C70.6814526,34.2478772 69.1778004,34.5832923 68.1246664,34.3200552 C66.4174354,33.9398745 65.0475137,33.135801 64.0834372,32.0074962 C63.2655076,31.0502341 62.7478037,29.8491328 62.7478037,28.5289089 C62.7478037,27.4215589 63.1022977,26.3945171 63.6942278,25.5260376 C64.3833307,24.5149862 65.3825195,23.7132722 66.5480574,23.1978241 L68.8225131,17.9554006 C69.0148841,17.8197491 69.2998817,17.8209045 69.573145,17.8209045 L72.6873505,17.8209045 L74.479737,15.2742153 C74.9768842,14.5678501 75.7712894,14.0407203 76.7168999,14.0407203 C79.3059543,14.2303099 81.6632095,13.0245977 82.9480016,11.1894594 C84.4699051,8.87563155 88.3683301,8.02584391 92.2785918,8.02584391 C94.1039986,8.02584391 95.8349563,8.27561319 97.3749901,8.7042169 L105.901433,11.077194 L109.248778,7.19975886 C109.978967,6.35393592 111.281366,6 112.623677,6 Z" id="XMLID_42_-path"></path>
            </g>
        </g>
    </g>
</svg>