<?xml version="1.0" encoding="UTF-8"?>
<svg width="192px" height="192px" viewBox="0 0 192 192" version="1.1" xmlns="http://www.w3.org/2000/svg" xmlns:xlink="http://www.w3.org/1999/xlink">
    <title>Artboard Copy 42</title>
    <g id="Artboard-Copy-42" stroke="none" stroke-width="1" fill="none" fill-rule="evenodd">
        <g id="fluent:key-24-regular" transform="translate(96.000000, 96.000000) scale(-1, 1) translate(-96.000000, -96.000000) translate(10.000000, 10.000000)">
            <rect id="ViewBox" x="0" y="0" width="172" height="172"></rect>
            <path d="M130.777474,49.64 C130.777474,54.6105627 126.768283,58.64 121.822695,58.64 C116.877108,58.64 112.867917,54.6105627 112.867917,49.64 C112.867917,44.6694373 116.877108,40.64 121.822695,40.64 C126.768283,40.64 130.777474,44.6694373 130.777474,49.64 L130.777474,49.64 Z M111.076961,14 C85.1686331,14.0158872 64.1697301,35.1208347 64.1539227,61.16 C64.1539227,63.9464 64.5121138,66.632 64.9419432,69.1088 C65.0697854,69.7415481 64.8826331,70.3972022 64.4404756,70.8656 L19.7740411,115.7648 C16.0790042,119.47642 14.0020656,124.511108 14,129.7616 L14,145.4 C14,152.3552 19.616437,158 26.5366897,158 L44.4462465,158 C51.370069,158 56.9829362,152.358788 56.9829362,145.4 L56.9829362,136.4 L69.5267897,136.4 C74.4698274,136.4 78.4815681,132.368 78.4815681,127.4 L78.4815681,114.8 L91.0182578,114.8 C95.8379605,114.803281 99.7956722,110.971962 99.9730362,106.1312 C103.526292,107.0528 107.280135,107.6 111.076961,107.6 C136.98529,107.584113 157.984193,86.4791653 158,60.44 C158,34.2968 136.845232,14 111.076961,14 L111.076961,14 Z M74.8996567,61.16 C74.9154587,41.0855086 91.1033368,24.8158817 111.076961,24.8 C131.149993,24.8 147.254266,40.5032 147.254266,60.44 C147.238464,80.5144914 131.050586,96.7841183 111.076961,96.8 C106.205562,96.8 101.190886,95.5688 96.7134968,93.632 C95.0523114,92.9148589 93.1436435,93.0854868 91.634475,94.0860461 C90.1253064,95.0866054 89.2180123,96.7829238 89.2201383,98.6 L89.2201383,104 L76.6906124,104 C71.7475747,104 67.735834,108.032 67.735834,113 L67.735834,125.6 L55.1991443,125.6 C50.2561067,125.6 46.244366,129.632 46.244366,134.6 L46.244366,145.4 C46.244366,146.394113 45.4425278,147.2 44.4534103,147.2 L26.5438535,147.2 C25.554736,147.2 24.7528979,146.394113 24.7528979,145.4 L24.7528979,129.7616 C24.7528979,127.3784 25.6985225,125.0816 27.374857,123.3968 L72.0484553,78.5048 C74.9666776,75.5464275 76.2660986,71.3436341 75.5300731,67.244 C75.1456806,65.2380781 74.9347547,63.2024818 74.8996567,61.16 L74.8996567,61.16 Z" id="Shape" fill="#000000" fill-rule="nonzero"></path>
        </g>
    </g>
</svg>