<?xml version="1.0" encoding="UTF-8"?>
<svg width="192px" height="192px" viewBox="0 0 192 192" version="1.1" xmlns="http://www.w3.org/2000/svg" xmlns:xlink="http://www.w3.org/1999/xlink">
    <title>Artboard Copy 38</title>
    <g id="Artboard-Copy-38" stroke="none" stroke-width="1" fill="none" fill-rule="evenodd">
        <line x1="49" y1="17" x2="114" y2="175" id="Path-14" stroke="#000000" stroke-width="12" stroke-linecap="round" stroke-linejoin="round"></line>
        <g id="A" transform="translate(12.254000, 75.504461)" fill="#000000" fill-rule="nonzero">
            <path d="M-0.254,62.4955388 L22.3801463,0.495538772 L35.1118537,0.495538772 L57.746,62.4955388 L45.7216098,62.4955388 L40.7703902,48.1469673 L16.6331951,48.1469673 L11.593561,62.4955388 L-0.254,62.4955388 Z M19.7277073,39.2898245 L37.675878,39.2898245 L28.6575854,13.5155388 L19.7277073,39.2898245 Z" id="Shape"></path>
        </g>
        <g id="ã‚" transform="translate(104.437909, 34.918762)" fill="#000000" fill-rule="nonzero">
            <path d="M72.0709874,9.28583566 C62.1065746,9.81687014 49.2951867,10.2593989 33.8147597,10.5249161 C34.1706315,7.69273221 34.7044394,4.8605483 35.3272152,2.0283644 L26.2524821,0.081237959 C25.5407383,3.62146784 24.9179625,7.16169773 24.4731226,10.7019276 C17.177749,10.7019276 9.34856748,10.7904334 0.98557816,10.7904334 L1.07454613,19.2869851 C8.90372763,19.2869851 16.3770372,19.1984793 23.494475,19.1984793 C23.1386031,22.7387092 22.8716992,26.3674449 22.7827312,29.9961805 C18.9571084,31.4122724 15.3983895,33.3593989 12.1955426,35.7490541 C3.74358528,41.8559506 -0.437909385,49.1134219 -0.437909385,57.4329621 C-0.437909385,62.2122724 0.896610188,66.1065253 3.74358528,69.027215 C6.50159239,71.8593989 10.1492792,73.3639966 14.6866458,73.3639966 C26.34145,73.3639966 36.1279269,67.4341115 44.1350444,55.7513529 C47.6937632,50.2639966 50.8966102,43.803077 53.5656493,36.2800885 C54.9891369,36.7226173 56.4126244,37.3421575 57.836112,38.1387092 C62.8183184,40.9708931 65.3094216,44.9536518 65.3094216,50.1754908 C65.3094216,55.8398586 62.9072863,60.1766403 58.2809518,63.3628472 C54.0104892,66.1065253 47.6047952,68.0536518 38.974902,69.1157207 L42.177749,77.081238 C52.8539056,75.665146 60.772055,72.9214678 66.0211653,68.9387092 C71.7151155,64.5134219 74.5620906,58.3180196 74.5620906,50.1754908 C74.5620906,42.4754908 71.1813077,36.4571 64.5976778,32.0318127 C61.9286387,30.2616977 59.1706315,28.9341115 56.1457205,28.0490541 C56.5015924,26.6329621 56.9464323,25.2168701 57.3023041,23.8007782 L48.494475,21.765146 C48.1386031,23.3582495 47.6937632,24.8628472 47.2489234,26.3674449 C46.1813077,26.2789391 45.0247241,26.2789391 43.9571084,26.2789391 C39.7756137,26.2789391 35.861023,26.6329621 32.1243682,27.3410081 C32.3023041,24.5088242 32.4802401,21.765146 32.747144,19.0214678 C48.494475,18.7559506 61.7507027,18.3134219 72.6047952,17.6938816 L72.0709874,9.28583566 Z M44.5798842,34.7754908 C42.2667169,40.9708931 39.4197419,46.3697437 36.2168949,51.1490541 C35.1492792,52.565146 34.1706315,53.8927322 33.1919839,55.1318127 C32.3023041,49.2904334 31.9464323,42.9180196 31.9464323,36.103077 C35.6830871,35.2180196 39.6866458,34.7754908 43.9571084,34.7754908 L44.5798842,34.7754908 Z M22.6937632,39.5548012 C22.8716992,47.6973299 23.6724109,55.2203184 25.0958984,62.1237667 C21.7151155,63.9823874 18.2453646,64.9559506 14.6866458,64.9559506 C10.6830871,64.9559506 8.72579168,62.3892839 8.72579168,57.4329621 C8.72579168,51.6800885 12.0176066,46.5467552 18.6902045,41.9444563 C19.9357561,41.0593989 21.2702757,40.2628472 22.6937632,39.5548012 Z" id="Shape"></path>
        </g>
    </g>
</svg>